<svg xmlns="http://www.w3.org/2000/svg" viewBox="0 0 500 500"><g id="freepik--background-simple--inject-56"><path d="M443.12,204.84C434,170,403,140.76,367.14,137.78c-18.32-1.53-37.09,3.37-55-.86-18.65-4.41-33.63-18.13-46.12-32.67S242.49,73.67,227.38,61.9c-31.75-24.73-79.19-25.83-113.27-4.42s-52.78,48.64-60,97.43c-8,55,12.79,103.33,50.71,147,52.11,57.39,147.72,77.66,223,59,34.95-8.68,68.26-26.8,90.93-54.78S452.29,239.66,443.12,204.84Z" style="fill:#ebebeb"></path></g><g id="freepik--Character--inject-56"><path d="M145.88,234.16l-2.23,3c-4.65,12.82-4.58,26.58,3.27,37.73l15.72,23.33L97,277.13,84,289.63l83.54,37.13a19.6,19.6,0,0,0,20.67-3.36h0a19.56,19.56,0,0,0,6.31-18l-14.63-50.3Z" style="fill:#ffbe9d"></path><polygon points="157.27 290.49 190.14 290.49 188.72 285.61 155.45 287.75 157.27 290.49" style="fill:#eb996e"></polygon><path d="M173.91,310.43a16.46,16.46,0,0,1-1.67-1.95c-1-1.22-2.4-2.88-4.05-4.63s-3.24-3.25-4.41-4.31a15.18,15.18,0,0,1-1.85-1.77,10.06,10.06,0,0,1,2.09,1.49,47.16,47.16,0,0,1,4.54,4.23,46.12,46.12,0,0,1,4,4.77A11.16,11.16,0,0,1,173.91,310.43Z" style="fill:#eb996e"></path><path d="M184.45,244.87l71,17.54a21.5,21.5,0,0,1,14.65,12.51l36.79,78.73-22.49,4.41-41.62-70.23-55-11.42Z" style="fill:#ffbe9d"></path><path d="M246.68,281.76a14.45,14.45,0,0,1-1.92,3.35,14.25,14.25,0,0,1-2.36,3.07,29,29,0,0,1,4.28-6.42Z" style="fill:#eb996e"></path><polygon points="191.98 277.29 193.99 277.71 214.58 252.32 211 251.43 191.98 277.29" style="fill:#eb996e"></polygon><path d="M327.17,227c-2,1.81,8.42-.59,8.86,1.32.16.7.19,1.26-5.95,1.78a138.37,138.37,0,0,1-14.84-.26l-.57,0h0L266.44,241a18.36,18.36,0,0,1-8,.08l-33.81-28.27,12.87-18.42L265,221.23l46.88-6.64,2.25-1.55c.65-.44,1.36-.94,2.15-1.53a10.37,10.37,0,0,0,2.33-2.48,16,16,0,0,0,2-3.73c.33-1.26,2-1.5,2.41-.41s-.4,4.57-3,7.84,3.73,1.84,6.07,1.36,9.6-1.63,10.3-1c1,.89.24,2.18-2.09,2.6s-9.28,2.2-9,3.43,12.12-1.41,12.12-1.41,2.45-1,2.82.44c.67,2.53-12.09,4.37-13.31,4.51-.85.1-.59,1.45.31,1.29s11.76-2.88,12.47-.31C340.17,225.58,329.14,225.22,327.17,227Z" style="fill:#ffbe9d"></path><path d="M263.77,227a7.34,7.34,0,0,1,.15-2.79,7.76,7.76,0,0,1,.67-2.72,14.92,14.92,0,0,1-.82,5.51Z" style="fill:#eb996e"></path><path d="M212.69,249.13l-19.5-6.6-16.32,11.26h0L145,233.61a35.85,35.85,0,0,0-6.46,19.74c-.05,5.75,2,13.07,8.74,24.19l6.21,10.34,40-2.58-2.26-7Z" style="fill:#407BFF"></path><g style="opacity:0.4"><path d="M212.69,249.13l-19.5-6.6-16.32,11.26h0L145,233.61a35.85,35.85,0,0,0-6.46,19.74c-.05,5.75,2,13.07,8.74,24.19l6.21,10.34,40-2.58-2.26-7Z"></path></g><path d="M156.14,288a4.25,4.25,0,0,1-.23-.53l-.57-1.55a51.68,51.68,0,0,0-2.58-5.46c-1.21-2.25-2.8-4.85-4.54-7.76a56.72,56.72,0,0,1-4.9-9.9,26.1,26.1,0,0,1-1.5-10.94,43.88,43.88,0,0,1,1.69-8.87c.72-2.46,1.42-4.42,1.91-5.76.24-.63.43-1.14.59-1.55a2,2,0,0,1,.24-.52,3.11,3.11,0,0,1-.14.56l-.5,1.57c-.43,1.37-1.07,3.34-1.74,5.8a45.85,45.85,0,0,0-1.57,8.8,26.27,26.27,0,0,0,1.51,10.73,58.52,58.52,0,0,0,4.83,9.84c1.7,2.92,3.27,5.54,4.45,7.82a45.15,45.15,0,0,1,2.44,5.57c.23.69.38,1.23.48,1.59A1.79,1.79,0,0,1,156.14,288Z" style="fill:#fafafa"></path><path d="M158.43,287a2.77,2.77,0,0,1-.29-.46l-.75-1.35-2.68-5c-1.12-2.16-2.44-4.7-3.91-7.5a97.77,97.77,0,0,1-4.48-9.36A26.79,26.79,0,0,1,144.55,253a46.24,46.24,0,0,1,1-8.43c.49-2.36,1-4.25,1.34-5.55.17-.6.31-1.09.43-1.49a1.81,1.81,0,0,1,.18-.51,1.92,1.92,0,0,1-.08.53c-.09.41-.2.91-.33,1.52-.29,1.31-.74,3.21-1.18,5.57A48.71,48.71,0,0,0,145,253a27,27,0,0,0,1.77,10c1.31,3.41,3,6.48,4.43,9.33S154,277.79,155,280l2.53,5.11c.27.57.49,1,.66,1.41A1.74,1.74,0,0,1,158.43,287Z" style="fill:#fafafa"></path><path d="M193,284.86c-.13,0-2-5.32-4.27-12s-3.91-12.09-3.77-12.14,2,5.32,4.27,12S193.17,284.81,193,284.86Z" style="fill:#263238"></path><path d="M194,253.51a48,48,0,0,1-3,6.42,17.56,17.56,0,0,1-2.64,4.3,2.83,2.83,0,0,1-1.85,1,7.7,7.7,0,0,0,1.58-1.26,21.79,21.79,0,0,0,2.44-4.28A47.16,47.16,0,0,1,194,253.51Z" style="fill:#263238"></path><path d="M84.31,290.16c6.26-4.48,12.07-8.6,18.79-11.07l-4.41-6.37-1.16.71c-5.16,3.19-26,16.58-28.6,19.9C66,297,84.31,290.16,84.31,290.16" style="fill:#407BFF"></path><path d="M99.24,273a1.48,1.48,0,0,0-.34.18l-.92.57-3.37,2.14c-2.83,1.82-6.71,4.4-10.93,7.34s-8,5.68-10.68,7.7l-3.17,2.42L69,294c-.19.15-.29.24-.28.25L69,294l.88-.63L73.11,291c2.73-2,6.5-4.7,10.72-7.64s8.08-5.53,10.88-7.4c1.31-.87,2.42-1.6,3.32-2.21l.9-.6A1.85,1.85,0,0,0,99.24,273Z" style="fill:#263238"></path><path d="M96.08,282.39c0-.06-2.2-.23-4.92-.39s-4.92-.24-4.92-.18,2.19.23,4.91.39S96.07,282.45,96.08,282.39Z" style="fill:#fafafa"></path><path d="M92.86,284.48c0-.06-2.07-.28-4.63-.5s-4.65-.35-4.65-.29,2.07.28,4.63.5S92.85,284.53,92.86,284.48Z" style="fill:#fafafa"></path><path d="M78,289.63a6.38,6.38,0,0,1,.42,1.32,6.08,6.08,0,0,1-.07,1.37,2.24,2.24,0,0,0-.35-2.69Z" style="fill:#263238"></path><path d="M76,290.49c-.06,0,.31.5.46,1.16a4.45,4.45,0,0,1,0,1.23,1.42,1.42,0,0,0,.25-1.27A1.7,1.7,0,0,0,76,290.49Z" style="fill:#263238"></path><path d="M80,288.81a6.65,6.65,0,0,1,.44,1.4,7,7,0,0,1-.05,1.47,2.51,2.51,0,0,0-.39-2.87Z" style="fill:#263238"></path><path d="M81.3,291.21a1.67,1.67,0,0,0-.27.32,8.12,8.12,0,0,0-.64.94,4,4,0,0,0-.52,1.61,2.77,2.77,0,0,0,.12,1,1.18,1.18,0,0,0,.79.79.75.75,0,0,0,.81-.5,2.6,2.6,0,0,0,.18-.87,7.4,7.4,0,0,0-.06-1.52,6.51,6.51,0,0,0-.52-1.76l0-.08v.08a1.23,1.23,0,0,0,0,.18s0-.05.07-.17h0a9.16,9.16,0,0,1,.41,1.76,7.22,7.22,0,0,1,0,1.48,2.37,2.37,0,0,1-.16.8.56.56,0,0,1-.59.39c-.64-.19-.8-1-.76-1.6a4,4,0,0,1,.46-1.55C81,291.71,81.33,291.24,81.3,291.21Z" style="fill:#263238"></path><path d="M81.27,291.42a.87.87,0,0,0,.14.3,5.28,5.28,0,0,0,.55.75,5.57,5.57,0,0,0,1,.93,3.68,3.68,0,0,0,.71.41.67.67,0,0,0,.89-.21.83.83,0,0,0-.18-.91,3.77,3.77,0,0,0-.63-.53,5.63,5.63,0,0,0-1.22-.65,4.84,4.84,0,0,0-.89-.24,1.1,1.1,0,0,0-.34,0s.47.1,1.18.4a5.89,5.89,0,0,1,1.16.66c.36.29,1,.7.74,1.19-.11.22-.4.22-.64.12a4.09,4.09,0,0,1-.68-.38,6.55,6.55,0,0,1-1-.87C81.54,291.82,81.3,291.4,81.27,291.42Z" style="fill:#263238"></path><path d="M99.08,280.77a9.43,9.43,0,0,0-1.41-.24L94.25,280c-1.34-.19-2.55-.33-3.43-.42l-1-.09a1.58,1.58,0,0,0-.38,0,9.43,9.43,0,0,0,1.41.24l3.42.49c1.33.19,2.55.34,3.43.42l1,.1Z" style="fill:#fafafa"></path><path d="M306.33,352.12c-8.11,1.94-15.62,3.71-23.37,3.45l1.83,8.18,1.45-.23c6.48-1.1,32.83-6,36.81-8.31,4.44-2.53-16.72-3.09-16.72-3.09" style="fill:#407BFF"></path><path d="M284.34,363.29a1.81,1.81,0,0,0,.41,0l1.16-.19,4.25-.78c3.58-.68,8.52-1.68,13.95-2.9S314.44,356.93,318,356l4.17-1.13,1.13-.33a2.25,2.25,0,0,0,.38-.13,2.38,2.38,0,0,0-.4.08l-1.14.27-4.19,1c-3.54.88-8.44,2.07-13.87,3.29s-10.36,2.26-13.93,3l-4.23.87-1.15.24Z" style="fill:#263238"></path><path d="M291.35,355.12c0,.06,2.11,1.13,4.77,2.39s4.84,2.25,4.87,2.19-2.11-1.12-4.77-2.39S291.38,355.07,291.35,355.12Z" style="fill:#fafafa"></path><path d="M295.43,354.34c0,.06,2,1.13,4.45,2.39s4.51,2.24,4.54,2.18-2-1.12-4.44-2.38S295.46,354.29,295.43,354.34Z" style="fill:#fafafa"></path><path d="M312.48,355.24a6.85,6.85,0,0,1,.11-1.49,6.61,6.61,0,0,1,.64-1.35,2.4,2.4,0,0,0-.75,2.84Z" style="fill:#263238"></path><path d="M314.83,355.2a13,13,0,0,1,0-1.35,5.66,5.66,0,0,1,.54-1.23,1.67,1.67,0,0,0-.76,1.18A1.93,1.93,0,0,0,314.83,355.2Z" style="fill:#263238"></path><path d="M310.14,355.25a4.62,4.62,0,0,1,.77-3,2.71,2.71,0,0,0-.77,3Z" style="fill:#263238"></path><path d="M309.77,352.29s.15-.06.4-.2a8.34,8.34,0,0,0,1-.69,4.21,4.21,0,0,0,1.19-1.4,2.87,2.87,0,0,0,.29-1.07,1.27,1.27,0,0,0-.47-1.12.81.81,0,0,0-1,.18,2.65,2.65,0,0,0-.53.8,8.31,8.31,0,0,0-.56,1.54,6.65,6.65,0,0,0-.19,2v.09l.05-.07c.06-.11.09-.17.08-.17s0,0-.13.14H310a10.08,10.08,0,0,1,.31-1.93,8.36,8.36,0,0,1,.58-1.5,2.83,2.83,0,0,1,.49-.73.6.6,0,0,1,.75-.15c.56.45.38,1.35.11,1.91a4.07,4.07,0,0,1-1.1,1.37C310.31,351.93,309.75,352.26,309.77,352.29Z" style="fill:#263238"></path><path d="M309.89,352.1a1.3,1.3,0,0,0,0-.37,5.81,5.81,0,0,0-.24-1,6.51,6.51,0,0,0-.65-1.34,4.76,4.76,0,0,0-.54-.71.75.75,0,0,0-1-.15.9.9,0,0,0-.18,1,4.19,4.19,0,0,0,.41.79,5.38,5.38,0,0,0,1,1.14,5.48,5.48,0,0,0,.8.61c.2.12.32.17.33.15s-.44-.29-1-.87a6.55,6.55,0,0,1-.89-1.14c-.25-.44-.68-1.09-.26-1.49.2-.18.49-.06.69.13a4.72,4.72,0,0,1,.52.66,7,7,0,0,1,.67,1.29C309.78,351.59,309.85,352.11,309.89,352.1Z" style="fill:#263238"></path><path d="M287.68,355.52a10.43,10.43,0,0,0,1.32.82l3.23,1.88c1.26.73,2.42,1.38,3.27,1.83l1,.51c.24.12.38.18.38.16a12.27,12.27,0,0,0-1.31-.81L292.34,358c-1.26-.74-2.42-1.38-3.26-1.83l-1-.51A1.75,1.75,0,0,0,287.68,355.52Z" style="fill:#fafafa"></path><path d="M145,233.61l10.69-10.06c3.87-3.63,14.85-10.35,17.22-15.1,3.94-7.91,4.25-15.08,7.67-23.51,1.36-3.35,7.49-20.07,25.09-14.74,10.92,3.32,17.14,7.08,23.8,13.31,3.35,3.15,12,15.1,12,15.1l-11.3,18.07-2.79,4.63a16.8,16.8,0,0,1-5.81,5.77,12,12,0,0,1-3,1.22l-5.09,1.32a11.74,11.74,0,0,0-8.55,8.95L203,247.21l-3.39,2.25a34.16,34.16,0,0,1-28.5,4.31h0a34.12,34.12,0,0,1-14.45-8.52Z" style="fill:#407BFF"></path><path d="M200.46,198.56c-1.88,7.26-6.81,13.57-13.15,19.46L211,229.46c6.58-4.9,11.9-10.1,14.47-16Z" style="fill:#e0e0e0"></path><path d="M204.76,208.66l-4.29,7.22-1.34-.79,3.62-6.1-1.53-.91.67-1.12Z" style="fill:#263238"></path><path d="M209.32,218.91l-1.28-.76-1,1.64-1.3-.77,1-1.64-4-2.35.55-.93,6.32-2.54,1.43.85-6,2.46,2.36,1.4.86-1.45,1.26.74-.86,1.46,1.28.76Z" style="fill:#263238"></path><path d="M214.79,222.84l-.68,1.13-5.32-3.15.53-.9,4.49-1c1.09-.26,1.47-.61,1.71-1,.39-.66.16-1.31-.72-1.83a2.35,2.35,0,0,0-2.14-.25l-.51-1.28a3.83,3.83,0,0,1,3.45.43c1.57.93,2.11,2.32,1.35,3.6a3.39,3.39,0,0,1-2.55,1.57l-3,.69Z" style="fill:#263238"></path><path d="M218.71,227.59a9.24,9.24,0,0,1-1.46.14c-.95.05-2.31.13-4,.27a118.2,118.2,0,0,0-13.06,1.77A117,117,0,0,0,187.42,233c-1.61.51-2.91.93-3.81,1.24a7.24,7.24,0,0,1-1.41.42,8.7,8.7,0,0,1,1.34-.61c.88-.36,2.16-.85,3.76-1.4a96.61,96.61,0,0,1,25.93-5c1.69-.09,3.06-.12,4-.11A7.39,7.39,0,0,1,218.71,227.59Z" style="fill:#263238"></path><path d="M206.36,206.35c.47.23,10.5,5.6,10.5,5.6l.93-1.52L207.18,205Z" style="fill:#455a64"></path><path d="M186,186.84a4.71,4.71,0,0,1,0,.66,17.11,17.11,0,0,1-.15,1.91,38,38,0,0,1-1.51,6.87,57.56,57.56,0,0,1-4,9.63,62.44,62.44,0,0,1-7,10.7c-5.87,7-12.48,11.95-17.22,15.48-2.39,1.75-4.36,3.12-5.73,4.06l-1.58,1.07a3.18,3.18,0,0,1-.57.34,4.21,4.21,0,0,1,.51-.43l1.53-1.15,5.62-4.19c4.68-3.59,11.23-8.61,17-15.51a64.45,64.45,0,0,0,7-10.59,61,61,0,0,0,4.07-9.53,41.49,41.49,0,0,0,1.66-6.78C185.88,187.75,185.93,186.83,186,186.84Z" style="fill:#fafafa"></path><path d="M187.82,187.47a2.75,2.75,0,0,1,0,.68c0,.5-.09,1.14-.16,1.94a24.83,24.83,0,0,1-.38,3.06q-.15.89-.33,1.89c-.06.34-.11.69-.18,1s-.19.7-.28,1.07c-.19.74-.39,1.5-.6,2.3s-.53,1.6-.81,2.45a51.28,51.28,0,0,1-2.16,5.25A56.28,56.28,0,0,1,175.75,218a70.16,70.16,0,0,1-9.27,9.12,106,106,0,0,1-8.48,6.38c-2.51,1.68-4.56,3-6,3.87l-1.67,1a3.09,3.09,0,0,1-.6.32,3.4,3.4,0,0,1,.54-.4l1.62-1.08c1.42-.91,3.43-2.28,5.91-4s5.36-3.85,8.38-6.45a72,72,0,0,0,9.18-9.09,56.89,56.89,0,0,0,7.13-10.73,52.33,52.33,0,0,0,2.19-5.19c.28-.83.62-1.62.83-2.41s.42-1.55.62-2.28c.1-.36.2-.71.29-1.06s.14-.69.21-1c.13-.67.25-1.29.36-1.88a26.86,26.86,0,0,0,.47-3c.1-.79.19-1.43.25-1.93A4.16,4.16,0,0,1,187.82,187.47Z" style="fill:#fafafa"></path><path d="M234.89,190.22s-.07.13-.24.32a10.89,10.89,0,0,1-.79.81,15.59,15.59,0,0,1-3.36,2.46,12.81,12.81,0,0,1-6,1.65,10.43,10.43,0,0,1-7.08-2.56,10,10,0,0,1-3-6.88,17,17,0,0,1,.88-6.12,34.28,34.28,0,0,1,1.5-3.87,8.85,8.85,0,0,1,.67-1.37,7.53,7.53,0,0,1-.48,1.44c-.34.92-.86,2.24-1.34,3.91a17.57,17.57,0,0,0-.75,6,9.62,9.62,0,0,0,2.91,6.53,10.15,10.15,0,0,0,6.73,2.46,12.93,12.93,0,0,0,5.79-1.49,18.36,18.36,0,0,0,3.4-2.29C234.47,190.57,234.86,190.2,234.89,190.22Z" style="fill:#fafafa"></path><path d="M235.64,192.37s-.09.13-.29.34-.53.49-1,.85a17.31,17.31,0,0,1-4,2.42,17.64,17.64,0,0,1-6.83,1.46,11.68,11.68,0,0,1-8-2.78,9,9,0,0,1-2.39-3.78,13.36,13.36,0,0,1-.66-4.11,24.78,24.78,0,0,1,1.1-6.89l1.3-4.5a15.4,15.4,0,0,1,.48-1.65,1.53,1.53,0,0,1,0,.45c0,.28-.12.71-.24,1.25-.23,1.08-.65,2.63-1.14,4.54a25.71,25.71,0,0,0-1,6.79,10.41,10.41,0,0,0,2.93,7.52,11.31,11.31,0,0,0,7.66,2.68,17.8,17.8,0,0,0,6.69-1.32A22.73,22.73,0,0,0,235.64,192.37Z" style="fill:#fafafa"></path><g style="opacity:0.30000000000000004"><path d="M169.39,214.8c1.07.57,2.38.16,3.5-.31a36.91,36.91,0,0,0,14-10,27.36,27.36,0,0,0,6.56-15.81L183,184.24a3.22,3.22,0,0,0-1.34-.35c-1.57.06-1.83,2.15-2.25,3.67-2.07,7.39-3.77,16.32-6.46,20.66a16.66,16.66,0,0,1-4.44,5.15"></path></g><path d="M199.2,168.23c-9.77-2.74-23.56-6.42-32.76-8.86a16.67,16.67,0,0,0-16.59,4.9l-33.2,36.46a126.07,126.07,0,0,0-8.87,11c-3.4,5.14-3,5.46-2.3,5.77,1.77.84,6.33-8.79,6.53-6.13s-6.92,11.1-5,11.9c2.46,1,7-9.14,7.49-10s1.65-.18,1.21.55c-.65,1.05-7.12,12.2-4.72,13.25,1.33.58,2.09-1.95,2.09-1.95s5.3-10.9,6.42-10.37-1.77,7.05-2.9,9.17-.58,3.51.74,3.26c.91-.18,4.52-6.59,5.59-8.72s3.9-8,4.83-3.92,3.16,6.91,4.27,7.25,2-1.11,1.18-2.15a15.27,15.27,0,0,1-1.69-3.89,10.33,10.33,0,0,1-.5-3.36c0-1,.07-1.85.13-2.63l.17-2.59,28.93-29.34,32.44,11.26a11,11,0,1,0,6.55-20.92Z" style="fill:#ffbe9d"></path><path d="M156.9,171.94a5.74,5.74,0,0,1,2.36,3,5.84,5.84,0,0,1,.45,3.83,28.85,28.85,0,0,0-.93-3.63A26.67,26.67,0,0,0,156.9,171.94Z" style="fill:#eb996e"></path><path d="M265.73,127.09a1.65,1.65,0,0,1,.3.86,4.12,4.12,0,0,1-.48,2.43,6.36,6.36,0,0,1-2.64,2.57,27.16,27.16,0,0,1-4.1,1.73,47.42,47.42,0,0,1-7.81,2c-1,.17-1.84.27-2.42.32a2.74,2.74,0,0,1-.9,0,32,32,0,0,1,3.25-.7,64.13,64.13,0,0,0,7.7-2.14,30.94,30.94,0,0,0,4.05-1.66,6.26,6.26,0,0,0,2.55-2.32,4.23,4.23,0,0,0,.59-2.25C265.8,127.41,265.68,127.1,265.73,127.09Z" style="fill:#263238"></path><path d="M252.23,175.22c2.07.35,4-1.29,5-3.09s1.71-3.88,3.1-5.45c1-1.11,2.34-1.92,3.09-3.21s.79-3.11,1.46-4.58c.93-2,3.05-3.32,4.06-5.32a5.67,5.67,0,1,0-10.42-4.38" style="fill:#263238"></path><path d="M235.58,188.92l3.43-7s7.15,2.12,12.73-5.84c2.77-4,6-11.1,8.42-17a10.14,10.14,0,0,0-5.91-13.39l-18.65-6.76-1.31,2.81-17.88,38a10.63,10.63,0,0,0,5.23,14.21h0A10.63,10.63,0,0,0,235.58,188.92Z" style="fill:#ffbe9d"></path><path d="M256,163.08a1.23,1.23,0,0,1-1.61.6,1.19,1.19,0,0,1-.66-1.56,1.23,1.23,0,0,1,1.61-.59A1.18,1.18,0,0,1,256,163.08Z" style="fill:#263238"></path><path d="M256.85,162c-.21.08-.74-1-1.93-1.53s-2.36-.41-2.42-.61.24-.29.75-.38a3.36,3.36,0,0,1,2,.31,3.22,3.22,0,0,1,1.45,1.4C257,161.61,257,161.93,256.85,162Z" style="fill:#263238"></path><path d="M244.09,157.27a1.23,1.23,0,0,1-1.61.6,1.18,1.18,0,0,1-.66-1.55,1.23,1.23,0,0,1,1.61-.6A1.18,1.18,0,0,1,244.09,157.27Z" style="fill:#263238"></path><path d="M245,156.48c-.21.08-.75-.95-1.94-1.53s-2.35-.41-2.41-.62.23-.28.75-.37a3.36,3.36,0,0,1,2,.31,3.22,3.22,0,0,1,1.45,1.4C245.14,156.13,245.14,156.45,245,156.48Z" style="fill:#263238"></path><path d="M245.06,167.42a8.64,8.64,0,0,1,2.1.59c.32.12.64.2.79,0a1.73,1.73,0,0,0,.24-1c.07-.87.15-1.79.23-2.75a42.76,42.76,0,0,1,.93-7,45.67,45.67,0,0,1-.37,7.1c-.09,1-.18,1.87-.27,2.75a2,2,0,0,1-.42,1.27.9.9,0,0,1-.72.2,2.73,2.73,0,0,1-.55-.18A8.92,8.92,0,0,1,245.06,167.42Z" style="fill:#263238"></path><path d="M239,181.91a24.48,24.48,0,0,1-10-8.72s-.08,7.3,8.95,10.7Z" style="fill:#eb996e"></path><path d="M247.62,152c-.28.27-1.39-.46-2.87-1s-2.79-.68-2.84-1.06c0-.18.33-.39.94-.48a5,5,0,0,1,2.35.28,4.9,4.9,0,0,1,2,1.28C247.61,151.45,247.75,151.83,247.62,152Z" style="fill:#263238"></path><path d="M258.09,158.3c-.34.17-1-.51-2-1s-1.91-.7-2-1.08c0-.18.25-.38.74-.46a3.08,3.08,0,0,1,1.85.35,3.19,3.19,0,0,1,1.35,1.33C258.27,157.88,258.25,158.21,258.09,158.3Z" style="fill:#263238"></path><path d="M247.18,136.62a23.45,23.45,0,0,0-1.38,8.47,9.55,9.55,0,0,0,3.88,7.37c1.87,1.23,4.19,1.52,6.41,1.78l6.44.74a11.22,11.22,0,0,0,3.79,0,7.06,7.06,0,0,0,5-5.59,10.66,10.66,0,0,0-3.85-9.87,17.23,17.23,0,0,0-10.3-3.64,46.64,46.64,0,0,0-11,1.17" style="fill:#263238"></path><path d="M249.66,138,248.21,137a7.25,7.25,0,0,0-1.64-3.71,5.18,5.18,0,0,0,.87-.6,5.43,5.43,0,0,0,.38-7.49,8.86,8.86,0,0,1-1.77-2c-.5-1-.21-2.28-.49-3.39-.44-1.72-2.12-2.77-3.66-3.65a10.88,10.88,0,0,0-3.27-1.41,3.74,3.74,0,0,0-3.34.81c-.89.89-1.13,2.32-2.15,3.06s-2.25.54-3.39.84c-2.62.68-4,3.7-3.91,6.41a10.2,10.2,0,0,0,5.38,8.5,8.15,8.15,0,0,0,1.05.46,8.18,8.18,0,0,1-1.81,1.29c-1.4.67-3,.71-4.51,1.13a8.84,8.84,0,0,0-5.77,11.88,14.12,14.12,0,0,1,1.42,3.62c.16,1.36-.4,2.69-.57,4a7.18,7.18,0,0,0,8.08,8,4.6,4.6,0,0,0,3.82-2.65c.66-1.76-.26-3.81.38-5.58s2.52-2.67,3.25-4.33c.85-1.91,0-4.4,1.28-6.07s3.65-1.48,5.63-1.94A8.43,8.43,0,0,0,249.66,138Z" style="fill:#263238"></path><path d="M243.45,133.13c0,.05-.3.45-1,.93a8.27,8.27,0,0,1-3.06,1.21,8.18,8.18,0,0,1-3.3-.1c-.82-.2-1.28-.47-1.25-.53a15.13,15.13,0,0,0,4.46.11A15.69,15.69,0,0,0,243.45,133.13Z" style="fill:#407BFF"></path><path d="M248.7,136.91c0-.06,0-.17.1-.3l.16.33a1,1,0,0,1-.72.09c-.6-.13-.81-.64-.68-.7s.41.12.79.19a2.49,2.49,0,0,0,.5.06l.91.06-.75.27C248.86,137,248.74,137,248.7,136.91Z" style="fill:#263238"></path><path d="M235.28,133.27s-.41-.18-1.16-.47a28.79,28.79,0,0,0-3.28-.93,12.59,12.59,0,0,1-4.71-2,8.75,8.75,0,0,1-3.44-5.24,7.27,7.27,0,0,1,1.57-6,5.65,5.65,0,0,1,2.29-1.61,6.13,6.13,0,0,1,2.4-.36,5.39,5.39,0,0,1,3.23,1.25,3.42,3.42,0,0,1,.64.69c.12.18.17.28.16.29s-.3-.35-.93-.83a5.51,5.51,0,0,0-3.12-1,5.38,5.38,0,0,0-4.31,1.91,6.88,6.88,0,0,0-1.42,5.63,8.35,8.35,0,0,0,3.22,5,12.69,12.69,0,0,0,4.52,2.05,20.55,20.55,0,0,1,3.26,1.1A3.73,3.73,0,0,1,235.28,133.27Z" style="fill:#263238"></path><path d="M244.56,131.87a5.71,5.71,0,0,0,2.82-.22,4.87,4.87,0,0,0,2.34-1.87,4.82,4.82,0,0,0,.58-3.56,5.22,5.22,0,0,0-1.91-3.1,5.94,5.94,0,0,0-2.8-1.17,9.89,9.89,0,0,0-2.87.12,1.76,1.76,0,0,1,.74-.31,6.17,6.17,0,0,1,5.23,1,5.58,5.58,0,0,1,2.12,3.37,5.15,5.15,0,0,1-.69,3.93,5,5,0,0,1-2.62,2,4.32,4.32,0,0,1-2.19.16A1.56,1.56,0,0,1,244.56,131.87Z" style="fill:#263238"></path><path d="M261.25,163.76c0-.09.89-.3,2.26-.86a6,6,0,0,0,2.11-1.39,4.89,4.89,0,0,0,1.15-2.79c.14-1.11.1-2.21.21-3.21a5.91,5.91,0,0,1,.81-2.59,3.44,3.44,0,0,1,1.33-1.25c.4-.19.64-.2.65-.17a4.17,4.17,0,0,0-1.67,1.61,6,6,0,0,0-.64,2.44c-.09,1,0,2.07-.18,3.24a5.15,5.15,0,0,1-1.31,3.05,5.82,5.82,0,0,1-2.33,1.4A7.11,7.11,0,0,1,261.25,163.76Z" style="fill:#263238"></path><path d="M241.85,169a1.31,1.31,0,0,1,1.55.26,1.56,1.56,0,0,1,.28,1.58,1.9,1.9,0,0,1-1.2,1.1,1.35,1.35,0,0,1-1.43-.29,1.52,1.52,0,0,1-.22-1.6c.33-.53.57-1,1.19-1.12" style="fill:#eb996e"></path><path d="M243.49,171.55c-.12.08-.67-.52-1.24-1.34s-.93-1.56-.81-1.64.67.52,1.24,1.34S243.61,171.47,243.49,171.55Z" style="fill:#263238"></path></g></svg>