<svg xmlns="http://www.w3.org/2000/svg" viewBox="0 0 750 500"><g id="freepik--background-simple--inject-58"><path d="M616.56,190.53c-14.31-45.51-55.84-78.26-102.56-82-23.24-1.88-47.47.57-68,11.85-40.45,22.25-60.47,74.84-103.74,90.6C289.84,230,232.4,185.25,178,197.46a83.58,83.58,0,0,0-54.46,41.65C112.34,260,102,293.39,110.05,315.77c11.06,30.62,23.3,43.43,50.16,61.16C212.6,404,271.14,416.44,329.46,423.47s119,.11,172.14-25.32,98.27-70.21,119.57-126C632.12,243.41,624,214.08,616.56,190.53Z" style="fill:#ebebeb"></path></g><g id="freepik--Character--inject-58"><path d="M628.47,438.16,622,455.55s15.49,12.43,14.6,15.75l-34.15-11.36,9-27.5Z" style="fill:#407BFF"></path><g style="opacity:0.6000000000000001"><path d="M611.92,450.55a1.48,1.48,0,0,0-1.5,1.27,1.41,1.41,0,0,0,1.25,1.49,1.55,1.55,0,0,0,1.58-1.35c0-.72-.76-1.53-1.47-1.41" style="fill:#fff"></path></g><path d="M602.44,459.94l.89-2.74,32.49,11.92s1.3,1.17.77,2.18Z" style="fill:#fff;opacity:0.6000000000000001"></path><path d="M622.6,455.56c-.06.16-.92,0-1.92.22s-1.67.82-1.8.7.44-1,1.65-1.29S622.69,455.42,622.6,455.56Z" style="fill:#263238"></path><path d="M625.69,458.23c0,.17-.83.22-1.64.73s-1.21,1.21-1.37,1.15,0-1,1.05-1.66S625.74,458.07,625.69,458.23Z" style="fill:#263238"></path><path d="M626.3,463.19c-.17,0-.12-.92.61-1.69s1.63-.88,1.66-.71-.62.49-1.21,1.13S626.47,463.23,626.3,463.19Z" style="fill:#263238"></path><path d="M623.64,451.43c-.12.13-.81-.36-1.78-.61s-1.79-.19-1.83-.36.86-.54,2-.23S623.76,451.33,623.64,451.43Z" style="fill:#263238"></path><polygon points="627.18 441.6 626.03 444.7 609.3 438.96 610.21 436.13 627.18 441.6" style="opacity:0.30000000000000004"></polygon><path d="M624.88,447.9a3.43,3.43,0,0,1-1.71-.58,8,8,0,0,1-1.6-1.14,9.39,9.39,0,0,1-.81-.85,2.25,2.25,0,0,1-.39-.58.78.78,0,0,1,.22-.91,1,1,0,0,1,.86-.14,2.31,2.31,0,0,1,.61.31,6.35,6.35,0,0,1,1,.71,6.8,6.8,0,0,1,1.23,1.56,3,3,0,0,1,.54,1.73c-.09,0-.3-.62-.91-1.5a7.21,7.21,0,0,0-1.24-1.36,5.8,5.8,0,0,0-.88-.63c-.33-.22-.64-.32-.78-.19s-.07.07,0,.2a2,2,0,0,0,.28.42c.24.3.49.57.73.82A10,10,0,0,0,623.4,447,13.29,13.29,0,0,1,624.88,447.9Z" style="fill:#263238"></path><path d="M624.58,448.07a3,3,0,0,1,.1-1.81,5.85,5.85,0,0,1,1.64-2.68,1.48,1.48,0,0,1,1.38-.51.84.84,0,0,1,.55.72,2.13,2.13,0,0,1,0,.68,4.27,4.27,0,0,1-.38,1.16,4.18,4.18,0,0,1-1.32,1.52,2.34,2.34,0,0,1-1.72.57,15,15,0,0,0,1.46-.91,4.19,4.19,0,0,0,1.07-1.43,3.53,3.53,0,0,0,.3-1c.07-.38,0-.72-.12-.72a1,1,0,0,0-.79.36,6.07,6.07,0,0,0-1.63,2.38C624.71,447.39,624.68,448.07,624.58,448.07Z" style="fill:#263238"></path><path d="M461.4,419.5,474.8,412l9.67,6.43,5.46,5.35-19.74,11.4-1.29,15.61c7.56,2.92,8.28,6.95,8.28,6.95L461,455.81l-11.45-30Z" style="fill:#407BFF"></path><polygon points="449.54 425.77 460.99 455.81 477.19 457.7 475.64 455.05 462.56 452.79 452.07 424.44 449.54 425.77" style="fill:#fff;opacity:0.6000000000000001"></polygon><path d="M469.63,443.61c-.14.16-1-.48-2.27-.59s-2.24.3-2.35.13.89-1,2.42-.85S469.79,443.51,469.63,443.61Z" style="fill:#263238"></path><path d="M469.81,439.73c-.17.09-.78-1-2.05-1.35s-2.36.07-2.45-.11.18-.33.66-.53a3.07,3.07,0,0,1,2,0,3,3,0,0,1,1.61,1.22C469.87,439.36,469.9,439.69,469.81,439.73Z" style="fill:#263238"></path><path d="M470.49,434.78c-.18.07-.63-.93-1.71-1.45s-2.14-.27-2.2-.46.2-.29.66-.41a2.81,2.81,0,0,1,1.85.23A2.76,2.76,0,0,1,470.4,434C470.6,434.45,470.58,434.76,470.49,434.78Z" style="fill:#263238"></path><path d="M475.27,431.44c-.2.05-.54-.93-1.47-1.69s-1.93-1-1.92-1.19,1.26-.32,2.38.64S475.47,431.44,475.27,431.44Z" style="fill:#263238"></path><path d="M477.77,428.36a7.18,7.18,0,0,1-1.21-1.86l-1.15-2.1a5.25,5.25,0,0,1-.6-1.4,1.29,1.29,0,0,1,.22-1,1,1,0,0,1,1-.4,2.91,2.91,0,0,1,1.42,1,5.42,5.42,0,0,1,1.44,3.68,3,3,0,0,1-.63,2.17,17.81,17.81,0,0,0,.12-2.15,5.51,5.51,0,0,0-.66-2.15,4.87,4.87,0,0,0-.78-1.07,2.58,2.58,0,0,0-1-.74.31.31,0,0,0-.33.12.61.61,0,0,0-.09.45,5.52,5.52,0,0,0,.49,1.2l1,2.18A6.89,6.89,0,0,1,477.77,428.36Z" style="fill:#263238"></path><path d="M478.3,428.91c-.08,0,.08-.86,1.07-1.73a4.09,4.09,0,0,1,4.91-.31.76.76,0,0,1,.18.61.86.86,0,0,1-.26.49,2.3,2.3,0,0,1-.64.44,6.78,6.78,0,0,1-1.22.52,6.86,6.86,0,0,1-2.2.35,3.29,3.29,0,0,1-2-.42c0-.11.78,0,2-.08a8.22,8.22,0,0,0,2-.47,7.62,7.62,0,0,0,1.09-.51,1.82,1.82,0,0,0,.46-.32c.1-.13.07-.09.05-.14a1.28,1.28,0,0,0-.45-.23,4,4,0,0,0-.59-.16,3.8,3.8,0,0,0-1.16-.05,4,4,0,0,0-1.85.68C478.73,428.25,478.4,429,478.3,428.91Z" style="fill:#263238"></path><path d="M462.52,426.78a1.93,1.93,0,1,1-1.7-2.15A1.93,1.93,0,0,1,462.52,426.78Z" style="fill:#fff;opacity:0.6000000000000001"></path><path d="M630.81,444.22l-28.52-10.35L632,356.46l-54.41-23c-6.5-1.76-11-7.23-13.61-13.9a35.1,35.1,0,0,1,1.5-27.87l2.41-5s33.44,10,48.57,15.93c6.47,2.54,24.73,11.39,41.17,20.72,11.58,6.57,16,21.18,11.34,33.68Z" style="fill:#263238"></path><path d="M567.88,299.38c-.51,1.41-23.41,66.89-23.41,66.89l-76.24,42.3,20.14,23,72.28-32a38.92,38.92,0,0,0,20.47-21.39L606,314.49Z" style="fill:#263238"></path><path d="M612.14,348.05l-.66-.25-2-.76c-1.71-.66-4.19-1.62-7.23-2.86-6.07-2.49-14.47-6-23.35-10.63-2.22-1.19-4.35-2.4-6.34-3.69a21.56,21.56,0,0,1-5.2-4.47A26.22,26.22,0,0,1,562.31,315a32,32,0,0,1-.93-7.73,19.26,19.26,0,0,1,.08-2.12,3.54,3.54,0,0,1,.09-.73c.06,0,0,1,0,2.85a34.68,34.68,0,0,0,1.09,7.64,26.19,26.19,0,0,0,5.08,10.14,21.14,21.14,0,0,0,5.11,4.35c2,1.27,4.1,2.48,6.3,3.66,8.85,4.66,17.22,8.18,23.25,10.75l7.17,3A13.47,13.47,0,0,1,612.14,348.05Z" style="fill:#455a64"></path><path d="M649.61,346.59c0,.09-1.22.09-3.14.43a22.5,22.5,0,0,0-13,7.35c-1.28,1.48-1.91,2.53-2,2.48a2.88,2.88,0,0,1,.38-.78,13.63,13.63,0,0,1,1.33-1.93,19.58,19.58,0,0,1,2.4-2.53,21,21,0,0,1,7.4-4.19,19.52,19.52,0,0,1,3.4-.76,14.73,14.73,0,0,1,2.34-.15A2.41,2.41,0,0,1,649.61,346.59Z" style="fill:#455a64"></path><path d="M556.06,376a19.07,19.07,0,0,0-11.64-9,6.17,6.17,0,0,1,2.21.4,15.47,15.47,0,0,1,8.48,6.54A6.29,6.29,0,0,1,556.06,376Z" style="fill:#455a64"></path><path d="M587.46,295.7a3.06,3.06,0,0,1-.88,0c-.56,0-1.36-.08-2.36-.2a51.65,51.65,0,0,1-15-4.2c-.91-.41-1.64-.77-2.13-1a3.06,3.06,0,0,1-.74-.47,28.39,28.39,0,0,1,3,1.18,74,74,0,0,0,7.35,2.5,72.75,72.75,0,0,0,7.58,1.66A29.26,29.26,0,0,1,587.46,295.7Z" style="fill:#455a64"></path><path d="M634.83,216.11l22.59,34,26.76-18.61,8.57,10-27,27.51a14.22,14.22,0,0,1-21.19-.24l-14.08-22.4Z" style="fill:#ffbe9d"></path><path d="M693.75,242.74c.28-.27,9.3-9.71,9.3-9.71l-13.93-7.79c-1,.57-6.89,8.91-6.89,8.91l-.9,3.32,6.84,8.65Z" style="fill:#ffbe9d"></path><path d="M702.51,233.92s0,.12-.16.26c-.94,1.17-5.58,5.72-6.34,5.36s-2.07-2.33-1.58-3,6-5.55,6-5.55.93-.71,2.5.46C703.91,232.12,702.51,233.92,702.51,233.92Z" style="fill:#ffbe9d"></path><path d="M701.38,229.51s0,.12-.16.26c-.94,1.17-5.58,5.72-6.34,5.36s-2.07-2.33-1.58-3,6-5.55,6-5.55.92-.71,2.49.45C702.79,227.71,701.38,229.51,701.38,229.51Z" style="fill:#ffbe9d"></path><path d="M699.49,226s0,.12-.16.26c-.94,1.17-5.58,5.72-6.34,5.36s-2.07-2.33-1.58-3.05,6-5.55,6-5.55.92-.71,2.49.46C700.9,224.2,699.49,226,699.49,226Z" style="fill:#ffbe9d"></path><path d="M697.57,222.55s-.05.12-.16.26c-.94,1.17-5.58,5.72-6.34,5.36s-2.07-2.33-1.58-3,6-5.55,6-5.55.92-.71,2.5.46C699,220.75,697.57,222.55,697.57,222.55Z" style="fill:#ffbe9d"></path><path d="M695.75,235.12a13.18,13.18,0,0,0,2.44-2,12.2,12.2,0,0,0,2.13-2.3,13,13,0,0,0-2.44,2A12,12,0,0,0,695.75,235.12Z" style="fill:#eb996e"></path><path d="M693,232.44a25.43,25.43,0,0,0,3.42-2.94,25.86,25.86,0,0,0,3.15-3.24,25,25,0,0,0-3.43,2.94A25.31,25.31,0,0,0,693,232.44Z" style="fill:#eb996e"></path><g style="opacity:0.78"><path d="M690.47,229.47a24.57,24.57,0,0,0,3.42-2.94,25.86,25.86,0,0,0,3.15-3.24,25,25,0,0,0-3.43,2.94A25.31,25.31,0,0,0,690.47,229.47Z" style="fill:#eb996e"></path></g><path d="M685,236.24l.75-5.32a9.13,9.13,0,0,1,3.4-5.88l1.42-1.11,8.61,9.48s-4,2.46-5.9-.62l.35,5Z" style="fill:#ffbe9d"></path><path d="M692.48,237.77c-.06,0,.27-.54.48-1.55a5.83,5.83,0,0,0-.63-4.09l-.68-1.17,1.05.85,2.43,2-.06,0a3.47,3.47,0,0,0,3.73-.1l.22-.2,0,.4c-2.55-2.57-4.82-4.94-6.36-6.74-.77-.9-1.37-1.64-1.77-2.17a3.44,3.44,0,0,1-.57-.85,32.76,32.76,0,0,1,2.65,2.74c1.61,1.72,3.92,4,6.47,6.6l.2.2-.19.21a2.62,2.62,0,0,1-.3.28,3.56,3.56,0,0,1-2.25.72,4.93,4.93,0,0,1-2.1-.58h0l0,0-2.39-2,.38-.32a5.87,5.87,0,0,1,.48,4.41A3.11,3.11,0,0,1,692.48,237.77Z" style="fill:#eb996e"></path><path d="M697.1,234.13c.1.05-.33.55-.5,1.4a1.1,1.1,0,0,0,.49,1.17,1.62,1.62,0,0,0,1.62-.32c1.15-.86,2.26-1.61,3-2.19s1.15-1,1.22-.95-.25.57-.93,1.26a27.8,27.8,0,0,1-2.92,2.38,2.14,2.14,0,0,1-2.22.31,1.53,1.53,0,0,1-.65-1.75,2.85,2.85,0,0,1,.58-1C696.94,234.2,697.06,234.1,697.1,234.13Z" style="fill:#eb996e"></path><path d="M655,263.69a5.93,5.93,0,0,1-.78-2.05,13.25,13.25,0,0,1-.12-5.3,13,13,0,0,1,2-4.92,5.6,5.6,0,0,1,1.44-1.65,18.88,18.88,0,0,1-1.13,1.84,15.45,15.45,0,0,0-1.76,4.82,15.15,15.15,0,0,0,0,5.13A19.93,19.93,0,0,1,655,263.69Z" style="fill:#eb996e"></path><path d="M452.17,261.5l-.39,0-1.14,0-4.37.05-16.09.08-53.09.08-53.1-.08-16.09-.08-4.37-.05-1.14,0-.39,0,.39,0,1.14,0,4.37-.05,16.09-.08,53.1-.08,53.09.08,16.09.08,4.37.05,1.14,0Z" style="fill:#263238"></path><path d="M488.23,242.62c0,.14-24.22.26-54.09.26s-54.09-.12-54.09-.26,24.21-.26,54.09-.26S488.23,242.47,488.23,242.62Z" style="fill:#263238"></path><path d="M545.29,216.65a4.16,4.16,0,0,1,1.2-4.7,8.46,8.46,0,0,1,4.77-1.84c1.72-.2,3.47-.17,5.18-.48,4.21-.75,10.36-3.61,14.54-4.53,6.22-1.37,8.77,1.51,11.76,6.1a14.07,14.07,0,0,1-.33,15.45l-7,7.67-13.27,3.05a7.26,7.26,0,0,1-8.07-3.74Z" style="fill:#407BFF"></path><g style="opacity:0.30000000000000004"><path d="M545,215.17a17.68,17.68,0,0,1,5.71-1,7,7,0,0,1,5.52,2.36c1.25,1.61,1.44,3.78,1.54,5.82s.17,4.2,1.27,5.92c1.49,2.32,3.5,3.16,5.18,5.35.67.87,1.07,2.31.49,2.93s-3,1-3.71,1c-2.77.15-4.35-1-6.33-3-1.64-1.61-2.67-3.74-4-5.6a37.45,37.45,0,0,1-3.3-4.56c-1.45-2.83-1.34-5.94-2.4-8.94,0-.3-.05-.22.06-.28"></path></g><path d="M534.64,132.64s-7.73-3.92-12-4.33c-4.78-.45-11.68,2.44-14.55,6.3-3,4-2.23,10.53-.93,15.38,1,3.84,3.09,5.84,5.27,8.58a3.67,3.67,0,0,0,4.59,1C523.44,156.17,541.59,141,534.64,132.64Z" style="fill:#407BFF"></path><path d="M515.48,160a2.79,2.79,0,0,1-2.46-1.73c-2.35-5.76-.95-12.84,3.07-17.67,4.39-5.28,11.09-9.6,18-8.54,0,0,6.84,4.43-3.59,17.75-8.05,10.29-14.4,10.22-15,10.19Z" style="fill:#407BFF"></path><g style="opacity:0.5"><path d="M515.48,160a2.79,2.79,0,0,1-2.46-1.73c-2.35-5.76-.95-12.84,3.07-17.67,4.39-5.28,11.09-9.6,18-8.54,0,0,6.84,4.43-3.59,17.75-8.05,10.29-14.4,10.22-15,10.19Z"></path></g><path d="M534.34,144c4.12-4.06,8.36-10.56,9.82-16.16.57-2.16.59-4.71-.91-6.36-2-2.2-5.59-1.72-8.37-.64a29.77,29.77,0,0,0-17.25,18.33s11.17-9.75,16.84-6.17C538.45,135.46,534.34,144,534.34,144Z" style="fill:#263238"></path><path d="M511.13,157a7.85,7.85,0,0,1-1.11-6l-1.65-1.28s-.44,2.74.54,4.34A12.94,12.94,0,0,0,511.13,157Z" style="fill:#263238"></path><path d="M517.3,159.77a2.66,2.66,0,0,1-1,.26A3.85,3.85,0,0,1,515,160a3.11,3.11,0,0,1-1.52-.83,6.43,6.43,0,0,1-1.55-4.09,25.15,25.15,0,0,1,0-5.34,17.65,17.65,0,0,1,3.66-8.9,17.38,17.38,0,0,1,2-2.13,4.62,4.62,0,0,1,.86-.65c.08.08-1.14,1-2.58,3a18.18,18.18,0,0,0-3.44,8.73,26.37,26.37,0,0,0-.08,5.23,6.26,6.26,0,0,0,1.34,3.88,3.22,3.22,0,0,0,2.53.94C516.92,159.81,517.3,159.73,517.3,159.77Z" style="fill:#263238"></path><path d="M527.47,131.79a1,1,0,0,1,.37-.19,3.21,3.21,0,0,1,1.2-.19,4.63,4.63,0,0,1,3.77,2.18,8,8,0,0,1,.62,6.46,24.18,24.18,0,0,1-1.39,3.62,36.13,36.13,0,0,1-1.93,3.68,27.36,27.36,0,0,1-5.05,6.22,21.29,21.29,0,0,1-5.46,3.62,17.44,17.44,0,0,1-4.21,1.32c-.52.08-.92.14-1.19.15s-.42,0-.42,0a14.32,14.32,0,0,1,1.57-.35,19.43,19.43,0,0,0,4.09-1.46,21.6,21.6,0,0,0,5.29-3.63,27.71,27.71,0,0,0,4.93-6.14,37.29,37.29,0,0,0,1.92-3.62,25.29,25.29,0,0,0,1.38-3.54,7.66,7.66,0,0,0-.46-6.14,4.49,4.49,0,0,0-3.47-2.17A5.59,5.59,0,0,0,527.47,131.79Z" style="fill:#263238"></path><path d="M525.91,132.73c0,.09-1.52.33-3.8,1.3a19.94,19.94,0,0,0-11.81,14.28c-.53,2.42-.47,4-.57,4a3.75,3.75,0,0,1-.08-1.09,17.41,17.41,0,0,1,.29-3,19.22,19.22,0,0,1,12-14.54,17.22,17.22,0,0,1,2.86-.84A4.15,4.15,0,0,1,525.91,132.73Z" style="fill:#263238"></path><path d="M517.15,136.84a12.59,12.59,0,0,0-4.42-2.25,12.84,12.84,0,0,0-5,.07,3,3,0,0,1,1.4-.59,8.21,8.21,0,0,1,7,1.62C516.88,136.3,517.2,136.8,517.15,136.84Z" style="fill:#263238"></path><path d="M504,179.85a1.68,1.68,0,0,1,.31.19l.85.59c.38.25.86.54,1.43.89s1.24.71,2,1.06a27,27,0,0,0,5.95,2,26.26,26.26,0,0,0,8.27.43,27,27,0,0,0,4.73-1,25.58,25.58,0,0,0,4.8-2.07,26.55,26.55,0,0,0,8.57-7.59,23.86,23.86,0,0,0,4.59-11.72,13.07,13.07,0,0,0-1.07-6.51,9.64,9.64,0,0,0-4.8-4.64,7.21,7.21,0,0,0-3.33-.53,6.91,6.91,0,0,0-3.13,1.12,9.16,9.16,0,0,0-3.72,5.29,9.73,9.73,0,0,0,.53,6.26,14.07,14.07,0,0,0,3.58,5,22.87,22.87,0,0,0,10.28,4.94,70.83,70.83,0,0,0,10,1.57,26.22,26.22,0,0,0,8.27-.56A17.12,17.12,0,0,0,567.8,172a13.17,13.17,0,0,0,2.87-2.72c.56-.72.78-1.15.81-1.13a6.75,6.75,0,0,1-.73,1.19,12.78,12.78,0,0,1-2.83,2.83,17.24,17.24,0,0,1-5.74,2.68,26.38,26.38,0,0,1-8.36.63A68.45,68.45,0,0,1,543.76,174a23.25,23.25,0,0,1-10.5-5,14.63,14.63,0,0,1-3.72-5.15,10.24,10.24,0,0,1-.57-6.59,9.74,9.74,0,0,1,3.94-5.6,7.26,7.26,0,0,1,3.37-1.19,7.55,7.55,0,0,1,3.57.56,10.11,10.11,0,0,1,5.06,4.9,13.29,13.29,0,0,1,1.11,6.77,24.2,24.2,0,0,1-4.7,12,26.88,26.88,0,0,1-8.75,7.69,26.33,26.33,0,0,1-4.89,2.07,26.05,26.05,0,0,1-13.18.44,26.11,26.11,0,0,1-6-2.09c-.79-.36-1.45-.78-2-1.11s-1-.67-1.41-.94l-.83-.63A1.85,1.85,0,0,1,504,179.85Z" style="fill:#263238"></path><path d="M564.19,233.48c-9.38-7.06-3.76-9.08-6.74-15.36a6.27,6.27,0,0,0-8.76-3.28l-20.85,8.53a20.72,20.72,0,0,0-10.73,10l-18.65,37.76c-.31,0-2.21,7-2.21,7-.11.41-3.44,14.23-3.44,14.23l17.38-.29c.6-1,1.51-11.13,1.6-12.09l24.32-37.58Z" style="fill:#ffbe9d"></path><path d="M492.83,291.21a.94.94,0,0,1,0-.34c.25-1.61,2.12-8.44,3-8.51s3.22,1.06,3.15,2-2.62,8.52-2.62,8.52-.48,1.17-2.6.93C492.5,293.67,492.83,291.21,492.83,291.21Z" style="fill:#ffbe9d"></path><path d="M496.3,294.74a.83.83,0,0,1,0-.34c.24-1.61,2.12-8.44,3-8.51s3.22,1.06,3.15,2-2.62,8.52-2.62,8.52-.48,1.17-2.6.93C496,297.2,496.3,294.74,496.3,294.74Z" style="fill:#ffbe9d"></path><path d="M500,297s0-.14,0-.33c.24-1.62,2.12-8.44,3-8.52s3.23,1.06,3.15,2-2.62,8.52-2.62,8.52-.48,1.17-2.6.94C499.67,299.47,500,297,500,297Z" style="fill:#ffbe9d"></path><path d="M503.71,299.21s0-.14,0-.34c.24-1.61,2.12-8.44,3-8.51s3.23,1.05,3.15,2-2.62,8.51-2.62,8.51-.48,1.18-2.6.94C503.37,301.67,503.71,299.21,503.71,299.21Z" style="fill:#ffbe9d"></path><path d="M498.54,286.37a14.26,14.26,0,0,0-1.19,3.26,13.39,13.39,0,0,0-.75,3.32,26.57,26.57,0,0,0,1.94-6.58Z" style="fill:#eb996e"></path><path d="M502.59,287.4a52.64,52.64,0,0,0-2.8,9.41,27.61,27.61,0,0,0,1.61-4.64A28.9,28.9,0,0,0,502.59,287.4Z" style="fill:#eb996e"></path><g style="opacity:0.78"><path d="M506.6,288.8a55.39,55.39,0,0,0-2.8,9.42,27.81,27.81,0,0,0,1.62-4.65A26.88,26.88,0,0,0,506.6,288.8Z" style="fill:#eb996e"></path></g><path d="M511.8,279.88s2.58,13,1.54,13.63a19.72,19.72,0,0,1-4,1.13Z" style="fill:#ffbe9d"></path><path d="M530.4,232.55a11.4,11.4,0,0,1,3.78,4.57,11.64,11.64,0,0,1,1.52,5.74,22.67,22.67,0,0,0-5.3-10.31Z" style="fill:#eb996e"></path><path d="M566.61,269.84c-3.24-1-6.87,1.55-7.67,4.84s.75,6.83,3.22,9.15a21.61,21.61,0,0,0,9,4.57,90.67,90.67,0,0,1,9.73,2.9c4.79,2,8.92,5.42,13.86,7s11.47.42,13.45-4.37c1.92-4.64-1.43-9.76-5.16-13.11a44.88,44.88,0,0,0-39.55-10.2" style="fill:#407BFF"></path><g style="opacity:0.30000000000000004"><path d="M566.61,269.84c-3.24-1-6.87,1.55-7.67,4.84s.75,6.83,3.22,9.15a21.61,21.61,0,0,0,9,4.57,90.67,90.67,0,0,1,9.73,2.9c4.79,2,8.92,5.42,13.86,7s11.47.42,13.45-4.37c1.92-4.64-1.43-9.76-5.16-13.11a44.88,44.88,0,0,0-39.55-10.2"></path></g><path d="M577.1,263.58c-.89,1.48-9.46,23.62-9.46,23.62l15.18,6.54A140.68,140.68,0,0,0,597.75,299l20,3.28-4.11-25.93L577.4,262.1" style="fill:#ffbe9d"></path><path d="M628.12,206.89s1,.28,2.28,2.4,17.71,24.9,17.71,24.9L630.74,249l-4.93-7.24Z" style="fill:#407BFF"></path><path d="M628.12,206.89l-15.73-6.08-23.53.35L571,205.1s6.65,39.7,6.2,48.77l-.08,0a19.18,19.18,0,0,1-10.53,14.06,32.47,32.47,0,0,0-5.34,2.58c-1.61,1.16-2.86,3.13-2.41,5.06.61,2.61,3.84,3.65,6.5,3.44s5.32-1.2,8-.73c3.42.61,5.94,3.52,7.72,6.5s3.13,6.3,5.61,8.73c7.89,7.75,18.29,4.87,31.36,9.83l2.78-16.55h0l4.07-20.39C633.25,240.54,628.12,206.89,628.12,206.89Z" style="fill:#407BFF"></path><path d="M624.51,267.89a10.54,10.54,0,0,1,.37-1.58c.28-1,.65-2.48,1.07-4.29a129,129,0,0,0,2.42-14.36c.65-5.66.9-10.81,1-14.55.06-1.86.08-3.37.1-4.42a10.41,10.41,0,0,1,.07-1.62,9.29,9.29,0,0,1,.13,1.62c0,1.05.08,2.56.07,4.43a134.21,134.21,0,0,1-.85,14.6,107.45,107.45,0,0,1-2.58,14.39c-.47,1.81-.89,3.26-1.23,4.25A8.47,8.47,0,0,1,624.51,267.89Z" style="fill:#263238"></path><path d="M582.21,238.24c-.07.06-.75-.84-2-2.06a6.56,6.56,0,0,0-2.58-1.57,7.19,7.19,0,0,0-3.7.2c-2.66.64-5.07,1.2-6.83,1.58a16.41,16.41,0,0,1-2.87.5A16.49,16.49,0,0,1,567,236c1.74-.47,4.15-1.09,6.83-1.73a7.43,7.43,0,0,1,3.93-.15,6.67,6.67,0,0,1,2.7,1.76,13.72,13.72,0,0,1,1.37,1.65C582.1,238,582.24,238.22,582.21,238.24Z" style="fill:#263238"></path><path d="M618.49,235.69a1.56,1.56,0,0,1,0,.51c0,.33,0,.83-.09,1.46a32.3,32.3,0,0,1-.92,5.29,36.21,36.21,0,0,1-23,25.28,33.44,33.44,0,0,1-5.19,1.42c-.62.13-1.11.17-1.44.22a2,2,0,0,1-.51,0,17.35,17.35,0,0,1,1.91-.46,40.42,40.42,0,0,0,5.1-1.56,37.1,37.1,0,0,0,22.76-25,41.08,41.08,0,0,0,1.07-5.23C618.39,236.38,618.45,235.69,618.49,235.69Z" style="fill:#263238"></path><g style="opacity:0.2"><path d="M628.93,245.47a3.69,3.69,0,0,0,.29,1.55,1.28,1.28,0,0,0,1.27.75c.68-.11,1-.88,1.18-1.54a34.2,34.2,0,0,0-.06-18.45c-.11-.37-.3-.81-.69-.85s-.75.65-.78,1.18q-.57,8.59-1.12,17.19"></path></g><g style="opacity:0.2"><path d="M575.36,234.35l2.31,16.51a18.11,18.11,0,0,0,3.38-9.05,8.68,8.68,0,0,0-.94-5.29,4.39,4.39,0,0,0-4.6-2.2"></path></g><g style="opacity:0.2"><path d="M615.3,247.8c-3.73,4.93-8,10.2-14,11.51a42.44,42.44,0,0,1-5.53.54,12.42,12.42,0,0,0-5.33,1.4,5.47,5.47,0,0,0-2.86,4.47,3.56,3.56,0,0,0,3.41,3.61,30.34,30.34,0,0,0,15.86-8.87C613.46,253.12,615.3,247.8,615.3,247.8Z"></path></g><path d="M619.18,256.68a12.89,12.89,0,0,1-1.41,2.72,39.07,39.07,0,0,1-9.94,10.83,13.21,13.21,0,0,1-2.57,1.64,25.83,25.83,0,0,1,2.35-1.93,49.94,49.94,0,0,0,9.85-10.74A28.21,28.21,0,0,1,619.18,256.68Z" style="fill:#263238"></path><path d="M586.13,252.38a3,3,0,0,1-.24.86,16.07,16.07,0,0,1-1,2.23,22.7,22.7,0,0,1-11.64,10.6,15.22,15.22,0,0,1-2.31.75,2.7,2.7,0,0,1-.87.15c0-.09,1.19-.41,3-1.24a24.91,24.91,0,0,0,11.46-10.43C585.6,253.54,586,252.35,586.13,252.38Z" style="fill:#263238"></path><path d="M564.75,236.51a10.62,10.62,0,0,0,0-1.35,3,3,0,0,0-.58-1.42,7.73,7.73,0,0,0-1.51-1.42,13.08,13.08,0,0,1-2-1.71,10.3,10.3,0,0,1-1.66-2.52c-.94-2-.9-4.39-1.14-6.75a10.17,10.17,0,0,0-.8-3.32,5.78,5.78,0,0,0-2-2.36,7.6,7.6,0,0,0-5.1-1.39,23.89,23.89,0,0,0-3.66.65,7.48,7.48,0,0,1-1.35.26,6.46,6.46,0,0,1,1.3-.46,21,21,0,0,1,3.68-.82,7.92,7.92,0,0,1,5.41,1.37,6.22,6.22,0,0,1,2.21,2.53,10.78,10.78,0,0,1,.86,3.49c.24,2.4.19,4.74,1.05,6.6a10.32,10.32,0,0,0,1.55,2.43,14,14,0,0,0,1.89,1.71,6.93,6.93,0,0,1,1.52,1.55,3,3,0,0,1,.55,1.56,3.37,3.37,0,0,1-.11,1A1.3,1.3,0,0,1,564.75,236.51Z" style="fill:#263238"></path><path d="M583.22,154.38a4.78,4.78,0,0,1-1.79,4.63c-.8.6-1.77.93-2.55,1.56a2.17,2.17,0,0,0-.78,2.62,3.65,3.65,0,0,0,1.85,1.17c.69.29,1.41.87,1.32,1.61s-1.08,1.21-1.41,2a1.91,1.91,0,0,0,.89,2.22,8.78,8.78,0,0,0,2.43.86,3.3,3.3,0,0,1,2.11,1.38" style="fill:#263238"></path><path d="M620.3,157.63c.69-5.87-3.19-11.6-8.33-14.52s-11.3-3.47-17.2-3.21c-.85,0-1.86.2-2.2,1a1.59,1.59,0,0,0,.79,1.89,4.67,4.67,0,0,0,2.16.47,17.78,17.78,0,0,0-7.65.45,4.76,4.76,0,0,0-2.29,1.37,2.13,2.13,0,0,0-.24,2.5,1.4,1.4,0,0,0,2.26,0,10.84,10.84,0,0,0-6.12,3.8c-1.1,1.37-1.84,3.33-1,4.85.52.89,1.49,1.42,2.12,2.24,1.14,1.49.91,3.58.82,5.46a16.82,16.82,0,0,0,1.61,8.52,10,10,0,0,0,6.62,5.32" style="fill:#263238"></path><path d="M601.3,211.6a11.76,11.76,0,0,1-12.51-11.29l-1.42-37.23a16.89,16.89,0,0,1,16.23-18l.88,0a17,17,0,0,1,16.6,16c.48,8.23.91,17.33.76,21.73-.31,9.12-9.46,10.34-9.46,10.34l-.07,6.78a11.76,11.76,0,0,1-11,11.63Z" style="fill:#ffbe9d"></path><path d="M612.39,193.06a21.22,21.22,0,0,1-11.81-3.64s2.67,6.63,11.78,6Z" style="fill:#eb996e"></path><path d="M616.69,168a1.31,1.31,0,0,1-1.29,1.29,1.25,1.25,0,0,1-1.32-1.2,1.31,1.31,0,0,1,1.29-1.29A1.25,1.25,0,0,1,616.69,168Z" style="fill:#263238"></path><path d="M619,165.11c-.17.17-1.14-.59-2.54-.61s-2.44.65-2.59.47.1-.38.55-.69a3.6,3.6,0,0,1,4.1.1C619,164.72,619.1,165,619,165.11Z" style="fill:#263238"></path><path d="M602.2,168a1.3,1.3,0,0,1-1.29,1.28,1.24,1.24,0,0,1-1.31-1.2,1.3,1.3,0,0,1,1.28-1.29A1.25,1.25,0,0,1,602.2,168Z" style="fill:#263238"></path><path d="M605.38,165.11c-.16.17-1.14-.58-2.54-.61s-2.44.65-2.59.48.1-.38.56-.7a3.59,3.59,0,0,1,2.07-.59,3.41,3.41,0,0,1,2,.7C605.32,164.73,605.46,165,605.38,165.11Z" style="fill:#263238"></path><path d="M610.1,176a9.24,9.24,0,0,1,2.28-.36c.36,0,.7-.09.77-.34a1.78,1.78,0,0,0-.22-1.06l-1-2.75c-1.38-3.91-2.38-7.13-2.22-7.18s1.41,3.07,2.8,7l1,2.77a2,2,0,0,1,.15,1.4.85.85,0,0,1-.6.51,2.36,2.36,0,0,1-.6.08A9.3,9.3,0,0,1,610.1,176Z" style="fill:#263238"></path><path d="M605.4,159.4c-.15.38-1.54.17-3.19.33s-3,.58-3.2.24c-.09-.17.14-.52.69-.88a5.29,5.29,0,0,1,2.38-.78,5.41,5.41,0,0,1,2.49.35C605.16,158.92,605.46,159.22,605.4,159.4Z" style="fill:#263238"></path><path d="M618.59,161.34c-.25.31-1.21,0-2.37-.08s-2.15.17-2.37-.17c-.09-.16.07-.48.5-.77a3.32,3.32,0,0,1,1.94-.48,3.27,3.27,0,0,1,1.88.68C618.58,160.86,618.7,161.19,618.59,161.34Z" style="fill:#263238"></path><path d="M597.1,152.79c-1.16-1.23-3.07-4.14-4.59-4.9s-3.23.24-4.63,1.2a5.51,5.51,0,0,0-2.37,4.42c-.16,6.58,1.43,12.2,1.78,18.49a2.33,2.33,0,0,0,.3,1.2c.63.88,1.82.86,2.89.67,2.62-.48,3.28-2.73,3.72-5.32a28,28,0,0,0-.51-4.34,11.62,11.62,0,0,1,3.08-11.1Z" style="fill:#263238"></path><path d="M590.35,167.27c-.15-.07-6.22-2-6.16,4.25s6.31,4.89,6.32,4.71S590.35,167.27,590.35,167.27Z" style="fill:#ffbe9d"></path><path d="M588.58,173.88s-.1.08-.29.17a1.09,1.09,0,0,1-.81,0,2.68,2.68,0,0,1-1.27-2.4,3.56,3.56,0,0,1,.29-1.56,1.25,1.25,0,0,1,.81-.84.55.55,0,0,1,.64.29c.09.18,0,.3.08.31s.14-.11.08-.36a.64.64,0,0,0-.25-.39.8.8,0,0,0-.6-.15,1.49,1.49,0,0,0-1.12,1,3.51,3.51,0,0,0-.36,1.74,2.82,2.82,0,0,0,1.61,2.68,1.16,1.16,0,0,0,1-.18C588.57,174,588.61,173.9,588.58,173.88Z" style="fill:#eb996e"></path><path d="M606.05,183.05a1.07,1.07,0,0,0,0,.59c.18.4.72.45,1.15.42a4.36,4.36,0,0,0,1.13-.17c.66-.21,1.22-.67,1.89-.83a2.25,2.25,0,0,1,1.55.2c.55.3,1.07.84,1.67.69s.83-1,.68-1.66C613.13,178.06,606.72,179.26,606.05,183.05Z" style="fill:#eb996e"></path><path d="M595.36,154.79c2.13-2.83,5.29-2.86,7.57-2.39s4.43,1.49,6.73,1.84,5-.16,6.26-2.1a6.31,6.31,0,0,0,.53-5,12.55,12.55,0,0,0-5.79-7.75c-.75-.43-1.77-.76-2.41-.17s-.19,2,.44,2.89c0,0-10.63-.3-15.72,3.65S595.36,154.79,595.36,154.79Z" style="fill:#263238"></path><path d="M594.31,139.94c.05,0,.25.37.76.95a9.24,9.24,0,0,0,2.65,1.9,14.74,14.74,0,0,0,4.66,1.37,11.89,11.89,0,0,0,2.86,0c1-.11,2-.3,3.13-.36a7,7,0,0,1,3.19.46A6.42,6.42,0,0,1,614,146a5.58,5.58,0,0,1,1.21,2.45,5.08,5.08,0,0,1-.11,2.38,5,5,0,0,1-1.92,2.77,3.42,3.42,0,0,1-.81.43c-.2.07-.31.1-.31.08s.4-.19,1-.67a5.06,5.06,0,0,0,1.68-2.71,4.6,4.6,0,0,0,0-2.19,5.13,5.13,0,0,0-1.15-2.23,5.94,5.94,0,0,0-2.26-1.61,6.65,6.65,0,0,0-3-.41c-1,.06-2.09.24-3.11.34a11.33,11.33,0,0,1-3,0,14.32,14.32,0,0,1-4.77-1.51,8.33,8.33,0,0,1-2.63-2.1,4.52,4.52,0,0,1-.49-.78Q594.28,140,594.31,139.94Z" style="fill:#455a64"></path><path d="M588.63,143.74s.28.36.84,1a8.8,8.8,0,0,0,2.81,1.93,12.36,12.36,0,0,0,5,1,41.42,41.42,0,0,0,6.27-.61,23.64,23.64,0,0,1,6.39-.29,4.26,4.26,0,0,1,2.56,1.29,3.94,3.94,0,0,1,.92,2.32,4.9,4.9,0,0,1-1.11,3.34,5.23,5.23,0,0,1-.66.7c-.17.15-.26.21-.27.2s.3-.35.76-1a4.87,4.87,0,0,0,.92-3.19,3.68,3.68,0,0,0-.89-2.06,3.8,3.8,0,0,0-2.31-1.11,24.58,24.58,0,0,0-6.24.34,40.22,40.22,0,0,1-6.35.57,12.29,12.29,0,0,1-5.11-1.1,8.08,8.08,0,0,1-2.81-2.13,4.83,4.83,0,0,1-.55-.79A1.43,1.43,0,0,1,588.63,143.74Z" style="fill:#455a64"></path></g><g id="freepik--Plant--inject-58"><path d="M690.35,431.67c-1.46,2.09-4.3,1.4-5.61.13a10.65,10.65,0,0,1-2.38-4.88c-1.16-4-2.32-8.24-1.46-12.33a6.8,6.8,0,0,1,1.57-3.35,3.57,3.57,0,0,1,3.39-1.13c1.43.38,2.32,1.78,3,3.11a29.45,29.45,0,0,1,2.91,12.61,10.11,10.11,0,0,1-1.38,5.84" style="fill:#407BFF"></path><g style="opacity:0.2"><path d="M690.35,431.67c-1.46,2.09-4.3,1.4-5.61.13a10.65,10.65,0,0,1-2.38-4.88c-1.16-4-2.32-8.24-1.46-12.33a6.8,6.8,0,0,1,1.57-3.35,3.57,3.57,0,0,1,3.39-1.13c1.43.38,2.32,1.78,3,3.11a29.45,29.45,0,0,1,2.91,12.61,10.11,10.11,0,0,1-1.38,5.84"></path></g><path d="M684.88,442.24a12.59,12.59,0,0,0-7.85-1,6.57,6.57,0,0,0-3.88,1.73c-1,1.07-1.15,2.95,0,3.87a3.71,3.71,0,0,0,2.45.62c2.07,0,4.37-.39,6,.86.95.72,1.58,1.9,2.71,2.25a2.67,2.67,0,0,0,2.94-1.31,4.52,4.52,0,0,0,.33-3.37A5.12,5.12,0,0,0,684.88,442.24Z" style="fill:#407BFF"></path><path d="M694.36,434.67a7.61,7.61,0,0,1-1.18-7,13.53,13.53,0,0,1,4.14-6,22.26,22.26,0,0,1,7.4-4.37,8,8,0,0,1,3.33-.56,3.5,3.5,0,0,1,2.8,1.69c.78,1.49,0,3.29-.78,4.76a56.59,56.59,0,0,1-4.86,7.41,13.19,13.19,0,0,1-5.35,4.58c-2.23.85-4.53.75-5.71-.79" style="fill:#407BFF"></path><path d="M690.45,463.13a4.34,4.34,0,0,1-.13-.95c-.07-.69-.15-1.55-.25-2.58a35.27,35.27,0,0,0-.59-3.79,29.41,29.41,0,0,0-1.37-4.48,16.53,16.53,0,0,0-2.29-4.05,8.64,8.64,0,0,0-2.89-2.41,8.12,8.12,0,0,0-2.44-.75,4.8,4.8,0,0,1-.94-.14,4.18,4.18,0,0,1,1,0,7.19,7.19,0,0,1,2.54.66,8.43,8.43,0,0,1,3.05,2.42,16.18,16.18,0,0,1,2.37,4.13,28.3,28.3,0,0,1,1.37,4.55,32.5,32.5,0,0,1,.5,3.84c.08,1.1.11,2,.13,2.61A4.4,4.4,0,0,1,690.45,463.13Z" style="fill:#263238"></path><path d="M690.27,461.14a2.12,2.12,0,0,1,0-.44v-1.26c0-1.09,0-2.67-.06-4.62-.09-3.89-.43-9.28-1.08-15.2s-1.52-11.24-2.31-15.06c-.18-1-.37-1.82-.55-2.57s-.31-1.41-.45-1.94-.22-.9-.29-1.22a1.76,1.76,0,0,1-.08-.43,1.4,1.4,0,0,1,.15.41c.1.31.22.71.37,1.2s.33,1.17.52,1.93.4,1.61.6,2.56a139.35,139.35,0,0,1,2.43,15.08c.65,5.93.94,11.33,1,15.24,0,1.95,0,3.54-.07,4.63,0,.51-.06.93-.08,1.26A2.14,2.14,0,0,1,690.27,461.14Z" style="fill:#263238"></path><path d="M690.25,450.73a7.35,7.35,0,0,1,0-1.31c0-.85.17-2.07.41-3.56a47.45,47.45,0,0,1,1.15-5.19,46.33,46.33,0,0,1,2.17-6.13,32.61,32.61,0,0,1,6.37-9.92,16.69,16.69,0,0,1,1.5-1.39c.23-.19.43-.39.64-.54l.58-.4a9.5,9.5,0,0,1,1.1-.71,43.75,43.75,0,0,0-3.62,3.23,34.43,34.43,0,0,0-6.21,9.88,48.93,48.93,0,0,0-2.18,6.08,51.48,51.48,0,0,0-1.23,5.13c-.27,1.48-.43,2.69-.52,3.53A10.21,10.21,0,0,1,690.25,450.73Z" style="fill:#263238"></path></g><g id="freepik--Tiger--inject-58"><path d="M236.52,454.86c-16.11.82-34.55.73-45.34-11.27-3.81-4.24-6.18-9.53-9.17-14.38s-7-9.51-12.42-11.19-12.45.87-13.88,6.39c-1.94-9.93-8.53-19-17.66-23.34s-20.63-3.66-28.84,2.25-12.52,17-9.92,26.76c-6.37-9.69-22.37-8.94-30.14-.33s-8.21,21.94-4.21,32.82H236.82Z" style="fill:#e0e0e0"></path><path d="M250.19,392.33c.74.75,6.48,8.23,2.74,19l16.41,33.91,45.81.68s-4.24-23.76-25.58-17.28c0,0-11.43-12.57-10.94-19.3s8.24-53.91,3.75-65.89S244.2,308,244.2,308l-42.69,5.38s-5,26.06,1,36.29,18,18,30.94,28.58S250.19,392.33,250.19,392.33Z" style="fill:#407BFF"></path><path d="M250.19,392.33c.74.75,6.48,8.23,2.74,19l16.41,33.91,45.81.68s-4.24-23.76-25.58-17.28c0,0-11.43-12.57-10.94-19.3s8.24-53.91,3.75-65.89S244.2,308,244.2,308l-42.69,5.38s-5,26.06,1,36.29,18,18,30.94,28.58S250.19,392.33,250.19,392.33Z" style="opacity:0.30000000000000004"></path><path d="M174.26,324.46c-14,5.86-27.93,10.41-41.9,16.27-9.31,3.91-18.76,7.86-28.77,9.22s-20.83-.13-28.87-6.25c-5-3.81-8.62-9.12-12.45-14.12s-8.16-9.93-13.93-12.46-13.31-2-17.41,2.78c-3.24,3.77-3.65,9.39-2.07,14.1s4.86,8.67,8.43,12.13c17,16.57,41.63,24.35,65.31,22.67s46.29-12.34,64.19-27.94" style="fill:#407BFF"></path><g style="opacity:0.30000000000000004"><path d="M125.93,343.4a11,11,0,0,1-.15,9,42.24,42.24,0,0,1-3.2,4.58,8,8,0,0,0-1.72,5.19c.09.91.6,1.92,1.5,2a2.49,2.49,0,0,0,1.91-1c5.69-5.83,8.37-13.87,6.24-21.74l-4.68,1.92"></path></g><g style="opacity:0.30000000000000004"><path d="M141.89,336.85c.79,4.1-.49,8.29-1.93,12.21-.68,1.84-1.33,4.08-.09,5.59,1.08,1.32,3.09,1.37,4.76,1,5.32-1.17,9.63-5.34,12.06-10.22s3.19-9.94,3.42-15.38"></path></g><g style="opacity:0.30000000000000004"><path d="M111,348.48s-3.08,7.35-5.41,10.57a9.76,9.76,0,0,1-4.13,3.68c-1.74.68-4,.24-4.93-1.4a4.32,4.32,0,0,1,.42-4.24,26.64,26.64,0,0,1,2.9-3.39c1-1.13,1.81-2,1.81-3.52C101.64,350.18,109.55,349.13,111,348.48Z"></path></g><g style="opacity:0.30000000000000004"><path d="M114.3,367.23c3.34-.68,3.94-5.83,5.08-11.16.2-.91.24-2.08-.57-2.54a1.59,1.59,0,0,0-1.79.34,5.06,5.06,0,0,0-1,1.64,47.78,47.78,0,0,1-9.92,13S112.55,367.59,114.3,367.23Z"></path></g><g style="opacity:0.30000000000000004"><path d="M81.55,347.59c-3,2.61-5.72,3.45-9.38,5a23.78,23.78,0,0,1-11.66,2A39.69,39.69,0,0,1,51,352.06l-5.28-1.92c-.74-.27-1.6-.67-1.7-1.45s.79-1.52,1.62-1.83c3.9-1.41,8.19-.07,12.32.4a28.52,28.52,0,0,0,17-3.37A30.72,30.72,0,0,0,81.55,347.59Z"></path></g><g style="opacity:0.30000000000000004"><path d="M30.07,321.4c-1.23,3.74.63,8,3.62,10.52s6.91,3.72,10.76,4.51c4.2.87,8.74,1.33,12.64-.45a5.51,5.51,0,0,0,3.26-7.9c-1.68-4.14-5.45-7.07-9.42-9.12-3.78-1.95-8-3.3-12.27-2.73s-8.32,3.41-9.39,7.53"></path></g><path d="M167.22,330.84s39.64-39.64,78.56-38.19,58.37,25.94,70.63,24.5,58.37-15.14,67-13.69V350.3c-2.17,3.29-36.23,48.35-50.38,51s-39.29,6.29-46.63,0-37.2-30.91-39.29-33.53-62.35,2.09-62.35,2.09Z" style="fill:#407BFF"></path><path d="M378.87,303.54s2.41-6.91,5.9-8l2.74,8s22.65,12.7,23.26,16.5,0,4.87,0,4.87,11.55,8.51,12.92,11.85,1,12.73-5,14.45c-4.18,1.2.72,9.19-13.82,4.33-6-2-8-4.49-8-4.49s-6.44,4.89-18.6,1.15-17-27.9-17-27.9Z" style="fill:#407BFF"></path><g style="opacity:0.30000000000000004"><path d="M397,316.8A14.3,14.3,0,0,0,378.54,323c-1.25,2.29-1.86,4.89-3.19,7.13-1.84,3.1-5,5.5-5.76,9-.62,3,.87,6.21,3.17,8.28a19.28,19.28,0,0,0,8.28,4c3.29.86,6.86,1.32,10,.08,1.6-.62,3.08-1.68,4.79-1.77,2.44-.14,5-1,7.17.11,3.2,1.58,5.53,2.07,8.76.55s6.16-2.94,7.62-5.87a5.55,5.55,0,0,0,0-4,4.68,4.68,0,0,0-2.54-3c-1.09-.46-2.5-.49-3.17-1.47s-.3-1.93-.49-2.9a5.51,5.51,0,0,0-2.88-3.34,13.86,13.86,0,0,1-3.73-2.55c-1.27-1.49-1.56-3.55-2.45-5.29-1.49-2.91-5.93-4.9-7.18-5.16" style="fill:#fff"></path></g><path d="M331.44,441.93a12.83,12.83,0,0,1-6.53-16.41c2.5-5.63,8.71-8.57,12.49-13.43s3.24-9.47,2.24-15.41-2.36-13.12-6.09-17.84c-1.72-2.17-3.73-4.67-3.14-7.38a8.64,8.64,0,0,1,2.35-3.73q9.24-10.14,19.44-19.34c7.84,10.16,10.9,23.21,12.34,36,.94,8.35,1.27,16.84-.19,25.1s-4.83,16.35-10.55,22.49-14,10.16-22.36,9.81" style="fill:#407BFF"></path><path d="M215.89,409.81c.75.75,6.49,8.23,2.74,19l16.42,33.9,45.8.68s-4.23-23.76-25.58-17.28c0,0-11.43-12.56-10.93-19.3s8.23-53.9,3.74-65.88-38.18-35.44-38.18-35.44l-42.68,5.38s-5,26.06,1,36.3,18,18,30.95,28.57S215.89,409.81,215.89,409.81Z" style="fill:#407BFF"></path><path d="M365.25,320.7a12.06,12.06,0,0,1-6.11-7.61,24.25,24.25,0,0,1-.49-10,19.85,19.85,0,0,1,12.33,5.7" style="fill:#407BFF"></path><path d="M371,308.82c-.06.07-1.09-1-3.17-2.36a20.3,20.3,0,0,0-9.18-3.09l.27-.22c-.12,1-.21,2-.25,3.09a21.28,21.28,0,0,0,.63,6.47,13.72,13.72,0,0,0,2.3,4.76,13.14,13.14,0,0,0,3.67,3.23s-.12,0-.33-.11a8.23,8.23,0,0,1-.89-.45,10.67,10.67,0,0,1-2.74-2.44,13.6,13.6,0,0,1-2.47-4.86,20.74,20.74,0,0,1-.69-6.62c0-1.08.14-2.13.26-3.13l0-.25.25,0a19.62,19.62,0,0,1,9.32,3.32,17.44,17.44,0,0,1,2.28,1.85A4,4,0,0,1,371,308.82Z" style="fill:#263238"></path><g style="opacity:0.30000000000000004"><path d="M226.27,295a118.18,118.18,0,0,0-14,4.95c-8,10.39-9.29,23-5.39,35.49A48,48,0,0,1,226.27,295Z"></path></g><g style="opacity:0.30000000000000004"><path d="M235.61,293.15A29.74,29.74,0,0,0,220,308.59a30.41,30.41,0,0,0-.86,22.2A49.37,49.37,0,0,1,250.6,293,70.66,70.66,0,0,0,235.61,293.15Z"></path></g><g style="opacity:0.30000000000000004"><path d="M257.11,293.76c-6.88,6.37-14.44,13.37-21.31,19.75-2.94,2.72-6.08,5.87-6.24,9.86,11.64-9.4,23.27-18.71,34.9-28.12C261.77,294.62,259.24,294.07,257.11,293.76Z"></path></g><g style="opacity:0.30000000000000004"><path d="M277.43,299.45c-7.23.39-12.43,3.11-17.87,7.88A32.91,32.91,0,0,0,249,325.82a3.63,3.63,0,0,0,0,2c.61,1.48,2.86,1.53,4.09.52s1.74-2.65,2.3-4.15c4.54-12.13,17.52-21,30.46-21Q281.69,301.15,277.43,299.45Z"></path></g><g style="opacity:0.30000000000000004"><path d="M244.46,355.37a38.16,38.16,0,0,1,19.33-26.07c-3.75,5.12-7.52,10.28-10.35,16s-4.68,12-4.34,18.32"></path></g><g style="opacity:0.30000000000000004"><path d="M290.68,305.76A27.08,27.08,0,0,0,278,317.11c-.19.36-.37.84-.08,1.14s.81.12,1.19-.09l17-9.37Z"></path></g><g style="opacity:0.30000000000000004"><path d="M300.7,311.42a107.51,107.51,0,0,0-35.89,26.07c-3.65,4-7.2,9-6.4,14.32a3,3,0,0,0,1.52,2.5,2.41,2.41,0,0,0,2.54-.83,8.43,8.43,0,0,0,1.32-2.5c3.65-8.72,11.83-14.55,19.69-19.79s16.17-9.56,20.32-18Z"></path></g><g style="opacity:0.30000000000000004"><path d="M308.75,315.58c-8.61,12.25-24.32,17.8-32.33,30.45,13.9-6.5,28.92-17.92,39.68-28.85a20.08,20.08,0,0,1-3.49-.27A39.77,39.77,0,0,1,308.75,315.58Z"></path></g><g style="opacity:0.30000000000000004"><path d="M329,322.34h0c-.75,4.31-4.61,7.34-8.44,9.44s-8.09,3.82-10.86,7.2c-4.49,5.5-3.67,13.61-1.38,20.33.31.92.74,1.95,1.88,2.06a2,2,0,0,0,1.86-1c.85-1.35.5-2.9.3-4.37a20.6,20.6,0,0,1,8.93-19.57c2.69-1.76,5.82-2.89,8.14-5.11A8.16,8.16,0,0,0,332,326,3.61,3.61,0,0,0,329,322.34Z"></path></g><g style="opacity:0.30000000000000004"><path d="M339.74,317.3q-1.29,4.9-2.57,9.82c-.25,1-.37,2.25.51,2.73s1.75-.22,2.32-.92c2.27-2.79,1.95-8.81-.26-11.63"></path></g><g style="opacity:0.30000000000000004"><path d="M350.94,309.3l-4.73,1.15a20.84,20.84,0,0,1,5.82,12.4c.05.72.14,1.59.78,1.92.89.46,1.83-.53,2.23-1.44C357.12,318.69,355.11,312.22,350.94,309.3Z"></path></g><g style="opacity:0.30000000000000004"><path d="M193.31,391a14.54,14.54,0,0,1,1.19-5.92,10,10,0,0,1,5.06-5.85c2.52-1.1,5.41-.76,8.14-.43a37.79,37.79,0,0,0,9.38.26,14.14,14.14,0,0,0,8.39-3.87c-.6,2.91-1.38,6.12-3.85,7.77a9,9,0,0,1-6.4,1c-2.18-.34-4.31-1-6.51-1.18a13.28,13.28,0,0,0-13.64,9.65"></path></g><g style="opacity:0.30000000000000004"><path d="M248.07,398.58c-.67-4.06-4.09-7.26-7.94-8.72s-8.09-1.45-12.19-1.2-8.25.76-12.33.22c2.54,3.11,6.47,4.75,10.36,5.73s7.93,1.44,11.72,2.78,8.11,6,9.71,9.68"></path></g><g style="opacity:0.30000000000000004"><path d="M218.48,414.26a16.16,16.16,0,0,1,12.35-4.19,15.09,15.09,0,0,1,10.64,6.73c-2.05-.58-4.24.32-5.95,1.59s-3.14,2.89-4.89,4.1a12.67,12.67,0,0,1-10.91,1.72,19.72,19.72,0,0,0-1.24-9.95Z"></path></g><g style="opacity:0.30000000000000004"><path d="M222,435.81a40.91,40.91,0,0,1,13.59-5.15,6,6,0,0,1,3.5.1,6.49,6.49,0,0,1,2.54,2.55l6.42,9.48c-3.81,0-7.48-1.35-11.16-2.33s-8.76-1.76-12.32.61"></path></g><g style="opacity:0.30000000000000004"><path d="M174.26,324.46c4,4.84,5.48,11.42,6,17.68s.31,12.62,2,18.67c3.44-13.05,1.91-28.07-2.41-40.85"></path></g><g style="opacity:0.30000000000000004"><path d="M183,317.46c4.66,2.92,6.47,9.09,6.45,14.59s-1.27,11-.64,16.45a24.12,24.12,0,0,0,30,20.6c4.53-1.17,9.23-3.67,13.63-2.07,4.07,1.49,6.14,5.9,7.81,9.9a16.52,16.52,0,0,0-11.35-18.29c-8-2.27-17.2,1.87-24.75-1.69-5.2-2.45-8.26-8.1-9.33-13.75s-.49-11.47-.37-17.22.76-10.09-2-15.12"></path></g><path d="M422.51,348.21a1.43,1.43,0,0,1-.44-.33,4.9,4.9,0,0,1-.92-1.25,6.85,6.85,0,0,1-.3-5.37l.44.17a19.65,19.65,0,0,1-2.63,4.81,11.61,11.61,0,0,1-3.85,3.31,9.13,9.13,0,0,1-4,1,7,7,0,0,1-2.75-.5,3.92,3.92,0,0,1-.67-.35c-.15-.09-.22-.15-.21-.16a8.6,8.6,0,0,0,7.44-.43,11.39,11.39,0,0,0,3.65-3.2,20.4,20.4,0,0,0,2.62-4.67l.44.17a6.73,6.73,0,0,0,.11,5.08A10.42,10.42,0,0,0,422.51,348.21Z" style="fill:#263238"></path><path d="M395,323.11a2.32,2.32,0,0,0-2.89,1.38,2.46,2.46,0,0,0,1.62,3,2.32,2.32,0,0,0,2.81-1.8c.17-1.25-.9-2.63-1.74-2.6" style="fill:#263238"></path><path d="M382.39,320.29a15.11,15.11,0,0,0,17.15,19c-2.73,3.36-8.82.76-12.13,3.56-1.67,1.42-2.41,4.08-4.55,4.57s-4.11-1.85-4.75-4.07c-1.2-4.17-.37-8.62.47-12.87.64-3.28,1.24-7.18,3.81-10.15" style="fill:#407BFF"></path><path d="M388.52,315.89a14.31,14.31,0,0,1,12.24,6.29c.93,1.41,1.6,3,2.54,4.37a7,7,0,0,0,3.85,3.09c-1.62.17-3.37.33-4.79-.47-1.84-1-2.53-3.27-3.51-5.15a14.44,14.44,0,0,0-8.88-7.19Z" style="fill:#407BFF"></path><path d="M411.79,345.12c-.13-.05-.07-.51.13-1s.48-.89.62-.83.07.51-.13,1S411.93,345.17,411.79,345.12Z" style="fill:#263238"></path><path d="M408.83,342.34c-.12-.08,0-.47.24-.88s.57-.68.69-.6,0,.47-.24.88S409,342.42,408.83,342.34Z" style="fill:#263238"></path><path d="M416.55,342.54c-.14,0-.34-.21-.44-.57s-.07-.68.06-.72.34.22.44.57S416.69,342.5,416.55,342.54Z" style="fill:#263238"></path><path d="M396.19,320.9a6.6,6.6,0,0,0-6.37-2.64.91.91,0,0,0-.61,1.4,2.49,2.49,0,0,0,.46.52,4.93,4.93,0,0,0,1.82.86l3.87,1.25a1.1,1.1,0,0,0,.87,0C396.69,322,396.49,321.34,396.19,320.9Z" style="fill:#263238"></path><path d="M364.09,307.48a2.4,2.4,0,0,1,1.27.6,5.29,5.29,0,0,1,1.76,6.22c-.34.82-.74,1.21-.78,1.18a10.22,10.22,0,0,1,.43-1.3,5.8,5.8,0,0,0,0-3.14,5.9,5.9,0,0,0-1.66-2.68C364.52,307.8,364.05,307.56,364.09,307.48Z" style="fill:#263238"></path><g style="opacity:0.2"><path d="M366.1,308.94a12.27,12.27,0,0,0-3.46-1.4,1.51,1.51,0,0,0-1.35.13c-.46.39-.34,1.13-.15,1.71a25.44,25.44,0,0,0,1.73,4.1c.4.76,1,1.58,1.83,1.64s1.63-.84,1.91-1.71a5,5,0,0,0-1-4.75"></path></g><g style="opacity:0.30000000000000004"><path d="M251.55,371.83c8.85-2.61,20.67-.26,28.63,4.41S297,386,306,384.17c13.94-2.76,20.91-20.17,34.66-23.76,4.76-1.24,9.82-.65,14.68-1.44,3.48-.57,6.81-1.85,10.3-2.39s7.34-.23,10.06,2l1.16.38s-12.78,17.28-23.3,27-11.89,14.54-31.89,17.18-30.54,1.83-34-1.18S251.55,371.83,251.55,371.83Z" style="fill:#fff"></path></g><path d="M292.05,352.52s-21.87,33.09-23.8,35c-1.48,1.48,2.65,8.33.83,14.59S258.63,413.35,255,415.7s-10.66,9.9-4.41,18.52c0,0,16.42,4.43,21.9,0S288.4,418.31,291,407.34s19.05-36.81,19.05-36.81S306.93,349.39,292.05,352.52Z" style="fill:#407BFF"></path><path d="M266.64,420.78a2.82,2.82,0,0,1-.23.88,12.38,12.38,0,0,1-1.08,2.23,14.35,14.35,0,0,1-14,6.81,11.71,11.71,0,0,1-2.42-.52,2.5,2.5,0,0,1-.84-.36c0-.09,1.25.36,3.29.52A14.86,14.86,0,0,0,265,423.69C266.16,422,266.55,420.75,266.64,420.78Z" style="fill:#263238"></path><path d="M273.89,428a5.26,5.26,0,0,1-.66,2.06,11,11,0,0,1-8.11,6.08,4.92,4.92,0,0,1-2.15.05c0-.08.81-.11,2.08-.41a12.47,12.47,0,0,0,4.55-2.11,12.61,12.61,0,0,0,3.31-3.78C273.55,428.73,273.81,428,273.89,428Z" style="fill:#263238"></path><path d="M285.24,407.07c-.16,0-.16-2.44-.93-5.31s-2-5-1.83-5.08a12.23,12.23,0,0,1,2.33,4.94A12.06,12.06,0,0,1,285.24,407.07Z" style="fill:#263238"></path><path d="M286.85,403.75a11.85,11.85,0,0,1-1.54-10.85,18.54,18.54,0,0,0,1.54,10.85Z" style="fill:#263238"></path><path d="M287,395.6a9.54,9.54,0,0,1,.11,2.46,9.82,9.82,0,0,1,0,2.47,4.52,4.52,0,0,1-.53-2.45A4.57,4.57,0,0,1,287,395.6Z" style="fill:#263238"></path><path d="M279.55,351.18a1.37,1.37,0,0,1,.16.38c.07.25.21.62.33,1.11a28.88,28.88,0,0,1,.8,4.18,32.93,32.93,0,0,1-8.3,26,29.67,29.67,0,0,1-3.07,2.95c-.38.33-.71.55-.92.71a1.24,1.24,0,0,1-.34.22,9.34,9.34,0,0,1,1.12-1.08,35.9,35.9,0,0,0,2.93-3,34.1,34.1,0,0,0,8.21-25.76,36.82,36.82,0,0,0-.63-4.18A10.7,10.7,0,0,1,279.55,351.18Z" style="fill:#263238"></path><path d="M269.49,463.51a10.64,10.64,0,0,0-.11-4.52,10.44,10.44,0,0,0-2.33-4.27,12,12,0,0,0-5-3.21,16,16,0,0,0-6-.8,22.74,22.74,0,0,0-4.88.81c-2.73.77-4.34,1.53-4.37,1.45a5,5,0,0,1,1.09-.59,25.88,25.88,0,0,1,3.17-1.22,21.69,21.69,0,0,1,5-.93,15.83,15.83,0,0,1,6.15.79,12.16,12.16,0,0,1,5.19,3.38,10.34,10.34,0,0,1,2.32,4.5,8.58,8.58,0,0,1,.12,3.41,4.75,4.75,0,0,1-.23.9C269.55,463.41,269.51,463.51,269.49,463.51Z" style="fill:#263238"></path><g style="opacity:0.30000000000000004"><path d="M325.65,435.6a3.08,3.08,0,0,0,3.06.5,8.59,8.59,0,0,0,2.72-1.76c1.5-1.27,3.1-2.85,3.06-4.82,0-1.64-1.23-3.12-1.12-4.75a8.56,8.56,0,0,1,1.45-3.29c.59-1.06,1-2.42.31-3.43a2.6,2.6,0,0,0-2.63-.93,6.06,6.06,0,0,0-2.58,1.38,16.55,16.55,0,0,0-5.71,8.45,12.51,12.51,0,0,0,1.43,10"></path></g><path d="M341.19,440a6.09,6.09,0,0,1-2,.89,8.75,8.75,0,0,1-5.37,0,6,6,0,0,1-2.53-1.64,5.29,5.29,0,0,1-1.15-2.19,3,3,0,0,1,.14-2.22,7.26,7.26,0,0,0,.22,2.13,5,5,0,0,0,1.15,2,5.8,5.8,0,0,0,2.34,1.48,9.17,9.17,0,0,0,5.1.11A21.34,21.34,0,0,1,341.19,440Z" style="fill:#263238"></path><path d="M347.58,432.27s-.1.24-.38.59a8.93,8.93,0,0,1-1.35,1.33,8.61,8.61,0,0,1-5.89,1.95,6.87,6.87,0,0,1-5.25-3.23,5,5,0,0,1-.66-1.79,1.52,1.52,0,0,1,0-.7,8.86,8.86,0,0,0,1,2.29,6.81,6.81,0,0,0,5,2.91,8.81,8.81,0,0,0,5.63-1.73C346.9,433,347.51,432.21,347.58,432.27Z" style="fill:#263238"></path><path d="M350.05,420a2.73,2.73,0,0,1-.48.69,9.45,9.45,0,0,1-1.6,1.62,4.67,4.67,0,0,1-3.26,1.05,4,4,0,0,1-1.91-.78,13,13,0,0,0-1.75-1.13,6.52,6.52,0,0,0-3.82-.68,4.81,4.81,0,0,0-2.78,1.45,4.34,4.34,0,0,0-1.1,1.86,6,6,0,0,1-.21.79,1.77,1.77,0,0,1,0-.84,4.3,4.3,0,0,1,1-2.06,5.08,5.08,0,0,1,3-1.67,6.7,6.7,0,0,1,4.12.69c1.36.67,2.3,1.81,3.49,1.9a4.39,4.39,0,0,0,3-.88,12.45,12.45,0,0,0,1.67-1.46C349.8,420.13,350,419.92,350.05,420Z" style="fill:#263238"></path><path d="M339.64,429.46a5.09,5.09,0,0,1-3.4-4.76,28,28,0,0,0,1.37,2.62A28.38,28.38,0,0,0,339.64,429.46Z" style="fill:#263238"></path><path d="M357.22,393.54a2.23,2.23,0,0,1,.07.79,18.76,18.76,0,0,1-.11,2.13,27,27,0,0,1-5,13,17.31,17.31,0,0,1-1.34,1.66c-.34.37-.55.56-.57.54a28.11,28.11,0,0,1,1.61-2.41,31.66,31.66,0,0,0,4.92-12.88C357.08,394.65,357.14,393.54,357.22,393.54Z" style="fill:#263238"></path><path d="M354,392.44a6.06,6.06,0,0,1-.12,1.95,21.36,21.36,0,0,1-1.24,4.56,21.83,21.83,0,0,1-2.2,4.19,5.78,5.78,0,0,1-1.25,1.5c-.14-.09,1.64-2.49,3-5.88S353.78,392.41,354,392.44Z" style="fill:#263238"></path><path d="M422.6,335.07c1.47,1.53-.35,2.15-.17,4.26.1,1.13-.42,2.66-1.54,2.5-.79-.11-1.14-1-1.52-1.74a5.46,5.46,0,0,0-4.75-2.88,4,4,0,0,1-1.47-.11.94.94,0,0,1-.64-1.15,1.28,1.28,0,0,1,.71-.57,15.41,15.41,0,0,1,7-1.31l1.24-.2Z" style="fill:#263238"></path><path d="M412.54,350.14a5.3,5.3,0,0,1,3.08-.4,2.11,2.11,0,0,1,1.76,1.45c.15.62-.1,1-.15.94s0-.36-.2-.82a1.9,1.9,0,0,0-1.5-1.05,19.67,19.67,0,0,0-2.09-.06C412.89,350.2,412.55,350.21,412.54,350.14Z" style="fill:#263238"></path><g style="opacity:0.30000000000000004"><path d="M377,352.4c-2.38-1.68-5.37-2.32-7.77-4A11.24,11.24,0,0,1,364.69,337a5.54,5.54,0,0,0-.37.45,9,9,0,0,0-.12,10.65l.3.42a13.12,13.12,0,0,0,6.62,5c1.41.46,2.86.83,4.28,1.16a3.57,3.57,0,0,0,1.45.13,1.24,1.24,0,0,0,1-.93C378,353.25,377.44,352.75,377,352.4Z"></path></g><g style="opacity:0.30000000000000004"><path d="M329.18,336.34c-3.74,1.42-5.92,5.34-7,9.18s-1.44,7.92-3,11.57-4.33,6.6-6.71,9.76-4.51,6.78-4.56,10.74c6.43-5.9,13.11-12.2,15.69-20.53,2.07-6.68,1.33-14.24,4.8-20.31"></path></g><g style="opacity:0.30000000000000004"><path d="M344.75,318h0c1.73,5,1.63,11-1.56,15.18-1.79,2.35-4.36,4-6.42,6.1-5.45,5.59-6.8,13.88-7.88,21.61a112.52,112.52,0,0,0,13-15.83c2.74-4,5.25-8.36,6.26-13.14S348.53,319.07,344.75,318Z"></path></g><path d="M174.72,375.43s-.15-.09-.39-.3l-1-.93a28.62,28.62,0,0,1-3.3-3.89,25.2,25.2,0,0,1-3.34-6.78,37.86,37.86,0,0,1-1.61-9.11,77.16,77.16,0,0,1,.92-16.75c.32-2.12.62-3.83.84-5q.17-.8.27-1.35a1.78,1.78,0,0,1,.13-.47,1.53,1.53,0,0,1,0,.49c0,.37-.1.82-.17,1.37l-.68,5a85,85,0,0,0-.76,16.66,38.91,38.91,0,0,0,1.55,9,25.48,25.48,0,0,0,3.19,6.72,32.27,32.27,0,0,0,3.14,3.94A16.7,16.7,0,0,1,174.72,375.43Z" style="fill:#263238"></path><path d="M223.06,330a1,1,0,0,1,.2.2l.53.6,2,2.36c1.75,2.1,4.25,5.07,7.31,8.74l5,6.05c1.79,2.18,3.9,4.35,5.91,6.83a21.64,21.64,0,0,1,4.71,8.82,34.27,34.27,0,0,1,.88,10.71c-1,14.66-2.28,27.89-3.31,37.46-.52,4.78-1,8.65-1.31,11.32-.18,1.3-.31,2.33-.41,3.07,0,.33-.08.59-.11.8a.14.14,0,1,1-.06,0c0-.21,0-.47.07-.8q.11-1.12.3-3.09c.28-2.71.67-6.57,1.15-11.33.94-9.57,2.17-22.81,3.16-37.45a34.14,34.14,0,0,0-.85-10.56,21.43,21.43,0,0,0-4.59-8.64c-2-2.47-4.08-4.65-5.87-6.86s-3.46-4.22-5-6.09l-7.19-8.84-1.93-2.42-.49-.64A1.3,1.3,0,0,1,223.06,330Z" style="fill:#263238"></path><path d="M373.42,389.58a3.54,3.54,0,0,1,.14.66c.07.49.17,1.12.29,1.9.06.42.13.88.2,1.38s.09,1.06.14,1.66c.08,1.18.24,2.54.22,4,0,.75,0,1.53,0,2.35s-.07,1.67-.1,2.55c0,1.77-.28,3.64-.49,5.61A70.72,70.72,0,0,1,366,434.19c-1,1.73-1.87,3.39-2.87,4.85-.48.73-.92,1.46-1.4,2.13l-1.4,1.89c-.86,1.23-1.78,2.24-2.53,3.16-.39.45-.74.88-1.08,1.26l-1,1-1.35,1.38a4.11,4.11,0,0,1-.49.46,2.78,2.78,0,0,1,.42-.53l1.27-1.44c.29-.32.6-.66.93-1s.67-.82,1-1.28c.74-.93,1.63-1.95,2.46-3.19.44-.6.89-1.24,1.37-1.9s.89-1.4,1.37-2.14c1-1.45,1.85-3.11,2.81-4.83a73.4,73.4,0,0,0,7.81-24.3c.22-2,.47-3.82.53-5.57,0-.88.12-1.72.12-2.54s0-1.59,0-2.34c0-1.49-.1-2.84-.15-4,0-.59,0-1.15-.1-1.65s-.1-1-.15-1.38c-.08-.79-.15-1.43-.2-1.92A2.83,2.83,0,0,1,373.42,389.58Z" style="fill:#263238"></path></g></svg>