<?xml version="1.0" encoding="utf-8"?>
<!-- Generator: Adobe Illustrator 23.0.1, SVG Export Plug-In . SVG Version: 6.00 Build 0)  -->
<svg version="1.1" id="Layer_1" xmlns="http://www.w3.org/2000/svg" xmlns:xlink="http://www.w3.org/1999/xlink" x="0px" y="0px"
	 viewBox="0 0 500 305" style="enable-background:new 0 0 500 305;" xml:space="preserve">
<style type="text/css">
	.st0{fill:#F5F5F5;}
	.st1{fill:#263238;}
	.st2{fill:#407BFF;}
	.st3{opacity:0.1;}
	.st4{fill:#455A64;}
	.st5{fill:#FFFFFF;}
	.st6{fill:#FFBE9D;}
	.st7{fill:#EB996E;}
	.st8{opacity:0.5;}
	.st9{opacity:0.4;}
	.st10{opacity:0.3;}
	.st11{fill:#FAFAFA;}
	.st12{opacity:0.3;enable-background:new    ;}
	.st13{fill:#E0E0E0;}
</style>
<g id="freepik--background-simple--inject-121">
	<path class="st0" d="M371.7,58.2c18,38.4,13,85.7-10.8,120.7s-63.3,57.9-104.9,66.1c-29.6,6-61.6,4.7-88.7-8.7s-48.4-40.5-50-70.6
		c-0.6-11.4,1.8-23.5,9.4-32c12.1-13.6,33-14.1,51.1-13.5c18.2,0.5,39,0.2,51.2-13.4c9.4-10.4,10.8-25.5,15.7-38.6
		c8.4-22.3,28.7-39.8,52.1-44.6c13.1-2.6,26.5-1.6,39.1,2.9c14.9,5.5,27.4,16.2,35,30.2C371.2,57.2,371.5,57.7,371.7,58.2z"/>
</g>
<g id="freepik--Floor--inject-121">
	<path class="st1" d="M420.2,269.7c0,0.1-72.6,0.2-162.1,0.2S96,269.8,96,269.7s72.6-0.2,162.1-0.2S420.2,269.6,420.2,269.7z"/>
</g>
<g id="freepik--Plant--inject-121">
	<path class="st2" d="M121,176.2c-4,0.6-5.8,5.6-5.4,9.6c0.4,4,2,8,1.5,12c-0.5,5.1-4.4,9.4-4.9,14.5c-0.5,6,3.8,11.4,5,17.2
		c0.6,2.9,0.5,5.9,1.6,8.7c2.2,5.6,8.4,8.4,14,6.1c4.1-1.6,6.8-5.5,6.9-9.9c0.1-4.6-2.8-9-2.4-13.6c0.2-3.4,2.2-6.7,1.9-10.1
		c-0.5-4-4.3-6.9-5.6-10.8c-1.3-3.9-0.1-8.1-0.5-12.1C132.3,180.7,128.2,175.5,121,176.2"/>
	<path class="st2" d="M100.6,211.3c-0.7,6.7,2.3,14.6,5.7,20.4c3.5,5.9,8.8,10.4,15.1,13.1c0.7,0.3,1.5,0.5,2.2,0.1
		c0.4-0.5,0.6-1.1,0.5-1.7C124.2,228.5,114.6,215.5,100.6,211.3"/>
	<g class="st3">
		<path d="M100.6,211.3c-0.7,6.7,2.3,14.6,5.7,20.4c3.5,5.9,8.8,10.4,15.1,13.1c0.7,0.3,1.5,0.5,2.2,0.1c0.4-0.5,0.6-1.1,0.5-1.7
			C124.2,228.5,114.6,215.5,100.6,211.3"/>
	</g>
	<path class="st1" d="M129.9,258.9c-0.1-0.1-0.2-0.2-0.2-0.4c-0.2-0.3-0.3-0.6-0.5-1.1c-0.4-0.9-1-2.3-1.8-4
		c-1.5-3.4-3.8-8-6.7-12.9c-2.5-4.2-5.1-8.3-8-12.1c-1.1-1.5-2-2.7-2.6-3.6l-0.8-0.9c-0.2-0.2-0.2-0.3-0.2-0.3
		c0.1,0.1,0.2,0.2,0.3,0.3l0.8,0.9c0.7,0.8,1.6,2,2.8,3.5c2.9,3.9,5.6,8,8.1,12.1c2.5,4.2,4.6,8.5,6.6,13c0.8,1.7,1.3,3.1,1.7,4.1
		l0.4,1.2C129.8,258.6,129.9,258.7,129.9,258.9z"/>
	<path class="st1" d="M125.5,194.7c0.1,0.2,0.1,0.5,0.1,0.6c0,0.5,0.1,1.1,0.2,1.9c0.1,1.6,0.2,3.9,0.5,6.8
		c0.4,5.7,0.9,13.7,1.5,22.5s1.2,16.7,1.7,22.4c0.2,2.9,0.4,5.2,0.5,6.8c0.1,0.8,0.1,1.4,0.2,1.9c0,0.2,0,0.5,0,0.6
		c-0.1-0.2-0.1-0.4-0.1-0.6c-0.1-0.5-0.1-1.1-0.2-1.9c-0.2-1.6-0.4-3.9-0.6-6.8c-0.5-5.7-1.2-13.7-1.8-22.4
		c-0.6-8.7-1.1-16.6-1.4-22.4c-0.2-2.9-0.2-5.2-0.3-6.8c0-0.8-0.1-1.4-0.1-1.9C125.5,195.2,125.5,195,125.5,194.7z"/>
	<path class="st4" d="M119.3,249.3h16.9v12.4c0,4.5-3.6,8-8,8l0,0l0,0c-4.3,0-7.8-3.3-8-7.7L119.3,249.3z"/>
</g>
<g id="freepik--Coffee--inject-121">
	<path class="st2" d="M338.7,147.5c-0.9-0.7-2.1-1-3.2-0.9c0-0.6,0-1,0-1h-17.8c0,0-0.5,11.8,8.4,12.1c4,0.2,6.3-1.6,7.7-3.9
		c0.7,0.2,1.3,0.2,2,0.2c1,0.1,2-0.2,2.8-0.8c0.9-0.7,1.4-1.9,1.3-3C339.9,149.2,339.5,148.2,338.7,147.5z M337.5,152
		c-0.8,0.5-2.1,0.5-3,0.3c0.5-1.2,0.8-2.6,0.9-3.9c0.8-0.1,1.5,0.1,2.2,0.5c0.4,0.4,0.6,0.9,0.5,1.4
		C338.2,150.9,337.9,151.5,337.5,152L337.5,152z"/>
	<path class="st1" d="M330.2,144.5c0.1-0.2,0.2-0.3,0.2-0.5c-0.1-0.5-0.3-0.9-0.8-1.1c-0.3-0.2-0.6-0.2-0.9-0.3
		c-0.4-0.1-0.8-0.2-1.2-0.5c-0.4-0.3-0.6-0.9-0.6-1.3c0-0.5,0.2-1.1,0.5-1.5c0.6-1,1.7-1.6,2.5-2.6c0.8-1.1,1-2.5,0.6-3.8
		c-0.2-0.7-0.5-1.3-1.1-1.9c-0.5-0.5-1.2-0.9-1.9-1.2c-0.8-0.3-1.5-0.8-2-1.5c-0.2-0.4-0.5-0.8-0.5-1.2c-0.1-0.5-0.1-0.9,0.2-1.3
		c0.2-0.2,0.3-0.4,0.5-0.5l0.2,0.3c-1.3,0.9-2,2.4-1.7,3.9c0.2,0.7,0.5,1.4,1,1.9c0.6,0.5,1.1,1,1.5,1.5c0.2,0.3,0.3,0.7,0.2,1.1
		c0,0.4-0.1,0.8-0.3,1.1c-0.3,0.6-0.8,1.1-1.4,1.5c-1.1,0.7-2.2,1-3,1.7c-0.8,0.5-1.2,1.4-1.3,2.3c-0.1,0.7,0.1,1.4,0.4,2.1
		c0.3,0.5,0.7,1,1.2,1.4l-0.1-0.1c-0.1-0.1-0.2-0.2-0.3-0.2c-0.4-0.3-0.7-0.6-0.9-1.1c-0.3-0.7-0.5-1.4-0.5-2.2
		c0-0.5,0.2-0.9,0.4-1.3c0.2-0.5,0.6-0.9,1-1.2c0.9-0.7,2-1.1,3-1.7c0.5-0.4,0.9-0.9,1.2-1.4c0.3-0.5,0.3-1.2,0-1.8
		c-0.5-0.5-0.9-1.1-1.5-1.5c-0.6-0.5-1-1.3-1.1-2.1c-0.3-1.7,0.5-3.4,1.9-4.3l0.2,0.3c-0.2,0.1-0.3,0.2-0.4,0.4
		c-0.3,0.7-0.2,1.5,0.3,2.1c0.5,0.5,1.2,1,1.9,1.3s1.4,0.8,2,1.3c0.5,0.5,0.9,1.2,1.2,2c0.4,1.4,0.2,2.9-0.8,4
		c-0.9,1-1.9,1.6-2.5,2.6c-0.5,0.9-0.6,2,0,2.6s1.5,0.5,2,0.9c0.5,0.2,0.7,0.7,0.8,1.2c0,0.2-0.1,0.2-0.2,0.4
		C330.3,144.5,330.2,144.5,330.2,144.5z"/>
</g>
<g id="freepik--Tasks--inject-121">
	<path class="st4" d="M132.6,51.5h86.7c1.3,0,2.4,1.1,2.4,2.4v20.8c0,1.3-1.1,2.4-2.4,2.4h-86.7c-1.3,0-2.4-1.1-2.4-2.4V53.9
		C130.2,52.6,131.3,51.5,132.6,51.5z"/>
	<path class="st5" d="M149.5,68.6c-1.9,2.4-5.4,2.8-7.8,0.9c-2.4-1.9-2.8-5.4-0.9-7.8c1.9-2.4,5.4-2.8,7.8-0.9
		C151.1,62.7,151.4,66.2,149.5,68.6L149.5,68.6z"/>
	<path class="st2" d="M148.3,63.2c-0.9,1.2-1.9,2.2-3,3.2c-0.2,0.2-0.5,0.5-0.8,0.7l-0.2,0.2l-0.2-0.2c-0.9-0.8-1.6-1.6-2.2-2.6
		c0.9,0.7,1.8,1.4,2.6,2.2h-0.3l0.8-0.8C146,65.1,147.1,64.1,148.3,63.2z"/>
	<path class="st5" d="M212.9,62.5c0,0.1-11.7,0.2-26,0.2c-14.3,0-26-0.2-26-0.2c0-0.1,11.6-0.2,26-0.2S212.9,62.4,212.9,62.5z"/>
	<path class="st5" d="M191.5,67.6c0,0.1-6.7,0.2-15,0.2c-8.3,0-15.1-0.1-15.1-0.2s6.7-0.2,15.1-0.2S191.5,67.5,191.5,67.6z"/>
	<path class="st4" d="M132.6,80.9h86.7c1.3,0,2.4,1.1,2.4,2.4v20.8c0,1.3-1.1,2.4-2.4,2.4h-86.7c-1.3,0-2.4-1.1-2.4-2.4V83.3
		C130.2,81.9,131.3,80.9,132.6,80.9z"/>
	<path class="st5" d="M149.5,98c-1.9,2.4-5.4,2.8-7.8,0.9c-2.4-1.9-2.8-5.4-0.9-7.8s5.4-2.8,7.8-0.9S151.4,95.6,149.5,98z"/>
	<path class="st2" d="M148.3,92.6c-0.9,1.2-1.9,2.2-3,3.2l-0.8,0.8l-0.2,0.2l-0.2-0.2c-0.9-0.8-1.6-1.6-2.2-2.6
		c0.9,0.7,1.8,1.4,2.6,2.2h-0.3l0.8-0.8C146,94.5,147.1,93.5,148.3,92.6z"/>
	<path class="st5" d="M212.9,91.9c0,0.1-11.7,0.2-26,0.2c-14.3,0-26-0.1-26-0.2s11.6-0.2,26-0.2S212.9,91.7,212.9,91.9z"/>
	<path class="st5" d="M191.5,96.9c0,0.1-6.7,0.2-15,0.2c-8.3,0-15.1-0.1-15.1-0.2s6.7-0.2,15.1-0.2
		C184.9,96.7,191.5,96.8,191.5,96.9z"/>
	<path class="st4" d="M132.6,110.3h86.7c1.3,0,2.4,1.1,2.4,2.4v20.8c0,1.3-1.1,2.4-2.4,2.4h-86.7c-1.3,0-2.4-1.1-2.4-2.4v-20.8
		C130.2,111.3,131.3,110.3,132.6,110.3z"/>
	<path class="st5" d="M149.5,127.4c-1.9,2.4-5.4,2.8-7.8,0.9c-2.4-1.9-2.8-5.4-0.9-7.8s5.4-2.8,7.8-0.9
		C151.1,121.5,151.4,125,149.5,127.4L149.5,127.4z"/>
	<path class="st2" d="M148.3,121.9c-0.9,1.2-1.9,2.2-3,3.2l-0.8,0.7l-0.2,0.2l-0.2-0.2c-0.9-0.8-1.6-1.6-2.2-2.6
		c0.9,0.7,1.8,1.4,2.6,2.2h-0.3l0.8-0.8C146,123.8,147.1,122.9,148.3,121.9z"/>
	<path class="st5" d="M212.9,121.2c0,0.1-11.7,0.2-26,0.2c-14.3,0-26-0.1-26-0.2s11.6-0.2,26-0.2S212.9,121.1,212.9,121.2z"/>
	<path class="st5" d="M191.5,126.3c0,0.1-6.7,0.2-15,0.2c-8.3,0-15.1-0.1-15.1-0.2s6.7-0.2,15.1-0.2
		C184.9,126.1,191.5,126.2,191.5,126.3z"/>
</g>
<g id="freepik--Character--inject-121">
	<polygon class="st1" points="273.7,207.5 272.3,269.7 269.5,269.7 269.7,207.6 	"/>
	<polygon class="st1" points="283.6,206.8 296.9,269.7 300,269.7 288.9,206.8 	"/>
	<polygon class="st1" points="258.6,207.5 243.8,269.7 240.8,269.7 254.2,207.2 	"/>
	<path class="st1" d="M301,139c0,0,16.9-0.9,15.2,18.6s-2.6,39.4-9,46.3c-6.3,6.8-69.6,7-75,1.5s10.1-5.3,13.1-5.3
		c2.9,0,20.8,1.7,26.6-13.5C277.8,171.3,276.3,138,301,139z"/>
	<path class="st4" d="M302,139c0,0,12.9,2.6,11.8,16.2c-1.2,13.5-4.6,37.3-10.9,43.3c-6.3,6-30.9,7.3-44.2,6.5
		c-15.5-1-25.2-3.9-25.2-3.9s-2.9,1.8-2,3c0.9,1.2,8.4,5.9,45,5.1s34-6.2,35.6-12.1c1.5-5.9,4.7-37.4,4.3-44.2
		C315.8,146.1,312.3,140.2,302,139z"/>
	<path class="st1" d="M265.7,81.6c4.2-1.5,8.8,0.1,11.3,3.8c1.6,2.6,2,5.7,3.7,8.2c1.2,1.8,2.9,3.1,4.4,4.6s2.6,3.6,2.2,5.7
		c-0.3,1.9-2,3.7-1.7,5.7c0.3,1.9,2.2,3,2.7,4.9c0.5,2.2-1.6,4.2-3.8,4.5s-4.3-0.5-6.4-1.3c-2.1-0.9-4.3-1.6-6.4-1.2
		c-2.6,0.5-4.5,2.5-6.7,3.8c-4.7,2.7-10.7,2.4-15.1-0.9c-1.6-1.2-3.1-3.2-2.7-5.3c0.4-1.9,2.2-3.2,2.8-5.1c0.8-2.8-1.5-5.6-1.2-8.5
		c0.5-3.9,5.3-5.6,7-9.1c0.9-1.7,0.9-3.6,1.6-5.3c0.7-1.7,2.6-3.2,4.4-2.6"/>
	<path class="st6" d="M264.1,116.8c0.2-1.4-0.2-7.2-0.2-7.2s-5.1-0.6-5.3-5.9c-0.2-5.3,0.3-17.3,0.3-17.3l9.4-4.5l8.3,9.4l0.2,25.4
		L264.1,116.8z"/>
	<path class="st1" d="M259.5,95.6c0,0.4,0.3,0.6,0.7,0.6s0.6-0.3,0.6-0.7s-0.3-0.6-0.6-0.6C259.8,95,259.5,95.3,259.5,95.6z"/>
	<path class="st1" d="M259,94.5c0.1,0.1,0.6-0.3,1.3-0.4c0.7,0,1.2,0.3,1.3,0.2c0.1-0.1-0.1-0.2-0.3-0.4c-0.6-0.5-1.5-0.4-2.1,0.1
		C259.1,94.3,259,94.5,259,94.5z"/>
	<path class="st1" d="M267.2,95.6c-0.1,0.4,0.2,0.7,0.6,0.7c0.4,0.1,0.7-0.2,0.7-0.6c0-0.1,0-0.1,0-0.2c0.1-0.4-0.2-0.7-0.6-0.7
		c-0.4-0.1-0.7,0.2-0.7,0.6C267.2,95.6,267.2,95.6,267.2,95.6z"/>
	<path class="st1" d="M266.8,94.6c0.1,0.1,0.6-0.3,1.3-0.4c0.7,0,1.2,0.3,1.3,0.2c0.1-0.1-0.1-0.2-0.3-0.4c-0.3-0.2-0.7-0.3-1-0.3
		c-0.4,0-0.7,0.2-1,0.4C266.9,94.4,266.8,94.6,266.8,94.6z"/>
	<path class="st1" d="M264.2,100.7c-0.4-0.1-0.8-0.2-1.2-0.2c-0.2,0-0.4-0.1-0.4-0.2c0-0.2,0-0.4,0.1-0.6c0.2-0.5,0.3-0.9,0.5-1.5
		c0.5-1.2,0.9-2.6,1.2-3.9c-0.5,1.2-1.1,2.5-1.4,3.8c-0.2,0.5-0.3,1-0.5,1.5c-0.1,0.2-0.2,0.5-0.1,0.8c0.1,0.2,0.2,0.2,0.3,0.3
		c0.1,0,0.2,0,0.3,0C263.4,100.7,263.8,100.7,264.2,100.7z"/>
	<path class="st7" d="M263.9,109.6c2.4-0.1,4.8-0.9,6.8-2.2c0,0-1.6,3.8-6.7,3.5L263.9,109.6z"/>
	<path class="st7" d="M264.4,102.5c0.1-0.5,0.4-0.9,0.9-1c0.3-0.2,0.6-0.2,0.9,0c0.3,0.2,0.5,0.5,0.4,0.8c-0.1,0.4-0.4,0.6-0.8,0.7
		c-0.4,0.1-0.7,0-1.1-0.1c-0.1,0-0.2-0.1-0.3-0.1C264.4,102.8,264.4,102.7,264.4,102.5"/>
	<path class="st1" d="M266.2,100.7c0.1,0,0.2,0.2,0.1,0.5c-0.1,0.5-0.2,0.9-0.6,1.2c-0.3,0.3-0.8,0.5-1.2,0.5
		c-0.3,0-0.5-0.1-0.5-0.2c0-0.1,0.9-0.1,1.5-0.6C266.2,101.5,266.1,100.7,266.2,100.7z"/>
	<path class="st1" d="M258.3,85.8c0.4,3.2,3.1,5.5,6.3,5.5l-1.4-3.2c1.2,1.5,2.6,3,4.3,3.9c1.8,0.9,4,1,5.5-0.3
		c0.5,1.3,0.5,2.7,0.9,4c0.5,1.3,1.5,6.7,2.9,6.4c1.3-0.2,2.2-5.6,2.5-6.8c0.8-3.5-0.2-7-2.5-9.7c-2.7-3.2-6.8-4.9-11-4.6
		c-1.9,0.1-3.6,0.7-5.1,1.8c-1.2,1-2.2,2.4-2.5,4"/>
	<path class="st1" d="M251.4,109.5c-0.2,0-0.2,0-0.4-0.1c-0.3-0.1-0.7-0.2-0.9-0.4c-1.2-0.6-2.1-1.5-2.7-2.7c-1-1.7-1.2-3.8-0.5-5.6
		c0.4-1.1,1.1-2,1.9-2.8c0.9-0.9,2-1.4,3.2-1.6c0.5-0.1,1.1-0.3,1.5-0.7c0.4-0.5,0.5-0.9,0.6-1.5c0.1-1.1-0.3-2.2-0.5-3.2
		c-0.2-1.1,0.1-2.1,0.6-3c0.5-0.8,1.2-1.5,1.9-1.9s1.4-0.6,2-0.9c0.5-0.2,1-0.5,1.5-0.8c0.4-0.3,0.7-0.6,1-0.9
		c-0.1,0.1-0.1,0.2-0.2,0.3c-0.2,0.3-0.5,0.5-0.8,0.8c-0.5,0.3-0.9,0.6-1.5,0.9c-0.6,0.3-1.2,0.5-1.9,0.9c-0.8,0.4-1.4,1-1.8,1.8
		c-0.5,0.9-0.7,1.9-0.5,2.8c0.2,1,0.6,2.1,0.5,3.3c0,0.6-0.2,1.2-0.7,1.8c-0.5,0.5-1.1,0.8-1.7,0.9c-2.2,0.5-4.1,2.1-5,4.2
		c-0.7,1.8-0.5,3.7,0.4,5.3c0.6,1.1,1.5,2,2.6,2.7C250.8,109.3,251.4,109.4,251.4,109.5z"/>
	<path class="st1" d="M285.5,116.4c0,0,0.5-0.3,1.2-0.9c1.2-0.8,2-1.8,2.6-3c0.3-0.9,0.4-1.8,0.2-2.7c-0.2-0.5-0.4-0.9-0.8-1.2
		c-0.4-0.4-0.9-0.7-1.3-0.9c-1.2-0.6-1.9-1.8-1.9-3c-0.1-1.4,0.8-2.5,1.1-3.7c0.2-1.2,0.1-2.5-0.5-3.6c-0.5-1-1.3-1.9-2.2-2.7
		c-1.7-1.5-3.6-2.5-4.8-3.8c-1-0.9-1.8-2.1-2.2-3.5c-0.1-0.4-0.2-0.7-0.2-1.1c0-0.2,0-0.2,0-0.4c0.1,0.5,0.2,1,0.3,1.5
		c0.5,1.2,1.2,2.4,2.2,3.3c1.2,1.2,3,2.2,4.8,3.6c0.9,0.8,1.8,1.7,2.3,2.8c0.7,1.2,0.9,2.6,0.6,3.9c-0.3,1.3-1.2,2.4-1.1,3.6
		c0,1.2,0.7,2.2,1.8,2.8c0.5,0.2,1,0.6,1.4,0.9c0.4,0.4,0.7,0.9,0.9,1.4c0.2,0.9,0.2,1.9-0.2,2.9c-0.3,0.7-0.8,1.4-1.4,1.9
		c-0.5,0.4-0.9,0.8-1.4,1.1c-0.4,0.2-0.8,0.5-0.9,0.5C285.7,116.3,285.6,116.4,285.5,116.4z"/>
	<path class="st1" d="M258.2,92.1c0.7-0.6,1.2-1.4,1.5-2.3c0.2-0.9,0.3-1.9,0.3-2.8c0-0.3,0-0.6-0.3-0.7c-0.3-0.1-0.5,0.2-0.6,0.4
		c-0.9,1.8-1.2,3.7-0.9,5.7l0.2-0.2"/>
	<path class="st2" d="M245,266l-0.2-6.8l12.7-0.3l0.3,9.9l-0.8,0.1c-3.5,0.3-17.8,1.2-20.2,0.5C234.4,268.7,245,266,245,266z"/>
	<g class="st8">
		<path class="st5" d="M253.3,268.8c0.2-1.1,0.7-2.1,1.5-2.8s1.9-1.1,2.9-1l0.1,3.6L253.3,268.8z"/>
	</g>
	<g class="st9">
		<path class="st5" d="M239.9,267.5c0,0-3.8,1.2-3.2,1.8c0.5,0.6,15,0.2,21.3-0.5v-0.2l-16.9,0.6C241,269.1,240.5,267.5,239.9,267.5
			z"/>
	</g>
	<path class="st1" d="M258.1,268.4h-0.2l-0.6,0.1l-2.3,0.2c-1.9,0.2-4.6,0.2-7.6,0.3s-5.6,0.1-7.6,0.1h-2.3h-0.6h-0.2h0.2h0.6h2.3
		c1.9,0,4.6-0.1,7.6-0.2s5.6-0.2,7.6-0.3l2.3-0.2h0.6H258.1z"/>
	<path class="st1" d="M241,269.3c-0.1-0.4-0.3-0.8-0.5-1.1c-0.2-0.3-0.5-0.6-0.8-0.9C240.5,267.7,241,268.4,241,269.3L241,269.3z"/>
	<path class="st1" d="M244.7,267.3c0,0-0.2-0.2-0.4-0.5c-0.2-0.3-0.3-0.5-0.3-0.5s0.2,0.2,0.4,0.5
		C244.6,266.9,244.6,267.1,244.7,267.3z"/>
	<path class="st1" d="M245.7,266.7c0,0-0.2-0.1-0.5-0.3c-0.2-0.2-0.4-0.4-0.4-0.4s0.2,0.1,0.5,0.3
		C245.6,266.5,245.7,266.7,245.7,266.7z"/>
	<path class="st1" d="M246.3,265.5c-0.2,0.1-0.5,0.2-0.7,0.1c-0.2,0-0.5,0-0.7-0.1C245.4,265.4,245.9,265.4,246.3,265.5L246.3,265.5
		z"/>
	<path class="st1" d="M246.5,264.7c-0.2,0.2-0.5,0.2-0.8,0.2c-0.2,0.1-0.5,0-0.8-0.1c0.2-0.1,0.5-0.1,0.8-0.1
		C246,264.7,246.3,264.7,246.5,264.7z"/>
	<path class="st1" d="M244.3,266.2c-0.2,0.1-0.5,0.1-0.9,0c-0.3,0-0.6-0.1-0.9-0.2c-0.2-0.1-0.3-0.1-0.5-0.2
		c-0.1-0.1-0.2-0.2-0.2-0.2c0-0.2,0-0.2,0.1-0.3c0.6-0.3,1.4-0.2,1.9,0.4c0.2,0.2,0.2,0.3,0.3,0.5c0,0.1,0,0.2,0,0.2
		c-0.1-0.2-0.2-0.5-0.4-0.7c-0.2-0.2-0.5-0.4-0.7-0.5c-0.3-0.1-0.7-0.1-1,0.1c-0.2,0.1-0.1,0.2,0.1,0.3c0.2,0.1,0.3,0.2,0.5,0.2
		c0.3,0.1,0.5,0.2,0.9,0.2C244,266.2,244.3,266.2,244.3,266.2z"/>
	<path class="st1" d="M244,266.3c-0.1-0.2-0.2-0.4-0.1-0.5c0-0.2,0.1-0.4,0.2-0.6s0.4-0.4,0.7-0.5c0.2,0,0.3,0.2,0.2,0.4
		c0,0.2-0.1,0.2-0.2,0.4c-0.1,0.2-0.2,0.3-0.4,0.5C244.4,266,244.3,266.1,244,266.3c0.1,0,0.2-0.2,0.5-0.5c0.2-0.2,0.2-0.3,0.3-0.5
		c0.1-0.2,0.2-0.5,0-0.5c-0.2,0-0.4,0.2-0.5,0.4c-0.1,0.2-0.2,0.3-0.2,0.5C244,265.9,244,266,244,266.3z"/>
	<path class="st1" d="M257.7,265c0,0-0.4,0-0.9,0.1c-1.5,0.2-2.8,1.2-3.2,2.7c-0.2,0.5-0.2,0.9-0.2,0.9s0-0.1,0-0.2
		c0-0.2,0.1-0.5,0.2-0.7c0.2-0.8,0.6-1.4,1.2-1.9c0.6-0.5,1.3-0.8,2.1-0.9c0.2,0,0.5,0,0.7,0C257.6,265,257.6,265,257.7,265z"/>
	<path class="st1" d="M256.3,259.8c0.1,0.9,0.2,1.7,0.2,2.6c0.1,0.9,0.1,1.7,0,2.6c-0.1-0.9-0.2-1.7-0.2-2.6
		S256.3,260.6,256.3,259.8z"/>
	<path class="st1" d="M251.7,267.6c-0.6,0.2-1.2,0.2-1.9,0.2c-0.6,0.1-1.2,0-1.9-0.1c0-0.1,0.9,0,1.9-0.1
		C250.8,267.6,251.7,267.6,251.7,267.6z"/>
	<path class="st1" d="M254.2,267.5c0,0-0.1,0.2-0.2,0.4s-0.2,0.4-0.2,0.4c-0.1,0-0.1-0.2,0-0.4C253.9,267.6,254.2,267.5,254.2,267.5
		z"/>
	<path class="st1" d="M255.1,266.4c0,0-0.1,0.2-0.2,0.3s-0.2,0.2-0.3,0.2s0.1-0.2,0.2-0.3C254.9,266.4,255,266.4,255.1,266.4z"/>
	<path class="st1" d="M256.4,265.8c0,0.1-0.2,0.1-0.4,0.1c-0.2,0.1-0.3,0.2-0.3,0.2s0.1-0.2,0.3-0.3
		C256.2,265.7,256.4,265.7,256.4,265.8z"/>
	<path class="st1" d="M257.3,265.5c0,0-0.1,0.1-0.2,0.2c-0.1,0.1-0.2,0.1-0.2,0s0.1-0.1,0.2-0.2
		C257.2,265.4,257.3,265.4,257.3,265.5z"/>
	<path class="st2" d="M214.4,229.8l2.9-6.1l11.4,5.4l-4.2,9l-0.8-0.3c-3.2-1.3-16.4-7-18.3-8.6C203.7,227.3,214.4,229.8,214.4,229.8
		z"/>
	<g class="st8">
		<path class="st5" d="M220.5,236c0.6-0.9,1.5-1.5,2.6-1.8c1-0.2,2.2-0.1,3.1,0.5l-1.5,3.2L220.5,236z"/>
	</g>
	<g class="st9">
		<path class="st5" d="M209.1,228.7c0,0-3.9-0.6-3.7,0.2s13.2,7,19.3,9.2l0.1-0.2l-15.3-7.1C209.4,230.7,209.7,229.1,209.1,228.7z"
			/>
	</g>
	<path class="st1" d="M224.9,237.9c-0.1,0-0.2,0-0.2-0.1l-0.6-0.2l-2.2-0.9c-1.8-0.8-4.3-1.9-7-3.2c-2.7-1.3-5.1-2.5-6.8-3.4l-2-1.1
		l-0.5-0.3l-0.2-0.2l0.2,0.1l0.5,0.3l2.1,1c1.8,0.9,4.2,2.1,6.9,3.3c2.7,1.2,5.1,2.4,7,3.2l2.1,0.9l0.5,0.2L224.9,237.9z"/>
	<path class="st1" d="M209.3,230.9c0.1-0.4,0.1-0.8,0.1-1.2c-0.1-0.4-0.2-0.8-0.3-1.2c0.3,0.3,0.5,0.7,0.5,1.2
		C209.6,230.1,209.5,230.5,209.3,230.9z"/>
	<path class="st1" d="M213.5,230.8c-0.1,0-0.1-0.3-0.2-0.6c-0.1-0.3-0.1-0.6,0-0.6c0.1,0.2,0.2,0.4,0.2,0.6
		C213.6,230.5,213.6,230.8,213.5,230.8z"/>
	<path class="st1" d="M214.6,230.7c0,0-0.2-0.2-0.3-0.5c-0.2-0.3-0.2-0.5-0.2-0.5c0.1,0,0.2,0.2,0.3,0.5S214.7,230.7,214.6,230.7z"
		/>
	<path class="st1" d="M215.7,229.9c-0.2,0-0.5-0.1-0.6-0.2c-0.2-0.1-0.4-0.2-0.5-0.3c0.2,0,0.5,0.1,0.6,0.2
		C215.5,229.7,215.8,229.8,215.7,229.9z"/>
	<path class="st1" d="M216.3,229.2c-0.5,0-1-0.2-1.4-0.5C215.4,228.8,215.9,229.1,216.3,229.2z"/>
	<path class="st1" d="M213.6,229.5c-0.2-0.1-0.5-0.2-0.8-0.4c-0.2-0.2-0.5-0.3-0.7-0.5c-0.2-0.2-0.2-0.2-0.4-0.4
		c-0.1-0.1-0.1-0.2-0.1-0.3c0-0.2,0.2-0.2,0.2-0.2c0.9,0,1.5,0.6,1.5,1.5c0,0.1,0,0.2,0,0.3c0,0.2-0.1,0.2-0.1,0.2
		c0-0.2,0-0.5,0-0.8c-0.1-0.3-0.2-0.5-0.5-0.7c-0.2-0.2-0.5-0.4-0.9-0.4c-0.2,0-0.2,0.2-0.1,0.3c0.1,0.2,0.2,0.2,0.3,0.4
		c0.2,0.2,0.5,0.4,0.7,0.5C213.3,229.4,213.6,229.5,213.6,229.5z"/>
	<path class="st1" d="M213.4,229.5c0-0.2,0-0.4,0.2-0.5c0.2-0.2,0.3-0.3,0.5-0.5c0.2-0.2,0.5-0.2,0.8-0.1c0.2,0.1,0.2,0.3,0.1,0.5
		c-0.1,0.1-0.2,0.2-0.3,0.2c-0.2,0.2-0.4,0.2-0.5,0.3C213.8,229.5,213.6,229.5,213.4,229.5c0.1,0,0.3-0.1,0.6-0.2
		c0.2-0.1,0.4-0.2,0.5-0.3c0.2-0.1,0.4-0.4,0.2-0.5c-0.2-0.1-0.5,0-0.6,0.1c-0.2,0.1-0.3,0.2-0.5,0.4
		C213.5,229.2,213.4,229.3,213.4,229.5z"/>
	<path class="st1" d="M226.2,234.6c0,0-0.3-0.2-0.9-0.4c-1.5-0.5-3.1-0.2-4.1,1c-0.4,0.4-0.6,0.8-0.6,0.7c0-0.1,0.1-0.2,0.1-0.2
		c0.2-0.2,0.2-0.4,0.4-0.5c1.1-1.2,2.8-1.5,4.3-1c0.2,0.1,0.4,0.2,0.6,0.3C226.1,234.6,226.2,234.6,226.2,234.6z"/>
	<path class="st1" d="M227.2,229.3c-0.3,0.9-0.6,1.6-1,2.4c-0.3,0.8-0.7,1.5-1.2,2.3c0.3-0.9,0.6-1.6,1-2.4
		C226.4,230.8,226.8,230,227.2,229.3z"/>
	<path class="st1" d="M219.6,234.2c-0.6-0.2-1.2-0.3-1.8-0.6c-0.5-0.2-1.1-0.5-1.6-0.9c0,0,0.8,0.4,1.7,0.8
		C218.8,233.9,219.6,234.2,219.6,234.2z"/>
	<path class="st1" d="M221.8,235.3c0,0.1-0.2,0.2-0.3,0.2c-0.2,0.2-0.3,0.3-0.3,0.2c0,0,0-0.2,0.2-0.4
		C221.7,235.3,221.8,235.2,221.8,235.3z"/>
	<path class="st1" d="M223.1,234.6c0,0.1-0.2,0.2-0.3,0.2c-0.2,0.1-0.3,0.1-0.3,0.1c0-0.1,0.2-0.2,0.3-0.2S223.1,234.6,223.1,234.6z
		"/>
	<path class="st1" d="M224.6,234.7c0,0-0.2-0.1-0.4-0.1c-0.2,0-0.4,0-0.4,0s0.2-0.2,0.4-0.2C224.5,234.5,224.6,234.6,224.6,234.7z"
		/>
	<path class="st1" d="M225.6,234.9c0,0-0.1,0.1-0.2,0.1c-0.1,0-0.2-0.1-0.2-0.1s0.1-0.1,0.2-0.1
		C225.5,234.8,225.6,234.8,225.6,234.9z"/>
	<path class="st2" d="M298,141l-2.7-13.5c-1.9-11.1-17.5-11.8-17.5-11.8l-12.2-0.2c0,0-9.1-1.2-14.6,5.1
		c-5.8,6.5-12.8,14.2-12.8,14.2l5.4,13.6l12.8-10.5c-1.1,1.9-1.6,4-1.7,6.2c0,3.6,3.8,5.3,3.8,5.3l1.2,11l-3.8,17.7l39.8-1.6
		c-0.7-6-2.7-11.7-5.9-16.7l0.8-18.6L298,141L298,141z"/>
	<path class="st1" d="M281,125.9c0.1,0.3,0.2,0.5,0.2,0.9c0.2,0.6,0.3,1.5,0.5,2.4c0.4,2.1,0.9,4.8,1.5,7.8c0.5,3,1.1,5.9,1.4,7.9
		c0.2,1,0.3,1.9,0.3,2.4c0.1,0.3,0.1,0.6,0.1,0.9c-0.1-0.3-0.2-0.5-0.2-0.9c-0.2-0.6-0.3-1.5-0.5-2.4c-0.4-2.1-0.9-4.8-1.5-7.8
		c-0.5-3-1.1-5.8-1.4-7.9c-0.2-1-0.3-1.9-0.3-2.4C281,126.5,281,126.2,281,125.9z"/>
	<path class="st1" d="M298.3,140.4c-2.5,0.2-4.9,0.3-7.3,0.2c-2.5,0.1-4.9,0-7.3-0.2c2.5-0.2,4.9-0.3,7.3-0.2
		C293.4,140.1,295.9,140.2,298.3,140.4z"/>
	<path class="st6" d="M299.8,152.7c-0.8-6.5-1.9-12.1-1.9-12.1h-14.1c0,0,1.8,8.3,1.4,10.2c-0.3,1.7-27.6,2.8-34.7,2.9
		c-0.5-0.3-1,0.2-1.6-0.2c-0.5-0.5-0.9-0.9-1.2-1.5c-0.4-0.7-0.8-1.4-1-2.2c-0.1-0.4-0.5-0.7-0.9-0.6c-0.2,0-0.4,0.2-0.5,0.3
		c-0.3,0.6,0,2.6,1.4,4.6c1.3,1.9-2.2,0.9-3.5,0.6c-1.3-0.3-5.3-1.2-5.8-0.9c-0.6,0.5-0.2,1.2,1.1,1.5c1.3,0.3,5.2,1.5,5,2.2
		c-0.2,0.8-6.8-1.2-6.8-1.2s-1.3-0.6-1.6,0.2c-0.5,1.5,6.7,2.9,7.3,3c0.5,0.1,0.3,0.9-0.2,0.8c-0.5-0.1-6.5-2-7-0.5
		c-0.4,1.1,5.9,1.2,6.9,2.3c1,1.1-4.7-0.6-5,0.5c-0.2,0.4,2.2,0.6,5.7,1.1c3.6,0.3,7.1,0.5,10.7,0.4c8,0.5,36.3,1,42.3,0.6
		C302.7,163.9,300.1,154.9,299.8,152.7z"/>
	<path class="st1" d="M255,141.4c0.1-0.6,0.3-1.2,0.5-1.9c0.2-0.5,0.4-1.2,0.6-1.9c0.2-0.4,0.3-0.8,0.5-1.2c0.1-0.2,0.2-0.4,0.2-0.5
		c0.1-0.2,0.1-0.4,0.1-0.6c0-0.4-0.1-0.9-0.2-1.2s-0.2-0.8-0.2-1.2c-0.2-0.8-0.2-1.4-0.3-2c-0.2-0.6-0.2-1.2-0.2-1.9
		c0.2,0.6,0.4,1.2,0.5,1.9c0.2,0.6,0.3,1.3,0.5,2l0.2,1.2c0.1,0.5,0.2,0.9,0.2,1.3c0,0.2,0,0.5-0.1,0.7c-0.1,0.2-0.2,0.4-0.3,0.6
		c-0.2,0.4-0.3,0.8-0.5,1.1c-0.2,0.7-0.5,1.3-0.7,1.9C255.6,140.3,255.3,140.9,255,141.4z"/>
	<path class="st1" d="M271.5,90.1c1.1,1.4,2.2,3,2,4.8c-0.2,1.5-1.4,2.9-1.2,4.4c0.2,1.8,2.2,2.9,2.4,4.7c0.1,1.5-1.2,2.6-2.1,3.8
		c-1.3,1.7-1.9,3.9-1.6,6c0.3,2.2,1.5,4,3.5,5.1c1.9,1.1,4.3,1,6.1-0.1c1.6-1.2,2.9-2.8,3.4-4.7c0.9-2.4,1.1-5.3-0.4-7.4
		c-0.6-0.9-1.5-1.6-1.6-2.6c-0.2-1.3,0.7-2.6,0.9-3.8c0.2-1.8-1-3.3-2.3-4.5c-1.3-1.2-2.9-2.1-3.9-3.6"/>
	<g class="st10">
		<path d="M281.5,129.5c0.5,7.5,0.8,14.5,0.9,22c1-0.1,2-0.4,2.9-0.9C285.6,147.5,283.2,137.7,281.5,129.5z"/>
	</g>
	<path class="st11" d="M263.1,126.1c-0.1-0.5-0.1-1.2,0.2-1.7c0.2-0.9,0.6-1.6,0.8-1.5c0,0.5-0.2,1.2-0.4,1.6
		C263.6,125,263.4,125.6,263.1,126.1z"/>
	<path class="st11" d="M255.1,126c-0.1,0.1-0.6-0.2-1.1-0.7c-0.5-0.5-0.9-1-0.8-1.1c0.1-0.1,0.5,0.3,1,0.8
		C254.7,125.6,255.2,126,255.1,126z"/>
	<path class="st11" d="M247.4,132.3c0,0-0.1-0.1-0.1-0.2h0.2c0.2,0.6,0.2,1.2,0,1.9c-0.1,0.7-0.3,1.4-0.8,1.9c0.1-0.7,0.2-1.3,0.4-2
		c0.2-0.8,0.2-1.5,0.2-1.8h0.2C247.5,132.2,247.5,132.3,247.4,132.3z"/>
	<path class="st11" d="M247.1,140.1c-0.5,0-1.2-0.2-1.6-0.5c-0.9-0.3-1.5-0.7-1.5-0.8c0.5,0,1.2,0.2,1.6,0.5
		C246.5,139.7,247.1,140,247.1,140.1z"/>
	<path class="st11" d="M253.6,135.8c-0.1,0-0.1-0.7,0.2-1.5s0.6-1.3,0.7-1.3c0.1,0.1-0.1,0.6-0.3,1.4
		C253.9,135.2,253.7,135.8,253.6,135.8z"/>
	<path class="st11" d="M260.4,118.6c0,0.1-0.5,0.2-1.2,0.2c-0.7,0-1.3,0-1.3-0.2c0-0.2,0.5-0.2,1.2-0.2
		C259.7,118.5,260.4,118.5,260.4,118.6z"/>
	<path class="st11" d="M261.7,133.4c-0.1,0.1-0.7-0.4-1.1-1.2c-0.3-0.5-0.4-1.1-0.3-1.6c0.1,0,0.3,0.7,0.6,1.4
		C261.4,132.8,261.8,133.3,261.7,133.4z"/>
	<path class="st11" d="M275.1,130.2c0.1,0.1-0.4,0.7-1.1,1.3c-0.7,0.6-1.4,1-1.5,0.9c-0.1-0.1,0.5-0.6,1.2-1.2
		C274.5,130.6,275,130.1,275.1,130.2z"/>
	<path class="st11" d="M268.5,128.1c0.1,0.1-0.4,0.5-0.9,0.9c-0.6,0.5-1.1,0.7-1.2,0.6s0.4-0.5,0.9-0.9
		C267.9,128.4,268.5,128.1,268.5,128.1z"/>
	<path class="st11" d="M271.8,122.7c-0.6-0.2-1.2-0.5-1.6-0.9c-0.8-0.7-1.2-1.4-1.2-1.5c0.1-0.1,0.6,0.5,1.4,1.2
		C271.2,122.2,271.8,122.6,271.8,122.7z"/>
	<path class="st11" d="M279.4,120.6c0.1,0.1-0.4,0.5-0.9,0.9s-1.2,0.8-1.2,0.7c-0.1-0.1,0.4-0.5,0.9-1
		C278.8,120.8,279.3,120.5,279.4,120.6z"/>
	<path class="st11" d="M285.7,123.6c0-0.5,0.1-1.1,0.2-1.6c0.2-0.9,0.3-1.5,0.4-1.5c0.2,0.5,0.2,1.1,0,1.6
		C286.2,123,285.9,123.6,285.7,123.6z"/>
	<path class="st11" d="M286.9,130.9c-0.1,0.1-0.8-0.5-1.5-1.2c-0.8-0.7-1.3-1.3-1.2-1.4c0.1-0.1,0.8,0.4,1.5,1.2
		C286.3,130.1,287,130.8,286.9,130.9z"/>
	<path class="st11" d="M292.1,127.8c-0.1-0.1,0.1-0.8,0.5-1.5c0.4-0.7,0.7-1.4,0.8-1.4c0,0.5-0.2,1.1-0.5,1.5
		C292.5,127.3,292.1,127.9,292.1,127.8z"/>
	<path class="st11" d="M292.3,136.6c0.2-0.6,0.4-1.2,0.8-1.8c0.2-0.6,0.6-1.1,1.1-1.5c-0.2,0.6-0.4,1.2-0.8,1.8
		C293.1,135.6,292.8,136.1,292.3,136.6z"/>
	<path class="st11" d="M287.2,137.9c-0.1,0.1-0.6-0.5-1.2-1.2s-0.9-1.4-0.9-1.5c0.1-0.1,0.6,0.5,1.2,1.2
		C287,137.2,287.3,137.8,287.2,137.9z"/>
	<path class="st11" d="M277.6,141.6c0.2-0.8,0.5-1.5,1-2.2c0.4-0.7,0.9-1.3,1.6-1.8c-0.4,0.7-0.8,1.4-1.2,2
		C278.6,140.4,278.1,141,277.6,141.6z"/>
	<path class="st11" d="M270.7,140.9c-0.5-0.5-0.9-1.1-1.1-1.8c-0.4-0.6-0.6-1.2-0.7-1.9C269.8,138.3,270.4,139.6,270.7,140.9
		L270.7,140.9z"/>
	<path class="st11" d="M262.1,138.9c-0.5,0.6-1,1.2-1.5,1.6c-0.5,0.5-1.2,1-1.9,1.3c-0.1-0.1,0.6-0.9,1.5-1.6
		C260.7,139.7,261.4,139.3,262.1,138.9z"/>
	<path class="st11" d="M265.4,148.3c-0.1,0.1-0.7-0.6-1.5-1.5s-1.5-1.5-1.5-1.5c0.7,0.2,1.2,0.7,1.7,1.2
		C264.7,147.1,265.1,147.6,265.4,148.3z"/>
	<path class="st11" d="M271.4,148.6c0.1-0.7,0.3-1.4,0.7-1.9c0.5-1,1.2-1.6,1.3-1.5c-0.2,0.6-0.6,1.2-1,1.7
		C272.2,147.5,271.8,148.1,271.4,148.6z"/>
	<path class="st11" d="M280,149.6c-0.7-0.3-1.3-0.8-1.9-1.3c-0.6-0.5-1.2-1-1.6-1.6c0.7,0.3,1.3,0.8,1.9,1.3
		C279,148.5,279.5,149,280,149.6z"/>
	<path class="st11" d="M279.2,127.1c-0.6-0.1-1.2-0.4-1.6-0.8c-0.8-0.6-1.3-1.2-1.2-1.3c0.1-0.1,0.7,0.4,1.5,1
		C278.6,126.7,279.2,127,279.2,127.1z"/>
	<path class="st11" d="M266.8,165.8c0.1,0.1-0.5,0.5-1.2,0.9c-0.7,0.5-1.2,1-1.2,0.9c-0.1-0.1,0.3-0.7,1-1.2
		C266.1,165.9,266.8,165.6,266.8,165.8z"/>
	<path class="st11" d="M276,169.5c-0.6-1-1.1-2.2-1.2-3.4C275.4,167.1,275.8,168.3,276,169.5z"/>
	<path class="st11" d="M285.2,166.3c0.1,0.1-0.4,0.7-1.1,1.4c-0.6,0.7-1.2,1.2-1.3,1.1s0.4-0.7,1.1-1.4S285.1,166.2,285.2,166.3z"/>
	<path class="st11" d="M292.1,171.2c-0.1,0.1-0.7-0.4-1.6-0.5c-0.9-0.2-1.6,0-1.7-0.1c0.5-0.4,1.2-0.5,1.8-0.3
		C291.5,170.4,292.1,171.1,292.1,171.2z"/>
	<path class="st4" d="M295.8,174.5c0,0-52.1-10.9-57.1-8.5c-5,2.4-28.3,59.8-28.3,59.8l18.7,8l20.1-48.8c0,0,36.4,13.3,42.8,12
		C298.3,195.7,295.8,174.5,295.8,174.5z"/>
	<path class="st4" d="M272.5,177.6c-0.8,0.2-30.9,12.6-33,16.6c-2.1,3.9,3.1,70,3.1,70h17.1l-1.1-58.7l33.4-8.5L272.5,177.6z"/>
	<path class="st1" d="M292.2,197.2c-0.2,0-0.3,0-0.5-0.1l-1.4-0.2c-1.2-0.2-2.9-0.5-5.1-1c-4.3-0.9-10.3-2.2-16.8-4.2
		c-3.2-0.9-6.3-1.9-9.1-2.9c-2.7-0.9-5.3-1.9-7.3-2.8c-1-0.4-1.9-0.9-2.7-1.2c-0.8-0.4-1.5-0.7-2-0.9l-1.2-0.6
		c-0.2-0.1-0.3-0.2-0.5-0.2c0.2,0.1,0.3,0.1,0.5,0.2l1.3,0.5c0.5,0.2,1.2,0.5,2.1,0.9c0.8,0.3,1.7,0.8,2.8,1.2
		c2,0.9,4.5,1.7,7.3,2.7c2.8,0.9,5.8,1.9,9.1,2.9c6.5,1.9,12.4,3.2,16.7,4.3l5.1,1.2l1.4,0.3C291.9,197.1,292.1,197.2,292.2,197.2z"
		/>
	<path class="st1" d="M239.5,209.4c-0.1-0.3-0.2-0.6-0.2-1c-0.1-0.7-0.2-1.6-0.3-2.7c-0.2-1.1-0.2-2.6-0.4-4c-0.2-1.6-0.2-3.3,0-5
		c0.3-1.7,1.2-3.2,2.5-4.3c1-0.9,2.2-1.6,3.4-2.2c0.9-0.4,1.7-0.7,2.6-1c0.3-0.2,0.6-0.2,0.9-0.3c0,0.1-1.3,0.5-3.4,1.5
		c-1.2,0.5-2.3,1.3-3.3,2.2c-1.2,1.1-2,2.6-2.3,4.1c-0.2,1.6-0.2,3.2,0,4.9c0.1,1.5,0.2,2.9,0.3,4s0.2,2,0.2,2.7
		C239.5,208.7,239.5,209,239.5,209.4z"/>
	<path class="st1" d="M254.5,203.7c1.5,0.4,2.8,0.9,4,1.8C257.1,205.2,255.7,204.6,254.5,203.7z"/>
	<path class="st1" d="M256,201.9c0.5,0.6,0.9,1.2,1.4,1.9c0.8,1,1.5,1.8,1.5,1.9c-0.8-0.4-1.4-0.9-1.8-1.6
		C256.5,203.5,256.2,202.7,256,201.9z"/>
	<path class="st1" d="M262.6,204.6c0,0-0.1,0.2-0.2,0.3c-0.3,0.2-0.6,0.2-1,0.2c-0.5,0-0.9,0-1.4,0c-0.5,0.1-0.9,0.5-0.9,1.1
		c0.1,1.5,0,3.1-0.2,4.6c-0.2-1.5-0.2-3.1-0.2-4.6c0-0.4,0.2-0.7,0.3-1c0.2-0.2,0.5-0.4,0.9-0.5c0.5,0,1,0,1.5,0.1
		C261.7,204.9,262.2,204.8,262.6,204.6z"/>
	<polygon class="st12" points="258.5,165.7 293.9,168.6 292.5,164.6 258.8,164.1 	"/>
	<polygon class="st1" points="354.5,157.9 145.4,157.9 145.4,163.5 156.5,163.5 150.8,269.5 154,269.7 159.7,163.5 343,163.5 
		348,269.6 351.2,269.6 346.3,163.5 354.5,163.5 	"/>
	<polygon class="st1" points="206.4,125 218,158.8 270.5,158.8 270.1,157.1 248.8,156.4 239.1,125 	"/>
	<path class="st5" d="M229.6,140.8c0.3,1.4-0.2,2.8-1.3,3c-1.1,0.2-2.2-0.6-2.6-2c-0.3-1.4,0.2-2.7,1.3-3
		C228.1,138.6,229.3,139.5,229.6,140.8z"/>
</g>
</svg>
