<?xml version="1.0" encoding="utf-8"?>
<!-- Generator: Adobe Illustrator 23.0.1, SVG Export Plug-In . SVG Version: 6.00 Build 0)  -->
<svg version="1.1" id="Layer_1" xmlns="http://www.w3.org/2000/svg" xmlns:xlink="http://www.w3.org/1999/xlink" x="0px" y="0px"
	 viewBox="0 0 795 364" style="enable-background:new 0 0 795 364;" xml:space="preserve">
<g>
	<path d="M718,75v210H80V75H718 M748,45H50v270h698V45L748,45z"/>
</g>
<g>
	<path d="M178.26,112.03c7.91-4.25,16.96-6.38,27.13-6.38c11.83,0,22.54,2.92,32.13,8.75c9.58,5.84,17.16,14.13,22.75,24.88
		c5.58,10.75,8.38,23.21,8.38,37.38c0,14.17-2.79,26.71-8.38,37.63c-5.59,10.92-13.17,19.37-22.75,25.37c-9.59,6-20.29,9-32.13,9
		c-10.17,0-19.13-2.09-26.88-6.25s-14.04-9.41-18.88-15.75v85.75h-35V107.9h35v20C164.14,121.57,170.34,116.28,178.26,112.03z
		 M227.76,155.03c-3.42-6.08-7.92-10.71-13.5-13.88c-5.59-3.16-11.63-4.75-18.13-4.75c-6.34,0-12.29,1.63-17.88,4.88
		c-5.59,3.25-10.09,7.96-13.5,14.13c-3.42,6.17-5.13,13.42-5.13,21.75c0,8.34,1.71,15.59,5.13,21.75
		c3.41,6.17,7.91,10.88,13.5,14.13c5.58,3.25,11.54,4.88,17.88,4.88c6.5,0,12.54-1.66,18.13-5c5.58-3.33,10.08-8.08,13.5-14.25
		c3.41-6.16,5.13-13.5,5.13-22C232.89,168.32,231.18,161.11,227.76,155.03z"/>
	<path d="M293.51,139.4c5.58-10.83,13.16-19.16,22.75-25c9.58-5.83,20.29-8.75,32.13-8.75c10.33,0,19.38,2.09,27.13,6.25
		c7.75,4.17,13.96,9.42,18.63,15.75V107.9h35.25v138.5h-35.25v-20.25c-4.5,6.5-10.71,11.87-18.63,16.12
		c-7.92,4.25-17.04,6.38-27.38,6.38c-11.67,0-22.29-3-31.88-9c-9.59-6-17.17-14.46-22.75-25.37c-5.59-10.91-8.38-23.46-8.38-37.63
		C285.14,162.65,287.92,150.24,293.51,139.4z M389.14,155.28c-3.34-6.08-7.84-10.75-13.5-14c-5.67-3.25-11.75-4.88-18.25-4.88
		s-12.5,1.59-18,4.75c-5.5,3.17-9.96,7.79-13.38,13.88c-3.42,6.09-5.13,13.29-5.13,21.63c0,8.34,1.71,15.63,5.13,21.88
		c3.41,6.25,7.91,11.04,13.5,14.38c5.58,3.34,11.54,5,17.88,5c6.5,0,12.58-1.63,18.25-4.88c5.66-3.25,10.16-7.91,13.5-14
		c3.33-6.08,5-13.38,5-21.88S392.47,161.36,389.14,155.28z"/>
	<path d="M516.26,112.15c7.25-4.16,15.54-6.25,24.88-6.25v36.75h-9.25c-11,0-19.29,2.59-24.88,7.75c-5.59,5.17-8.38,14.17-8.38,27
		v69h-35V107.9h35v21.5C503.13,122.07,509.01,116.32,516.26,112.15z"/>
	<path d="M567.01,85.53c-4.09-3.91-6.13-8.79-6.13-14.63c0-5.83,2.04-10.71,6.13-14.63c4.08-3.91,9.21-5.88,15.38-5.88
		c6.16,0,11.29,1.96,15.38,5.88c4.08,3.92,6.13,8.79,6.13,14.63c0,5.84-2.04,10.71-6.13,14.63c-4.09,3.92-9.21,5.88-15.38,5.88
		C576.21,91.4,571.09,89.45,567.01,85.53z M599.63,107.9v138.5h-35V107.9H599.63z"/>
	<path d="M634.01,138.78c-4.09-3.91-6.13-8.79-6.13-14.63c0-5.83,2.04-10.71,6.13-14.63c4.08-3.91,9.29-5.88,15.63-5.88
		c6.16,0,11.25,1.96,15.25,5.88c4,3.92,6,8.79,6,14.63c0,5.84-2,10.71-6,14.63c-4,3.92-9.09,5.88-15.25,5.88
		C643.3,144.65,638.09,142.7,634.01,138.78z M634.01,242.28c-4.09-3.91-6.13-8.79-6.13-14.62c0-5.83,2.04-10.71,6.13-14.63
		c4.08-3.91,9.29-5.88,15.63-5.88c6.16,0,11.25,1.96,15.25,5.88c4,3.92,6,8.79,6,14.63c0,5.84-2,10.71-6,14.62
		c-4,3.92-9.09,5.88-15.25,5.88C643.3,248.15,638.09,246.2,634.01,242.28z"/>
</g>
</svg>
