<?xml version="1.0" encoding="utf-8"?>
<!-- Generator: Adobe Illustrator 23.0.1, SVG Export Plug-In . SVG Version: 6.00 Build 0)  -->
<svg version="1.1" id="Layer_1" xmlns="http://www.w3.org/2000/svg" xmlns:xlink="http://www.w3.org/1999/xlink" x="0px" y="0px"
	 viewBox="0 0 500 305" style="enable-background:new 0 0 500 305;" xml:space="preserve">
<style type="text/css">
	.st0{fill:#F5F5F5;}
	.st1{fill:#263238;}
	.st2{fill:#407BFF;}
	.st3{opacity:0.1;}
	.st4{fill:#455A64;}
	.st5{fill:#FFFFFF;}
	.st6{fill:#FFBE9D;}
	.st7{fill:#EB996E;}
	.st8{opacity:0.5;}
	.st9{opacity:0.4;}
	.st10{opacity:0.3;}
	.st11{fill:#FAFAFA;}
	.st12{opacity:0.3;enable-background:new    ;}
	.st13{fill:#E0E0E0;}
</style>
<g id="freepik--background-simple--inject-138">
	<path class="st13" d="M375.2,69.8l-1.6-2.8c-12.7-22.2-35.5-35.6-59.7-34.3c-3.4,0.2-6.8,0.7-10.2,1.4C281.4,39.2,262,57,254,79.9
		c-4.7,13.4-6,28.9-15,39.6c-11.6,13.9-31.5,14.3-48.8,13.7c-17.4-0.6-37.2-0.1-48.8,13.9c-7.3,8.7-9.6,21.1-9,32.8
		c1.5,31,21.9,58.6,47.7,72.5c25.9,13.8,56.3,15,84.7,8.9c39.7-8.5,77.4-31.8,100.1-67.8C387.5,157.5,393.3,108.6,375.2,69.8z"/>
	<ellipse class="st13" cx="182.2" cy="67.4" rx="35" ry="37.5"/>
</g>
<g id="freepik--Blackboard--inject-138">
	<rect x="161.7" y="80.8" class="st1" width="198" height="151.9"/>
	<rect x="166.4" y="86.9" class="st4" width="187.1" height="140"/>
	<path class="st1" d="M353.5,226.9c0-1.1-0.1-54.9-0.1-140l0.1,0.1H166.4l0,0l0.1-0.1c0,50.1,0,97.5,0,140l-0.1-0.1L353.5,226.9
		L166.4,227h-0.1v-0.1c0-42.4,0-90,0-140v-0.1h0.1h187.1h0.1v0.1C353.5,172,353.5,225.8,353.5,226.9z"/>
	<rect x="155.2" y="232.7" class="st1" width="215.3" height="6"/>
	<path class="st4" d="M365.4,232.7c0,0.1-38.2,0.1-85.2,0.1s-85.2-0.1-85.2-0.1s38.2-0.1,85.2-0.1S365.4,232.6,365.4,232.7z"/>
	<path class="st4" d="M167.1,86.6c-0.9-0.9-1.9-1.8-2.8-2.8c-0.9-0.9-1.8-1.9-2.6-2.9c1,0.8,2,1.7,2.8,2.6
		C165.5,84.5,166.4,85.5,167.1,86.6z"/>
	<path class="st4" d="M359.6,81.1c-0.9,1.2-1.8,2.2-2.9,3.2c-0.9,1.1-2,2.1-3.1,3c0.9-1.2,1.8-2.3,2.9-3.3
		C357.5,83,358.5,82,359.6,81.1z"/>
	<path class="st4" d="M360.3,232.5c-2.3-1.6-4.4-3.6-6.3-5.7c1.1,0.9,2.2,1.8,3.2,2.8C358.3,230.5,359.3,231.5,360.3,232.5z"/>
	<path class="st5" d="M326.7,160.2c0,0,0-0.1,0-0.1c0-0.1,0-0.3,0-0.5c0-0.4,0-1.1,0-1.9c0-1.7,0-4.1,0-7.1c0-6.2,0-14.9-0.1-25.4
		l0.1,0.1h-32.7l0,0l0.1-0.1c0,12.9,0,24.9,0,35.2l-0.1-0.1l23.7,0.1l6.7,0.1h1.7L326.7,160.2C326.7,160.2,326.7,160.2,326.7,160.2
		l-0.5-0.1h-1.7l-6.6,0.1l-23.8,0.1h-0.1v-0.1c0-10.2,0-22.3,0-35.2v-0.1h0.1h32.7h0.1v0.1c0,10.5-0.1,19.3-0.1,25.5
		c0,3.1,0,5.5,0,7.1c0,0.8,0,1.5,0,1.9c0,0.2,0,0.4,0,0.5C326.8,160.1,326.7,160.2,326.7,160.2z"/>
	<path class="st5" d="M326.7,160.2l0.2-0.2l0.7-0.5l2.9-2l10.6-7.1l-0.1,0.1c0-9.2,0-21.3,0-34.6l0.1,0.1h-0.1L309,116h0.1l-11,6.6
		l-3,1.8l-0.8,0.4L294,125l0.3-0.1l0.8-0.5l3-1.9l10.9-6.8l0,0l0,0l32.2-0.1h0.2v0.1c0,13.3,0,25.4-0.1,34.6v0.1l-0.1,0.1l-10.8,7
		l-2.9,1.9l-0.8,0.5C326.9,160.2,326.8,160.2,326.7,160.2z"/>
	<path class="st5" d="M341.3,116c0.1,0.1-3.2,2.2-7.2,4.7c-4.1,2.5-7.3,4.5-7.4,4.4c-0.1-0.1,3.2-2.2,7.2-4.7
		C338,117.9,341.3,115.8,341.3,116z"/>
	<path class="st5" d="M295.5,158.8c0.1,0.1-0.3,0.4-0.7,0.7c-0.4,0.3-0.8,0.4-0.9,0.4c-0.1-0.1,0.3-0.4,0.7-0.7
		S295.5,158.7,295.5,158.8z"/>
	<path class="st5" d="M298.6,156.9c0.1,0.1-0.3,0.4-0.7,0.7c-0.4,0.3-0.8,0.4-0.9,0.4c-0.1-0.1,0.3-0.4,0.7-0.7
		C298.2,157,298.6,156.8,298.6,156.9z"/>
	<path class="st5" d="M301.8,155c0.1,0.1-0.3,0.4-0.7,0.7c-0.4,0.3-0.8,0.4-0.9,0.4c-0.1-0.1,0.3-0.4,0.7-0.7
		C301.3,155,301.7,154.9,301.8,155z"/>
	<path class="st5" d="M304.9,153c0.1,0.1-0.3,0.4-0.7,0.7s-0.8,0.4-0.9,0.4c-0.1-0.1,0.3-0.4,0.7-0.7S304.8,153,304.9,153z"/>
	<path class="st5" d="M308,151.1c0.1,0.1-0.3,0.4-0.7,0.7c-0.4,0.3-0.8,0.4-0.9,0.4s0.3-0.4,0.7-0.7
		C307.6,151.2,307.9,151.1,308,151.1z"/>
	<path class="st5" d="M308.7,147.8c0.1,0,0.1,0.4,0.1,0.9s-0.1,0.9-0.1,0.9c-0.1,0-0.1-0.4-0.1-0.9S308.7,147.8,308.7,147.8z"/>
	<path class="st5" d="M308.7,144c0.1,0,0.1,0.4,0.1,0.9s-0.1,0.9-0.1,0.9c-0.1,0-0.1-0.4-0.1-0.9S308.7,144,308.7,144z"/>
	<path class="st5" d="M308.8,140.1c0.1,0,0.1,0.4,0.1,0.9s-0.1,0.9-0.1,0.9c-0.1,0-0.1-0.4-0.1-0.9S308.7,140.1,308.8,140.1z"/>
	<path class="st5" d="M308.8,136.2c0.1,0,0.1,0.4,0.1,0.9s-0.1,0.9-0.1,0.9c-0.1,0-0.1-0.4-0.1-0.9
		C308.7,136.7,308.7,136.2,308.8,136.2z"/>
	<path class="st5" d="M308.9,132.4c0.1,0,0.1,0.4,0.1,0.9s-0.1,0.9-0.1,0.9c-0.1,0-0.1-0.4-0.1-0.9
		C308.7,132.8,308.7,132.4,308.9,132.4z"/>
	<path class="st5" d="M308.9,128.5c0.1,0,0.1,0.4,0.1,0.9s-0.1,0.9-0.1,0.9c-0.1,0-0.1-0.4-0.1-0.9S308.8,128.5,308.9,128.5z"/>
	<path class="st5" d="M308.9,124.7c0.1,0,0.1,0.4,0.1,0.9s-0.1,0.9-0.1,0.9c-0.1,0-0.1-0.4-0.1-0.9S308.8,124.7,308.9,124.7z"/>
	<path class="st5" d="M309,120.8c0.1,0,0.1,0.4,0.1,0.9s-0.1,0.9-0.1,0.9c-0.1,0-0.1-0.4-0.1-0.9C308.8,121.3,308.9,120.8,309,120.8
		z"/>
	<path class="st5" d="M309,117c0.1,0,0.1,0.4,0.1,0.9s-0.1,0.9-0.1,0.9c-0.1,0-0.1-0.4-0.1-0.9C308.8,117.4,308.9,117,309,117z"/>
	<path class="st5" d="M339.6,150.6c0-0.1,0.4-0.1,0.9-0.1c0.5,0,0.9,0.1,0.9,0.1c0,0.1-0.4,0.1-0.9,0.1
		C339.9,150.7,339.6,150.6,339.6,150.6z"/>
	<path class="st5" d="M335.9,150.6c0-0.1,0.4-0.1,0.9-0.1s0.9,0.1,0.9,0.1c0,0.1-0.4,0.1-0.9,0.1S335.9,150.6,335.9,150.6z"/>
	<path class="st5" d="M332.4,150.6c0-0.1,0.4-0.1,0.9-0.1c0.5,0,0.9,0.1,0.9,0.1c0,0.1-0.4,0.1-0.9,0.1
		C332.7,150.7,332.4,150.6,332.4,150.6z"/>
	<path class="st5" d="M328.8,150.6c0-0.1,0.4-0.1,0.9-0.1c0.5,0,0.9,0.1,0.9,0.1c0,0.1-0.4,0.1-0.9,0.1
		C329.2,150.7,328.8,150.6,328.8,150.6z"/>
	<path class="st5" d="M325.2,150.6c0-0.1,0.4-0.1,0.9-0.1s0.9,0.1,0.9,0.1c0,0.1-0.4,0.1-0.9,0.1S325.2,150.6,325.2,150.6z"/>
	<path class="st5" d="M321.6,150.6c0-0.1,0.4-0.1,0.9-0.1c0.5,0,0.9,0.1,0.9,0.1c0,0.1-0.4,0.1-0.9,0.1
		C322,150.7,321.6,150.6,321.6,150.6z"/>
	<path class="st5" d="M318.1,150.6c0-0.1,0.4-0.1,0.9-0.1c0.5,0,0.9,0.1,0.9,0.1c0,0.1-0.4,0.1-0.9,0.1
		C318.4,150.7,318.1,150.6,318.1,150.6z"/>
	<path class="st5" d="M314.5,150.6c0-0.1,0.4-0.1,0.9-0.1s0.9,0.1,0.9,0.1c0,0.1-0.4,0.1-0.9,0.1S314.5,150.6,314.5,150.6z"/>
	<path class="st5" d="M310.9,150.6c0-0.1,0.4-0.1,0.9-0.1c0.5,0,0.9,0.1,0.9,0.1c0,0.1-0.4,0.1-0.9,0.1
		C311.3,150.7,310.9,150.6,310.9,150.6z"/>
	<path class="st5" d="M308.7,150.6c0-0.1,0.1-0.2,0.1-0.2c0.1,0,0.2,0.1,0.2,0.1c0,0.1-0.1,0.2-0.1,0.2c0,0,0,0-0.1,0
		S308.7,150.6,308.7,150.6z"/>
	<path class="st5" d="M345.3,138.9c0.3,0,0.6,0,0.8-0.1c0.7-0.1,1.3-0.7,1.7-1.4c0.4-1.1,0.4-2.3-0.1-3.3c-0.1-0.3-0.4-0.5-0.7-0.6
		c-0.3-0.1-0.6,0.1-0.8,0.2c-0.5,0.5-0.9,1.2-1,1.9c-0.3,0.8-0.4,1.6-0.4,2.4h-0.3c0-2.5-0.1-4.8-0.1-6.3c0-0.7,0-1.4,0-1.9
		c0-0.2,0-0.4,0.1-0.7c0.1,0.2,0.1,0.4,0.1,0.7c0,0.5,0.1,1.1,0.1,1.9c0.1,1.6,0.1,3.8,0.1,6.3h-0.3c0.1-0.9,0.2-1.7,0.5-2.5
		c0.1-0.4,0.3-0.7,0.4-1.1c0.1-0.4,0.4-0.7,0.7-0.9c0.3-0.2,0.7-0.4,1.1-0.3c0.4,0.1,0.7,0.4,0.8,0.7c0.6,1.1,0.6,2.5,0,3.6
		c-0.4,0.7-1.1,1.2-1.9,1.4c-0.2,0-0.4,0-0.7,0C345.4,138.9,345.3,138.9,345.3,138.9z"/>
	<path class="st5" d="M329.4,111.9c0,0,0,0.1-0.1,0.1c-0.1,0.1-0.2,0.2-0.3,0.3c-0.2,0.1-0.4,0.1-0.7,0.1c-0.3,0-0.6-0.1-0.8-0.4
		c-0.2-0.3-0.4-0.6-0.5-0.9c-0.1-0.4-0.3-0.8-0.4-1.2c-0.3-1-0.4-2-0.4-3.1h0.3c0.2,1.3,0.1,2.7-0.1,4c-0.1,0.8-0.6,1.5-1.2,2
		c-0.3,0.2-0.7,0.4-1.1,0.3s-0.7-0.4-0.9-0.7c-0.5-1.2-0.5-2.5,0.1-3.6c0.4-0.7,0.9-1.3,1.7-1.7c0.2-0.1,0.4-0.1,0.6-0.2
		c0.1,0,0.2-0.1,0.2,0s-0.3,0.1-0.8,0.4c-0.7,0.4-1.2,0.9-1.5,1.7c-0.2,0.5-0.4,1-0.4,1.6c-0.1,0.7,0.1,1.2,0.4,1.8
		c0.1,0.3,0.4,0.4,0.7,0.5c0.3,0.1,0.6,0,0.9-0.2c0.5-0.5,0.9-1.2,1-1.9c0.2-1.3,0.3-2.6,0.1-3.9h0.3c0,1,0.1,2,0.4,3
		c0.1,0.4,0.2,0.9,0.4,1.2c0.1,0.4,0.2,0.7,0.4,0.9c0.4,0.4,0.8,0.4,1.2,0.3C329.2,112.2,329.3,112,329.4,111.9z"/>
	<path class="st5" d="M274.4,151.1c0,0,0,0.1,0,0.2l0.1,0.6c0.1,0.5,0.1,1.2,0.1,2.2c0.1,1.9,0.4,4.7,0.4,8.1c0.1,4-0.4,8-1.2,11.8
		c-0.6,2.3-1.4,4.5-2.4,6.6c-1.2,2.3-2.5,4.3-4.3,6c-1.7,1.8-3.5,3.6-4.9,5.4c-1.5,1.7-2.5,3.8-3.4,6c-1.4,3.7-2.1,7.6-2.2,11.6
		c-0.1,3.4,0,6.1,0.1,8.1c0.1,0.9,0.1,1.7,0.1,2.2c0,0.2,0,0.4,0,0.6c0,0.1,0,0.1,0,0.2c0-0.1,0-0.1,0-0.2c0-0.1,0-0.4-0.1-0.6
		c0-0.5-0.1-1.2-0.1-2.2c-0.1-1.9-0.3-4.7-0.1-8.1c0.1-4,0.8-8,2.2-11.7c0.8-2.2,2-4.2,3.4-6c1.5-1.9,3.3-3.6,4.9-5.4
		c1.7-1.7,3.1-3.8,4.2-6c1-2,1.8-4.2,2.4-6.5c0.9-3.9,1.4-7.8,1.3-11.8c0-3.4-0.1-6.1-0.3-8.1c-0.1-0.9-0.1-1.7-0.1-2.2
		c0-0.2,0-0.4,0-0.6C274.4,151.3,274.4,151.2,274.4,151.1z"/>
	<path class="st5" d="M267.7,162.1c-0.3-0.6-0.5-1.1-0.7-1.7c-0.4-1.1-1-2.5-1.6-4.2l-0.1-0.3h0.3c-0.7,1.2-1.2,2.6-1.5,4
		c-0.3,1.1-0.4,1.7-0.4,1.7c0-0.6,0.1-1.2,0.2-1.7c0.3-1.5,0.8-2.8,1.5-4.1l0.1-0.3l0.1,0.4c0,0.1,0.1,0.1,0.1,0.3
		c0.6,1.7,1.2,3.2,1.5,4.3C267.4,160.9,267.5,161.5,267.7,162.1z"/>
	<path class="st5" d="M264.6,222.8c-0.1,0,0.1-15,0.4-33.5s0.6-33.5,0.7-33.5c0.1,0-0.1,15-0.4,33.5
		C265.1,207.8,264.7,222.8,264.6,222.8z"/>
	<path class="st5" d="M277.9,188.1c0,0.1-4.9,0.1-10.9,0.1s-10.9-0.1-10.9-0.1c0-0.1,4.9-0.1,10.9-0.1
		C273,187.9,277.9,188.1,277.9,188.1z"/>
	<path class="st5" d="M275.5,190.7c0.5-0.4,1.1-0.6,1.6-0.9c1-0.5,2.5-1.2,4-1.9v0.3l-0.1-0.1c-1.7-0.6-3.2-1.2-4.3-1.6
		c-0.6-0.2-1.2-0.4-1.7-0.7c0.6,0.1,1.2,0.3,1.8,0.5c1.1,0.4,2.6,0.9,4.3,1.5l0.2,0.1l0.4,0.1l-0.4,0.1c-1.6,0.7-3.1,1.3-4.1,1.7
		C276.6,190.3,276,190.5,275.5,190.7z"/>
	<path class="st5" d="M277.9,183.5c0,0,0,0.1-0.1,0.2l-0.4,0.4l0.3-0.5c0.2-0.4,0.7-1.3,1.4-2.3c0.5-0.9,1.1-1.7,1.7-2.4
		c-0.4,0.9-0.9,1.7-1.5,2.5c-0.7,1-1.2,1.8-1.5,2.2l-0.1-0.1C277.9,183.6,277.9,183.5,277.9,183.5z"/>
	<path class="st5" d="M281.7,183.1c-0.7-0.6-1.4-1.2-2-2c-0.7-0.7-1.2-1.4-1.7-2.2c0.7,0.6,1.4,1.2,2,2
		C280.6,181.5,281.2,182.3,281.7,183.1z"/>
	<path class="st5" d="M261.9,182.2c0,0,0.1-0.1,0.4-0.1c0.4,0.1,0.8,0.5,0.9,1c0.1,0.7-0.1,1.4-0.4,2c-0.1,0.4-0.4,0.7-0.7,1
		c-0.6,0.5-1.5,0.4-1.9-0.1c-0.1-0.1-0.2-0.3-0.2-0.5c-0.1-0.4-0.1-0.8-0.1-1.2c0.1-0.7,0.4-1.3,0.9-1.8c0.4-0.3,0.8-0.4,1.2-0.4
		c0.3,0.1,0.4,0.2,0.4,0.2s-0.1-0.1-0.4-0.1c-0.4,0-0.8,0.1-1.1,0.4c-0.4,0.4-0.7,1-0.7,1.7c-0.1,0.4,0,0.7,0.1,1.1
		c0.1,0.4,0.4,0.6,0.7,0.7c0.4,0.1,0.7,0,0.9-0.2c0.3-0.2,0.4-0.5,0.6-0.9c0.3-0.6,0.4-1.2,0.4-1.8c-0.1-0.4-0.3-0.8-0.7-0.9
		C262.2,182.2,262,182.1,261.9,182.2z"/>
	<path class="st5" d="M258.9,160.4c-0.1,0.1-0.5-0.5-1-1.2c-0.4-0.4-0.6-0.9-0.8-1.5c0.1-0.1,0.5,0.5,1,1.2
		C258.5,159.4,258.7,159.9,258.9,160.4z"/>
	<path class="st5" d="M257.6,163.8c0.2-1.2,0.6-2.3,1-3.4c0.4-1.2,0.8-2.3,1.3-3.3c-0.2,1.2-0.6,2.3-1,3.4
		C258.5,161.6,258.1,162.7,257.6,163.8z"/>
	<path class="st5" d="M292.9,189.4c-1.2-1.1-2.3-2.4-3.1-3.8C290.9,186.8,292,188.1,292.9,189.4z"/>
	<path class="st5" d="M292.2,194.8c0-0.5,0.1-1,0.3-1.5c0.2-0.9,0.6-2.2,1-3.5c0.4-1.4,0.9-2.5,1.3-3.4c0.1-0.5,0.4-0.9,0.7-1.4
		c-0.1,0.5-0.3,0.9-0.4,1.5c-0.3,0.9-0.7,2.1-1.2,3.4s-0.8,2.5-1.1,3.5C292.5,193.8,292.4,194.3,292.2,194.8z"/>
	<path class="st5" d="M303.4,187.8c-1.6,0.2-3.3,0.2-4.9,0C300.1,187.6,301.7,187.6,303.4,187.8z"/>
	<path class="st5" d="M303.9,192.1c-1.9,0.2-3.8,0.2-5.7,0C300.1,191.8,302.1,191.8,303.9,192.1z"/>
	<path class="st5" d="M311.6,194.1c-1.7-1.7-3.3-3.7-4.7-5.7c0.9,0.9,1.7,1.7,2.4,2.8C310.2,192.1,310.9,193.1,311.6,194.1z"/>
	<path class="st5" d="M311.2,187.6c-0.1,0.4-0.4,0.9-0.7,1.3l-1.7,3.1l-1.7,3.1c-0.2,0.4-0.4,0.9-0.7,1.3c0.1-0.5,0.3-0.9,0.6-1.4
		c0.4-0.8,0.9-1.9,1.6-3.1c0.7-1.2,1.3-2.3,1.8-3.1C310.6,188.4,310.9,187.9,311.2,187.6z"/>
	<path class="st5" d="M315.9,185.8c0,0.1-1.5-0.2-3.6-0.1h-0.3l0.1-0.2c0.5-0.9,1.1-1.9,1.7-2.9c0.5-0.9,1.2-1.7,0.9-2.5
		c-0.1-0.4-0.4-0.7-0.7-0.7c-0.3-0.1-0.7,0-0.9,0.1c-0.4,0.3-0.7,0.7-0.9,1.1c-0.1,0.1-0.2,0.4-0.3,0.5c0.1-0.2,0.1-0.4,0.2-0.5
		c0.2-0.5,0.6-0.9,0.9-1.2c0.3-0.2,0.7-0.3,1.1-0.2c0.4,0.1,0.8,0.4,0.9,0.9c0.1,0.5,0,1-0.2,1.5c-0.2,0.4-0.5,0.9-0.7,1.3l-1.8,2.9
		l-0.1-0.2c0.9,0,1.7,0,2.6,0.1C315.2,185.6,315.5,185.7,315.9,185.8z"/>
	<path class="st5" d="M330.9,180.9c0,0,0.2,0.1,0.6,0.3c0.6,0.2,1.2,0.2,1.7,0c0.8-0.4,1.3-1.2,1.2-2.2c-0.1-0.5-0.4-1-0.8-1.3
		c-0.4-0.3-1-0.4-1.5-0.1l-0.1-0.3l0.2-0.1c0.6-0.1,1.1-0.4,1.5-0.9c0.4-0.4,0.6-0.9,0.5-1.5c-0.1-0.5-0.4-0.9-0.9-1.1
		c-0.4-0.1-0.8-0.2-1.2-0.1c-0.6,0.2-1.1,0.6-1.5,1.1c-0.3,0.4-0.4,0.7-0.4,0.6c0.1-0.2,0.1-0.5,0.3-0.7c0.4-0.6,0.9-1.1,1.5-1.3
		c0.4-0.1,0.9-0.1,1.4,0.1c0.9,0.4,1.3,1.4,0.9,2.3c-0.1,0.3-0.3,0.6-0.5,0.7c-0.4,0.4-1,0.7-1.6,0.9l-0.2,0.1l-0.1-0.3
		c1-0.4,2.2,0.1,2.6,1.2c0.1,0.1,0.1,0.4,0.1,0.5c0.1,1.1-0.5,2.1-1.5,2.5c-0.6,0.2-1.3,0.1-1.9-0.1c-0.1-0.1-0.3-0.1-0.4-0.3
		C331,180.9,330.9,180.9,330.9,180.9z"/>
	<path class="st5" d="M340,173.1c0.1-0.1,0.1-0.1,0.2-0.1c0.3,0,0.5,0.1,0.7,0.4c0.1,0.1,0.2,0.4,0.2,0.6c0,0.2-0.1,0.5-0.1,0.7
		c-0.3,0.5-0.7,0.9-1.1,1.3c-0.5,0.4-1,0.9-1.5,1.3c-0.7,0.4-1,1-1.1,1.7c0.1,0.8,0.6,1.5,1.3,1.8c0.8,0.3,1.7,0.1,2.3-0.4
		c0.4-0.2,0.6-0.6,0.7-1c0.1-0.4-0.1-0.9-0.3-1.2c-0.5-0.7-1.2-1.1-2-1.3s-1.4-0.6-2-1.2c-0.2-0.3-0.4-0.6-0.5-0.9
		c-0.1-0.4-0.1-0.7,0.1-1c0.2-0.5,0.7-0.9,1.2-1.2c0.4-0.1,0.8-0.3,1.2-0.3c0.4,0,0.6-0.1,0.7-0.1c0.1,0,0.1,0,0.3,0
		c0,0-0.4,0.1-1,0.1c-0.4,0.1-0.7,0.1-1.1,0.4c-0.4,0.2-0.8,0.7-1,1.2c-0.2,0.6-0.1,1.3,0.4,1.7c0.5,0.5,1.2,0.9,1.9,1.1
		c0.8,0.2,1.6,0.7,2.1,1.4c0.3,0.4,0.4,0.9,0.4,1.4c-0.1,0.5-0.4,1-0.8,1.3c-0.8,0.6-1.7,0.7-2.7,0.4c-0.4-0.1-0.8-0.4-1.1-0.8
		c-0.3-0.4-0.4-0.8-0.4-1.3c0-0.4,0.1-0.9,0.4-1.2c0.2-0.3,0.5-0.6,0.8-0.8c0.5-0.4,1-0.8,1.5-1.2c0.4-0.4,0.8-0.7,1.1-1.2
		c0.2-0.4,0.2-0.8,0.1-1.1C340.5,173.4,340.3,173.2,340,173.1C340.1,173,340.1,173,340,173.1z"/>
	<path class="st5" d="M346,178.2c-0.4,0.1-0.7,0.2-1,0.2l-1.2,0.1c-0.2,0.1-0.4,0.1-0.7,0.1c-0.1,0-0.3-0.1-0.4-0.1
		c-0.1-0.1-0.2-0.3-0.3-0.4c0-0.3,0.1-0.6,0.2-0.9c0.1-0.2,0.2-0.4,0.3-0.7l0.5-1.1c0.1-0.4,0.3-0.7,0.5-1c-0.1,0.4-0.1,0.7-0.3,1.1
		c-0.1,0.4-0.3,0.7-0.4,1.2c-0.1,0.2-0.1,0.4-0.3,0.7c-0.1,0.2-0.1,0.4-0.1,0.7c0,0.2,0.1,0.3,0.4,0.3s0.4,0,0.7-0.1l1.2-0.1
		C345.3,178.1,345.7,178.1,346,178.2z"/>
	<path class="st5" d="M346.6,181.7c-0.2-1.3-0.4-2.7-0.4-4.1c-0.1-1.4-0.2-2.7-0.1-4.1c0.2,1.3,0.4,2.7,0.4,4.1
		C346.6,178.9,346.6,180.3,346.6,181.7z"/>
	<path class="st5" d="M334,193.7c0,0,0.1,0.3,0.1,0.7h-0.1c-0.1-1.1-0.2-2.4-0.4-3.9c-0.2-2.5-0.5-4.5-0.4-4.5
		c0.1,0.4,0.3,0.9,0.3,1.3c0.1,0.8,0.3,1.9,0.4,3.2c0.1,1.3,0.2,2.5,0.2,3.9h-0.1C333.9,194.2,333.9,194,334,193.7z"/>
	<path class="st5" d="M340.9,185.4c-1.2,0.6-2.5,1-3.9,1.2c0.6-0.4,1.2-0.6,1.9-0.7C339.5,185.6,340.1,185.4,340.9,185.4z"/>
	<path class="st5" d="M336.8,192.9c0.1,0,0.3,0.1,0.5,0.1c0.4,0.1,0.9,0,1.3-0.1c0.6-0.2,1.1-0.7,1.5-1.3c0.1-0.4,0.3-0.7,0.2-1.2
		c0-0.4-0.2-0.8-0.5-1c-0.4-0.3-0.8-0.4-1.2-0.1c-0.4,0.1-0.8,0.4-1.1,0.7l-0.2,0.1v-0.3c-0.1-0.9-0.1-1.8,0-2.7
		c0-0.4,0.1-0.7,0.1-1c0.1,0-0.1,1.5,0.1,3.7l-0.2-0.1c0.4-0.3,0.7-0.6,1.2-0.7c0.5-0.2,1.1-0.1,1.5,0.1c0.4,0.3,0.6,0.8,0.6,1.3
		c0,0.4-0.1,0.9-0.3,1.3c-0.4,0.7-0.9,1.2-1.6,1.4c-0.4,0.1-0.9,0.1-1.4,0C336.9,193.1,336.8,192.9,336.8,192.9z"/>
	<path class="st5" d="M328.4,185.7c0,0.1-0.6,0.1-1.2,0.1c-0.7,0-1.2-0.1-1.2-0.1C326.7,185.5,327.6,185.5,328.4,185.7z"/>
	<path class="st5" d="M191.6,188.6c-0.1,0-0.1-14-0.1-31.3s0.1-31.3,0.1-31.3c0.1,0,0.1,14,0.1,31.3S191.7,188.6,191.6,188.6z"/>
	<path class="st5" d="M193.3,126.7c-0.7-1.2-1.4-2.4-2-3.6h0.3v0.1c-0.4,1.4-1,2.6-1.7,3.9c0.4-1.4,0.9-2.7,1.4-4v-0.1l0.1-0.3
		l0.1,0.3C192.3,124,192.9,125.3,193.3,126.7z"/>
	<path class="st5" d="M191.3,118.7c-0.1,0.1-0.5-0.3-0.9-0.9c-0.4-0.7-0.5-1.2-0.4-1.2c0.1,0,0.3,0.5,0.7,1.1
		C191,118.2,191.3,118.7,191.3,118.7z"/>
	<path class="st5" d="M190.4,120.5c0.1-0.8,0.4-1.5,0.7-2.3c0.2-0.7,0.5-1.5,0.9-2.2c-0.1,0.8-0.2,1.6-0.6,2.3
		C191.2,119.2,190.8,119.9,190.4,120.5z"/>
	<path class="st5" d="M187.5,134.3c0.2-0.7,0.4-1.2,0.5-1.9c0.1-0.7,0.1-1.3,0.1-2C188.5,131.7,188.3,133.3,187.5,134.3L187.5,134.3
		z"/>
	<path class="st5" d="M188,131.7c0,0-0.1,0.3-0.4,0.4c-0.4,0.1-0.9-0.2-1-0.7s0.2-1,0.7-1.1c0.1,0,0.2,0,0.3,0
		c0.4,0.1,0.5,0.3,0.4,0.3c0,0-0.2-0.1-0.5-0.1c-0.4,0-0.7,0.4-0.6,0.7c0,0.4,0.3,0.7,0.7,0.7C187.8,131.8,188,131.7,188,131.7z"/>
	<path class="st5" d="M236.9,184.1c0,0.1-11.1,0.1-24.9,0.1s-24.9-0.1-24.9-0.1c0-0.1,11.1-0.1,24.9-0.1S236.9,184.1,236.9,184.1z"
		/>
	<path class="st5" d="M237.5,184.1c-0.7-0.1-1.4-0.4-2-0.7c-0.7-0.2-1.3-0.6-2-1C234.8,182.8,236.1,183.3,237.5,184.1L237.5,184.1z"
		/>
	<path class="st5" d="M238,184.3c-0.5,0.4-1.1,0.7-1.7,0.8c-0.6,0.3-1.2,0.4-1.7,0.5C235.6,184.9,236.8,184.5,238,184.3z"/>
	<path class="st5" d="M189.3,185.9c0.4,0.3,0.6,0.7,0.7,1.1c0.1,0.5,0.1,1-0.1,1.5c-0.1,0.3-0.3,0.5-0.5,0.7
		c-0.3,0.2-0.7,0.2-0.9,0.1c-0.5-0.4-0.7-1-0.7-1.6c0-0.5,0.2-1,0.6-1.4c0.2-0.2,0.6-0.3,0.9-0.3c0.2,0,0.3,0.1,0.3,0.1
		c0,0-0.1,0-0.3,0c-0.3,0-0.5,0.1-0.7,0.4c-0.3,0.3-0.4,0.7-0.4,1.2c0,0.5,0.2,1,0.6,1.4c0.1,0.1,0.4,0.1,0.6,0
		c0.2-0.1,0.3-0.4,0.4-0.6c0.1-0.4,0.2-0.9,0.1-1.3C189.6,186.6,189.5,186.2,189.3,185.9z"/>
	<path class="st5" d="M229.8,186.6c0,0,0.1-0.1,0.4,0.1c0.1,0.1,0.2,0.4,0.2,0.5c0,0.3-0.1,0.5-0.3,0.7c-0.4,0.4-1,0.6-1.3,1.1
		c-0.1,0.3-0.1,0.6,0,0.9s0.4,0.4,0.7,0.4c0.3-0.1,0.6-0.3,0.7-0.6c0.1-0.3,0-0.7-0.1-0.9c-0.1-0.2-0.4-0.4-0.7-0.6
		c-0.3-0.1-0.5-0.4-0.6-0.7c-0.1-0.3,0-0.5,0.1-0.7c0.1-0.1,0.3-0.3,0.4-0.3c0.1-0.1,0.3-0.1,0.4-0.1c0,0-0.1,0.1-0.4,0.2
		c-0.1,0.1-0.2,0.2-0.4,0.3c-0.1,0.1-0.1,0.4-0.1,0.6c0.1,0.4,0.8,0.5,1.2,1.1c0.3,0.3,0.4,0.7,0.2,1.2c-0.1,0.4-0.5,0.7-0.9,0.8
		c-0.4,0.1-0.9-0.1-1-0.6c-0.2-0.4-0.2-0.8,0-1.2c0.2-0.3,0.4-0.5,0.7-0.7c0.2-0.1,0.4-0.3,0.7-0.4c0.1-0.1,0.2-0.3,0.3-0.5
		c0-0.1,0-0.3-0.1-0.4C230,186.5,229.8,186.6,229.8,186.6z"/>
	<path class="st5" d="M229.7,185.3c-0.2-0.9-0.2-2,0-3C229.9,183.3,229.9,184.4,229.7,185.3z"/>
	<path class="st5" d="M243,184.3c-0.3,0.1-0.6,0.1-0.9,0.1l-0.9,0.1c-0.1,0-0.1,0-0.2-0.1c-0.1-0.1-0.1-0.2-0.1-0.3
		c0-0.1,0.1-0.2,0.2-0.3l0.4-0.4c0.3-0.2,0.4-0.6,0.5-0.9c0-0.3-0.1-0.6-0.4-0.7c-0.2,0-0.4,0-0.5,0.1c-0.1,0.1-0.2,0.1-0.2,0.1
		s0.1-0.1,0.1-0.2c0.1-0.1,0.4-0.2,0.7-0.2c0.4,0.1,0.7,0.4,0.7,0.9s-0.2,0.9-0.6,1.2l-0.4,0.4c-0.1,0.1-0.1,0.1-0.1,0.1h-0.1l0,0
		c0,0,0,0,0-0.1h0.1h0.9C242.4,184.1,242.7,184.1,243,184.3z"/>
	<path class="st5" d="M198.3,184.1c0-0.3-0.1-0.6-0.1-0.9c0-0.7,0-1.5-0.1-2.5c0-2.1-0.1-4.9-0.1-8.2l0.1,0.1h-2.9
		c0.3-0.4,0.1-0.1,0.1-0.1l0,0v0.9c0,0.3,0,0.6,0,0.9v1.7c0,1.1,0,2.2,0,3.1c0,2,0,3.7-0.1,5l-0.1-0.1l2.1,0.1
		C198,184.1,198.3,184.1,198.3,184.1c-0.2,0-0.4,0-0.7,0l-2.2,0.1h-0.1v-0.1c0-1.4,0-3.1-0.1-5c0-1,0-2,0-3.1v-3.4l0,0
		c0.1-0.1-0.1,0.1,0.1-0.1h3.1v0.1c0,3.3,0,6.3-0.1,8.4c0,1,0,1.8-0.1,2.4C198.3,183.6,198.3,183.9,198.3,184.1z"/>
	<path class="st5" d="M225.8,184.2c0-0.1,0-0.2,0-0.4c0-0.3,0-0.6,0-0.9c0-0.9,0-2.1-0.1-3.6c0-3.1-0.1-7.3-0.1-12l0.1,0.1h-2.9
		c0.3-0.4,0.1-0.1,0.1-0.1l0,0v5.2c0,1.7,0,3.2,0,4.7c0,2.9-0.1,5.3-0.1,7.1l-0.1-0.1l2.1,0.1h0.6L225.8,184.2
		c0.1-0.1-0.2-0.1-0.7,0l-2.2,0.1h-0.1v-0.1c0-1.8,0-4.2-0.1-7.1c0-1.5,0-3.1,0-4.7v-2.5c0-0.4,0-0.9,0-1.3v-1.3l0,0l0.1-0.1h3.1
		v0.1c0,4.9,0,9.1-0.1,12.1c0,1.5,0,2.7-0.1,3.6c0,0.4,0,0.7,0,0.9C225.8,183.9,225.8,184.1,225.8,184.2z"/>
	<path class="st5" d="M205.2,184.1c0-0.1,0-0.3,0-0.4c0-0.3,0-0.7,0-1.2c0-1.1,0-2.6-0.1-4.5c0-3.8,0-9.1-0.1-15l0.1,0.1h-2.9
		c0.3-0.4,0.1-0.1,0.1-0.1l0,0v3.3c0,1.1,0,2.2,0,3.2c0,2.1,0,4.1,0,5.9c0,3.6-0.1,6.6-0.1,8.6l-0.1-0.1l2.1,0.1h0.6L205.2,184.1
		C205.2,184.1,205.1,184.1,205.2,184.1l-0.7-0.1l-2.2,0.1h-0.1v-0.1c0-2,0-5-0.1-8.6c0-1.8,0-3.8,0-5.9c0-1,0-2.1,0-3.2V163l0,0
		c0.1-0.1-0.1,0.1,0.1-0.1h3.1v0.1c0,6-0.1,11.3-0.1,15.1c0,1.9,0,3.3-0.1,4.4c0,0.5,0,0.9,0,1.2C205.3,183.9,205.3,184,205.2,184.1
		z"/>
	<path class="st5" d="M212,184.1c0-0.1,0-0.1,0-0.1c0-0.1,0-0.3,0-0.5c0-0.4,0-1.1,0-1.9c0-1.7,0-4-0.1-7c0-5.9-0.1-14-0.1-23.2
		l0.1,0.1h-2.9c0.3-0.4,0.1-0.1,0.1-0.1v2.8c0,0.9,0,1.8,0,2.7v5.2c0,3.3,0,6.4,0,9.2c0,5.7-0.1,10.2-0.1,12.9l-0.1-0.1l2.1,0.1h0.6
		L212,184.1L212,184.1h-0.7l-2.2,0.1h-0.1v-0.1c0-2.8,0-7.3-0.1-12.9c0-2.8,0-6,0-9.2c0-1.7,0-3.3,0-5.2v-5.4
		c0.1-0.1-0.1,0.1,0.1-0.1h3.1v0.1c0,9.2-0.1,17.4-0.1,23.3c0,2.9,0,5.3-0.1,6.9c0,0.8,0,1.4,0,1.9
		C212.1,183.8,212.1,183.9,212,184.1C212.2,184.1,212,184.1,212,184.1z"/>
	<path class="st5" d="M219,184.1c0,0,0-0.1,0-0.3s0-0.5,0-0.9c0-0.7,0-1.8,0-3.2c0-2.8,0-6.8-0.1-11.8c0-10,0-23.7-0.1-39.1l0.1,0.1
		h-2.9c0.3-0.4,0.1-0.1,0.1-0.1v9.5c0,3.1,0,6.1,0,9c0,5.8,0,11.2,0,16c0,9.6-0.1,16.9-0.1,20.6l-0.1-0.1h2.2h0.5L219,184.1
		C219,184.1,218.9,184.1,219,184.1l-0.6-0.1h-2.2h-0.1V184c0-3.7-0.1-11-0.1-20.6c0-4.8,0-10.2,0-16c0-2.9,0-5.9,0-9v-9.4
		c0.1-0.1-0.1,0.1,0.1-0.1h2.9v0.1c0,15.4-0.1,29.2-0.1,39.2c0,4.9,0,8.9-0.1,11.8c0,1.4,0,2.4,0,3.2v0.8
		C219,183.9,219,184,219,184.1z"/>
	<path class="st5" d="M267.5,103.3l0.3,0.1c0.2,0.1,0.5,0.1,0.9,0.4c1.2,0.5,2.3,1.1,3.3,1.9c1.7,1.2,3.1,2.6,4.4,4.3
		c1.7,2.3,2.8,4.9,3.3,7.6c0.6,3.4,0.1,6.9-1.2,10.1c-0.7,1.7-1.7,3.3-3.1,4.7c-0.7,0.7-1.4,1.3-2.2,1.9c-0.4,0.3-0.8,0.5-1.2,0.7
		s-0.9,0.4-1.3,0.7c-3.6,1.5-7.8,1.6-12,1.2c-2.1-0.2-4.1-0.5-6.3-0.9c-2.2-0.4-4.4-0.9-6.4-1.6c-2.1-0.7-4.1-1.9-5.7-3.5
		c-0.8-0.8-1.5-1.7-2.1-2.7c-0.6-0.9-1-2-1.3-3.1c-0.7-2.1-0.8-4.4-0.6-6.6c0.2-2.1,0.8-4.2,1.7-6.1c1.8-3.5,4.5-6.3,7.8-8.2
		c2.8-1.6,5.9-2.7,9.1-3.1c2.6-0.4,5.2-0.4,7.8-0.1c2,0.2,3.9,0.6,5.9,1c1.6,0.4,2.8,0.7,3.6,0.9l0.9,0.3l0.3,0.1c0,0-0.1,0-0.3-0.1
		l-0.9-0.3c-0.8-0.2-2-0.6-3.6-0.9c-2-0.4-3.9-0.8-5.9-0.9c-2.6-0.3-5.2-0.2-7.8,0.1c-3.1,0.4-6.2,1.5-9,3.1
		c-3.2,1.8-5.9,4.7-7.6,8.1c-0.9,1.9-1.5,3.9-1.7,6c-0.2,2.2,0,4.4,0.6,6.5c0.3,1.1,0.7,2.1,1.3,3.1c0.6,0.9,1.2,1.8,2,2.6
		c1.7,1.5,3.6,2.7,5.7,3.4c2.1,0.7,4.2,1.2,6.3,1.5c2.1,0.4,4.2,0.7,6.3,0.9c4.1,0.4,8.3,0.4,11.8-1.2c3.4-1.4,6.2-4.2,7.6-7.8
		c1.3-3.1,1.7-6.5,1.2-9.9c-0.5-2.8-1.6-5.4-3.2-7.6c-1.2-1.7-2.7-3.1-4.3-4.3c-1-0.7-2.1-1.4-3.3-1.9c-0.4-0.1-0.7-0.3-0.9-0.4
		C267.5,103.3,267.5,103.3,267.5,103.3z"/>
	<path class="st5" d="M246.6,125c-0.2,0.1-0.4,0.1-0.7,0.1c-0.4,0-1,0.1-1.7,0.1h-0.6c-0.2,0-0.4,0-0.7,0c-0.1-0.1-0.3-0.1-0.4-0.3
		c-0.1-0.1-0.1-0.3-0.1-0.4l-0.1-0.8c-0.1-1-0.1-2.2-0.2-3.4c-0.1-1.2-0.1-2.3-0.1-3.4c0-0.5,0.1-1,0.4-1.5c0.2-0.4,0.6-0.7,0.9-0.9
		c0.6-0.2,1.2-0.3,1.7-0.2c0.2,0,0.4,0.1,0.7,0.1c-0.2,0-0.4,0-0.7,0c-0.6,0-1.2,0.1-1.7,0.3c-0.4,0.1-0.7,0.4-0.8,0.8
		c-0.2,0.4-0.3,0.9-0.3,1.4c0,1,0.1,2.2,0.1,3.3c0.1,1.2,0.1,2.3,0.1,3.4c0.1,0.5-0.1,1.1,0.3,1.2c0.2,0.1,0.4,0.1,0.6,0.1h0.6
		c0.7,0,1.3,0,1.7,0C246.2,124.9,246.4,124.9,246.6,125z"/>
	<path class="st5" d="M245.7,119.5c-0.5,0.1-1.1,0.2-1.6,0.2c-0.6,0.1-1.1,0-1.6-0.1c0.5-0.1,1.1-0.2,1.6-0.2
		C244.6,119.2,245.2,119.3,245.7,119.5z"/>
	<path class="st5" d="M253.9,117.9c-0.8,0.1-1.7,0.1-2.5,0.1c-0.8,0.1-1.7,0.1-2.5,0c0.8-0.3,1.6-0.4,2.5-0.4
		C252.2,117.6,253.1,117.7,253.9,117.9z"/>
	<path class="st5" d="M254.3,121.9c-0.8,0.2-1.6,0.3-2.5,0.1c-0.8,0-1.7-0.1-2.4-0.3c0.8-0.1,1.6-0.1,2.5,0
		C252.7,121.8,253.5,121.8,254.3,121.9z"/>
	<path class="st5" d="M267.5,124.3c0,0,0-0.4,0-1c-0.1-0.9-0.2-1.9-0.4-2.8c-0.1-0.7-0.4-1.2-0.9-1.6c-0.3-0.1-0.6-0.1-0.9,0.1
		c-0.3,0.2-0.5,0.5-0.7,0.9c-0.7,1.5-0.8,3.3-0.8,5.2h-0.3c0.1-1.3,0.1-2.5-0.1-3.9c-0.1-0.5-0.1-1-0.2-1.5
		c-0.1-0.5-0.3-0.9-0.7-1.2c-0.4-0.3-0.8-0.3-1.2,0c-0.4,0.2-0.6,0.7-0.7,1.1c-0.1,0.4-0.2,0.9-0.2,1.3c-0.1,0.4-0.1,0.9-0.1,1.3
		c-0.1,0.8-0.1,1.6,0,2.4h-0.2c-0.1-1.9-0.1-3.4-0.1-4.6c0-0.5,0-0.9,0-1.2c0-0.1,0-0.3,0-0.4c0,0.1,0.1,0.3,0.1,0.4
		c0,0.3,0.1,0.7,0.1,1.2c0.1,1.2,0.1,2.7,0.3,4.6h-0.2c-0.1-0.8-0.1-1.6,0-2.4c0-0.4,0.1-0.9,0.1-1.3c0-0.5,0.1-0.9,0.2-1.4
		c0.1-0.5,0.4-0.9,0.8-1.2c0.2-0.1,0.5-0.2,0.7-0.2c0.3,0,0.5,0.1,0.7,0.3c0.4,0.4,0.7,0.9,0.8,1.4c0.1,0.5,0.1,1.1,0.2,1.6
		c0.1,1.3,0.1,2.6,0,3.9h-0.3c0-1.9,0.1-3.9,0.9-5.3c0.1-0.4,0.4-0.7,0.7-0.9c0.3-0.2,0.7-0.3,1.1-0.1c0.5,0.4,0.9,1.1,0.9,1.7
		c0.3,0.9,0.4,1.9,0.4,2.8C267.5,123.8,267.5,124,267.5,124.3C267.5,124.2,267.5,124.3,267.5,124.3z"/>
	<path class="st5" d="M274.3,123.8c-0.1,0.1-0.2,0.2-0.4,0.3c-0.4,0.2-0.8,0.3-1.2,0.3c-0.7,0-1.2-0.1-1.8-0.5c-1.4-1-1.8-2.9-1-4.4
		c0.3-0.6,0.8-1,1.4-1.4c0.4-0.2,0.8-0.3,1.2-0.3c0.1,0,0.3,0,0.4,0.1c-0.5,0.1-1.1,0.2-1.6,0.4c-0.5,0.3-0.9,0.7-1.2,1.3
		c-0.7,1.4-0.3,3.1,0.9,4c0.5,0.4,1.1,0.5,1.7,0.5C273.3,124.2,273.8,124,274.3,123.8z"/>
	<path class="st5" d="M276.1,114.3c-1.2,0.1-2.3,0.3-3.5,0.7l-0.5,0.2l0.4-0.4c0.7-0.7,1.4-1.6,2-2.5c0.4-0.8,0.6-1.7,0.4-2.5
		c-0.1-0.4-0.3-0.7-0.6-0.7c-0.3,0-0.6,0.1-0.9,0.3c-0.4,0.2-0.8,0.5-1.1,0.9c-0.2,0.3-0.3,0.4-0.3,0.4s0-0.2,0.2-0.5
		c0.3-0.4,0.7-0.8,1.1-1.1c0.3-0.2,0.7-0.3,1-0.3c0.2,0,0.4,0.1,0.6,0.3c0.1,0.2,0.2,0.4,0.3,0.7c0.2,0.9,0.1,2-0.4,2.8
		c-0.5,0.9-1.2,1.8-2,2.6l-0.1-0.2c0.8-0.3,1.7-0.4,2.5-0.4C275.5,114.2,275.8,114.2,276.1,114.3z"/>
	<path class="st5" d="M344.1,192.4c0.1-0.1,0.4-0.1,0.5-0.1c0.4-0.1,0.9-0.4,1.3-0.7c0.6-0.4,0.9-1.1,1.1-1.8
		c0.1-0.4-0.1-0.9-0.2-1.2c-0.2-0.4-0.6-0.7-0.9-0.8c-0.4-0.1-0.9,0.1-1.2,0.4l-0.2-0.2c0.3-0.3,0.6-0.5,0.9-0.7
		c0.3-0.1,0.5-0.4,0.6-0.7c0.1-0.3,0.1-0.6-0.1-0.7c-0.2-0.1-0.4-0.2-0.7-0.2c-0.4,0.1-0.7,0.2-0.9,0.4c-0.2,0.1-0.4,0.3-0.4,0.2
		c0,0,0.1-0.1,0.3-0.3c0.3-0.3,0.7-0.5,1-0.6c0.3,0,0.6,0.1,0.8,0.3c0.3,0.3,0.4,0.7,0.2,1c-0.1,0.4-0.4,0.7-0.7,0.9
		c-0.3,0.2-0.6,0.4-0.9,0.7l-0.2-0.2c0.4-0.4,0.9-0.6,1.5-0.5c0.5,0.1,0.9,0.4,1.2,0.9c0.2,0.4,0.3,0.9,0.2,1.5
		c-0.1,0.8-0.6,1.5-1.2,2c-0.4,0.3-0.9,0.5-1.4,0.6C344.6,192.4,344.4,192.4,344.1,192.4z"/>
	<path class="st5" d="M351.8,195.6c0,0.1-4.7,0.9-10.5,1.7s-10.5,1.5-10.5,1.5c0-0.1,4.7-0.9,10.5-1.7
		C347.1,196.1,351.8,195.5,351.8,195.6z"/>
	<path class="st5" d="M314.4,198.9c0,0.1-4.7,0.7-10.3,1.3c-5.7,0.6-10.4,1.1-10.4,1s4.7-0.7,10.3-1.3
		C309.8,199.3,314.4,198.7,314.4,198.9z"/>
	<path class="st5" d="M315.6,201.7c0,0.1-4.4,0.7-9.7,1.4c-5.3,0.7-9.7,1.1-9.7,1c0-0.1,4.4-0.7,9.7-1.4
		C311.2,202,315.6,201.6,315.6,201.7z"/>
	<rect x="238.8" y="230.4" class="st11" width="20.5" height="2.4"/>
	<path class="st2" d="M267.4,204.9v27.9H312L267.4,204.9z M274.2,216.2l18.5,11.8h-18.5V216.2z"/>
	<path class="st1" d="M271.7,207.6c-0.1,0.6-0.4,1.2-0.8,1.7c-0.3,0.6-0.7,1.1-1.1,1.5C270.2,209.6,270.9,208.6,271.7,207.6
		L271.7,207.6z"/>
	<path class="st1" d="M278.3,211.7c-0.1,0.6-0.4,1.2-0.8,1.7c-0.3,0.6-0.7,1.1-1.1,1.5C276.8,213.7,277.5,212.6,278.3,211.7z"/>
	<path class="st1" d="M284.9,215.8c-0.2,0.6-0.6,1.1-0.9,1.6c-0.3,0.5-0.7,0.9-1.2,1.4c0.2-0.6,0.6-1.1,0.9-1.6
		C284.3,216.3,284.8,215.8,284.9,215.8z"/>
	<path class="st1" d="M291.4,220c-0.2,0.6-0.6,1.1-0.9,1.6c-0.3,0.5-0.7,1-1.2,1.4c0.2-0.6,0.6-1.1,0.9-1.5
		C290.8,220.6,291.3,220,291.4,220z"/>
	<path class="st1" d="M298.2,224.3c-0.2,0.6-0.5,1.2-0.9,1.7c-0.3,0.6-0.7,1.1-1.2,1.5c0.2-0.6,0.5-1.2,0.9-1.7
		C297.3,225.1,297.8,224.6,298.2,224.3z"/>
	<path class="st1" d="M305.3,228.6c-0.1,0.6-0.4,1.1-0.8,1.6c-0.3,0.5-0.6,1-1,1.4c0.1-0.6,0.4-1.1,0.8-1.6
		C304.5,229.5,304.8,229.1,305.3,228.6z"/>
	<path class="st1" d="M273.7,208.9c0.1,0.1-0.1,0.4-0.4,0.9c-0.3,0.4-0.5,0.7-0.6,0.7c-0.1-0.1,0.1-0.4,0.4-0.9
		C273.4,209.1,273.6,208.9,273.7,208.9z"/>
	<path class="st1" d="M275.9,210.2c0.1,0.1-0.1,0.4-0.4,0.9c-0.3,0.4-0.5,0.7-0.6,0.7c-0.1-0.1,0.1-0.4,0.4-0.9
		C275.6,210.5,275.8,210.2,275.9,210.2z"/>
	<path class="st1" d="M280.7,213.2c0.1,0.1-0.1,0.4-0.4,0.9c-0.3,0.4-0.5,0.8-0.6,0.7c-0.1-0.1,0.1-0.4,0.4-0.9
		C280.4,213.5,280.6,213.2,280.7,213.2z"/>
	<path class="st1" d="M282.9,214.5c0.1,0.1-0.1,0.4-0.4,0.9c-0.3,0.4-0.5,0.8-0.6,0.7s0.1-0.4,0.4-0.9
		C282.6,214.8,282.8,214.5,282.9,214.5z"/>
	<path class="st1" d="M287.2,217.4c0.1,0.1-0.1,0.4-0.4,0.9c-0.3,0.4-0.5,0.8-0.6,0.7c-0.1-0.1,0.1-0.4,0.4-0.9
		C286.9,217.7,287.2,217.4,287.2,217.4z"/>
	<path class="st1" d="M289.3,218.7c0.1,0.1-0.1,0.4-0.4,0.9c-0.3,0.4-0.5,0.8-0.6,0.7c-0.1-0.1,0.1-0.4,0.4-0.9
		C289,219,289.3,218.7,289.3,218.7z"/>
	<path class="st1" d="M293.8,221.5c0.1,0.1-0.1,0.4-0.4,0.9c-0.3,0.4-0.5,0.7-0.6,0.7s0.1-0.4,0.4-0.9
		C293.5,221.8,293.7,221.5,293.8,221.5z"/>
	<path class="st1" d="M296.2,223c0.1,0.1-0.1,0.4-0.4,0.9c-0.3,0.4-0.5,0.8-0.6,0.7c-0.1-0.1,0.1-0.4,0.4-0.9
		C295.9,223.3,296.1,223,296.2,223z"/>
	<path class="st1" d="M300.5,225.8c0.1,0.1-0.1,0.4-0.4,0.9c-0.3,0.4-0.5,0.7-0.6,0.7c-0.1-0.1,0.1-0.4,0.4-0.9
		C300.2,226,300.5,225.7,300.5,225.8z"/>
	<path class="st1" d="M303,227.3c0.1,0.1-0.1,0.4-0.4,0.9c-0.3,0.4-0.5,0.8-0.6,0.7s0.1-0.4,0.4-0.9
		C302.6,227.5,302.9,227.2,303,227.3z"/>
</g>
<g id="freepik--Character--inject-138">
	<path class="st1" d="M147,147.9c-1.4-2.8-4.6-3.9-7.2-2.4c-2.6,1.5-3.6,4.9-2.2,7.8c0.9,2,2.9,3.1,4.9,3.1c2.6-0.1,4.8-2.3,6.5-4.4
		"/>
	<path class="st2" d="M149.2,146.9c-0.1-0.7-0.7-1-1.3-0.9l0,0c-0.6,0.1-1,0.7-1.2,1.3c-0.1,0.6-0.1,1.2,0.1,1.8
		c0.2,0.9,0.7,1.8,1.2,2.5c0.4,0.5,0.9,1,1.5,0.8s0.7-1.1,0.7-1.8c-0.1-1.6-0.6-3.1-1.2-4.5"/>
	<path class="st1" d="M164,121.8c2.8-4.4,6.5-8.4,11-10.7c4.4-2.4,9.8-3.1,14.5-1.5c4.7,1.7,8.7,6,9.6,11.3c0.7,4.1,0.1,10.7,3,13.6
		c6,5.9,5,17.1,1.5,23.5c0,0-5.4,7,0.4,13.5c0,0,3.4,2.6,1.7,9.7c-2.7,11.1,9.1,17.2,2,15.6L184,194l-2.7-28.9"/>
	<path class="st1" d="M150,137.4c-1.5,1.2-2,3.3-1.9,5.3c0.1,2,0.8,3.9,1.3,5.7c0.5,1.9,0.7,4,0,5.9c-1.2,3.1-4.6,4.4-7.1,6.4
		c-4.1,3.1-6.3,8.3-5.9,13.7c0.1,1.5,0.4,3.1-0.1,4.6c-0.6,1.7-2.2,2.6-3.1,4.1c-1.5,2.3-1.2,5.4-0.1,7.8c1.2,2.5,3.1,4.4,4.9,6.3
		c8.8-8.2,18.5-15,29.1-20.4"/>
	<path class="st4" d="M146.7,149.5c-0.5,0.1-1,0.1-1.5,0.1c-1.2,0.1-2.4,0.4-3.6,0.9c-1.1,0.6-2,1.5-2.5,2.7c-0.2,0.5-0.4,1-0.4,1.5
		c0-0.1,0-0.3,0-0.4c0-0.4,0.1-0.8,0.3-1.2c0.5-1.2,1.5-2.3,2.5-2.9c1.2-0.6,2.4-0.9,3.6-0.9C145.7,149.4,146.2,149.4,146.7,149.5z"
		/>
	<path class="st6" d="M238.8,178.4l11.6,4.1c0,0,8.1-5.3,8.6-7.3c0.4-2-0.4-2.3-0.7-2.3c0,0,2.9-2.7,1.4-5.2c0,0,2.5-2.9,0.9-4.7
		l-0.9-0.8c0,0,1.2-2.7,0.2-4.7c-0.4-0.7-1.1-0.9-1.7-0.7l-9.5,3.8l-6.1,4.4L238.8,178.4z"/>
	<polygon class="st11" points="253.1,160.9 256.3,148.2 259,147.9 256.4,158.1 	"/>
	<path class="st6" d="M239.9,174.5l2.8-10.2l10.3-8.3c0.7,1.2,0.7,2.6,0,3.8c-1.1,2.1-2.7,3.8-3,4.4c-0.4,0.6-1.8,3.6-1.8,3.6
		c0.9,2.7,1.1,5.7,0.4,8.4"/>
	<path class="st7" d="M248.5,176.1c0-0.2,0.1-0.4,0.1-0.6c0.1-0.2,0.1-0.4,0.1-0.7c0.1-0.3,0.1-0.7,0.1-0.9c0.1-0.9,0.1-1.8,0-2.7
		c-0.1-1.2-0.4-2.3-0.8-3.4v-0.1v-0.1l1.3-2.6l0.4-0.7l0.2-0.4l0.2-0.4l1-1.3c0.7-0.9,1.3-1.9,1.8-2.9c0.5-1.1,0.5-2.4-0.1-3.4
		l0.2,0.1l-0.9,0.7l-9.4,7.6l0.1-0.1c-0.9,3.1-1.6,5.6-2.1,7.4c-0.3,0.9-0.4,1.5-0.6,2l-0.1,0.5c0,0.1-0.1,0.2-0.1,0.1s0-0.1,0-0.2
		l0.1-0.5c0.1-0.5,0.3-1.2,0.6-2.1c0.5-1.8,1.2-4.4,2-7.4v0.1l0,0l9.4-7.6l0.9-0.7l0.1-0.1l0.1,0.1c0.7,1.2,0.7,2.6,0.1,3.8
		c-0.5,1-1.2,2-1.9,3l-1,1.3c-0.1,0.1-0.1,0.2-0.2,0.3l-0.1,0.4l-0.4,0.7l-1.3,2.5v-0.1c0.4,1.1,0.7,2.3,0.7,3.5
		c0.1,0.9,0.1,1.8-0.1,2.7c0,0.4-0.1,0.7-0.1,0.9c-0.1,0.2-0.1,0.5-0.1,0.7C248.6,175.8,248.6,176,248.5,176.1z"/>
	<path class="st7" d="M259.5,162.3c-0.2,0.2-0.4,0.4-0.7,0.5l-2,1.3L254,166c-0.6,0.4-1.2,0.7-2,0.7c-0.4-0.1-0.7-0.2-1-0.6
		c-0.2-0.4-0.4-0.7-0.4-1.2c0.1-0.8,0.4-1.5,0.9-2.1c0.4-0.6,0.9-1.1,1.3-1.6c0.8-0.9,1.7-1.7,2.5-2.3c0.7-0.4,1.2-0.9,2-1.2
		c0.2-0.1,0.5-0.3,0.7-0.4c-0.2,0.1-0.4,0.4-0.7,0.4c-0.4,0.3-1.1,0.7-1.9,1.3c-0.9,0.7-1.7,1.5-2.5,2.3c-0.4,0.5-0.9,1-1.3,1.6
		c-0.4,0.5-0.7,1.2-0.9,1.9c0,0.4,0.1,0.7,0.3,0.9c0.2,0.3,0.5,0.4,0.8,0.4c0.7,0,1.2-0.1,1.8-0.6l2.9-1.7l2-1.2
		C259,162.6,259.3,162.4,259.5,162.3z"/>
	<path class="st7" d="M259.7,167.8c-0.1,0.2-0.4,0.4-0.6,0.5c-0.4,0.3-1,0.7-1.7,1.3c-0.9,0.7-1.7,1.2-2.7,1.7
		c-0.3,0.1-0.6,0.3-0.9,0.4c-0.4,0.1-0.7-0.1-1-0.3c-0.6-0.5-0.8-1.3-0.7-2.1c0.1-0.7,0.5-1.4,1-1.9c0.4-0.5,0.9-0.9,1.4-1.4
		c0.8-0.7,1.7-1.4,2.5-2c0.7-0.5,1.4-0.9,1.8-1.2c0.2-0.1,0.4-0.3,0.7-0.4c-0.2,0.2-0.4,0.4-0.6,0.5l-1.7,1.3
		c-0.9,0.7-1.7,1.3-2.5,2c-0.4,0.4-0.9,0.9-1.3,1.4c-0.4,0.5-0.8,1.1-0.9,1.7c-0.1,0.7,0.1,1.3,0.6,1.7c0.2,0.1,0.5,0.3,0.8,0.2
		c0.3-0.1,0.6-0.1,0.8-0.3c1.1-0.6,2-1.2,2.7-1.7l1.8-1.2C259.3,168,259.5,167.9,259.7,167.8z"/>
	<path class="st7" d="M258.3,172.9c-0.1,0.1-0.3,0.3-0.5,0.4c-0.3,0.2-0.8,0.6-1.4,0.9c-0.7,0.4-1.5,0.9-2.2,1.2
		c-0.4,0.2-0.9,0.4-1.5,0.4c-0.3,0.1-0.6,0-0.8-0.1c-0.3-0.1-0.4-0.5-0.5-0.8c0-0.3,0-0.6,0.1-0.9c0.1-0.3,0.2-0.6,0.4-0.7
		c0.3-0.4,0.7-0.7,1.1-1.1c0.7-0.6,1.3-1,2-1.5c0.6-0.4,1.1-0.7,1.5-0.9c0.1-0.1,0.4-0.2,0.6-0.3c-0.1,0.1-0.3,0.3-0.5,0.4l-1.4,0.9
		c-0.7,0.5-1.3,1-2,1.5c-0.7,0.7-1.6,1.4-1.5,2.5c0,0.2,0.1,0.4,0.3,0.6c0.2,0.1,0.4,0.1,0.7,0.1c0.4-0.1,0.9-0.2,1.4-0.4
		c0.7-0.3,1.5-0.7,2.2-1.1C256.9,173.7,257.6,173.2,258.3,172.9z"/>
	<path class="st7" d="M258.9,175.3c-0.1,0.2-0.1,0.4-0.3,0.5c-0.3,0.4-0.6,0.9-0.9,1.3c-0.5,0.6-1.1,1.2-1.7,1.6
		c-0.4,0.3-0.7,0.6-1.1,0.8c-0.4,0.3-0.8,0.6-1.3,0.7c-0.3,0.1-0.6,0.1-0.8-0.1c-0.2-0.1-0.4-0.4-0.5-0.7c-0.1-0.5-0.1-1,0.1-1.5
		c0.3-0.7,0.7-1.5,1.2-2c0.4-0.4,0.7-0.7,1.2-1c0.1-0.1,0.4-0.2,0.5-0.2c-1.2,0.8-2.1,2-2.7,3.4c-0.2,0.4-0.2,0.8-0.1,1.2
		c0.1,0.4,0.6,0.7,0.9,0.5c0.4-0.1,0.8-0.4,1.2-0.7c0.4-0.3,0.7-0.5,1.1-0.8c0.6-0.4,1.2-0.9,1.7-1.5
		C258.5,176,258.8,175.3,258.9,175.3z"/>
	<path class="st2" d="M237.9,178L223.6,211l-12.5-17.6c-7.8-10.8-14.2-13.3-14.2-13.3l-11.3-3.3l-23.3-1.3l-2,1.2l-14,6.3
		c0,0,1.3,16.3,4,29.2c2.6,12.9,4.9,27,4.9,27c0.9,9.3-5.5,45.1-5.5,45.1h64.2L200,240c1.6-5.4,2.9-10.9,3.9-16.4l0,0l11.9,8.7
		c0,0,17.9,10.8,24.4-7.3l11.3-42.3L237.9,178z"/>
	<path class="st1" d="M203.1,224.3c0-0.3,0-0.7,0-0.9c0-0.3,0-0.7,0-1.2s0-0.9,0-1.5c0-1.3-0.1-2.5-0.3-3.9
		c-0.2-1.6-0.5-3.1-0.9-4.7c-0.4-1.5-0.9-3.1-1.5-4.5c-0.5-1.2-1-2.3-1.6-3.5c-0.2-0.5-0.5-0.9-0.7-1.3c-0.2-0.4-0.4-0.7-0.6-0.9
		c-0.1-0.3-0.4-0.5-0.5-0.8c0.2,0.2,0.4,0.4,0.6,0.7c0.1,0.2,0.4,0.6,0.6,0.9c0.2,0.4,0.5,0.8,0.8,1.3c0.7,1.1,1.2,2.3,1.7,3.4
		c1.2,2.9,2,6,2.4,9.2c0.1,1.3,0.2,2.6,0.2,3.9c0,0.6,0,1.1,0,1.5c0,0.4-0.1,0.8-0.1,1.2C203.2,223.7,203.2,224,203.1,224.3z"/>
	<path class="st1" d="M200.8,197c0.1,0.1-0.4,1.5-1.1,3.2c-0.4,1.1-0.9,2-1.5,3.1c0.3-1.1,0.7-2.2,1.2-3.1c0.4-0.9,0.7-1.6,0.9-2.2
		C200.5,197.6,200.6,197.3,200.8,197z"/>
	<path class="st1" d="M224.6,220.4c-0.3-0.4-0.5-0.9-0.7-1.3c-0.4-1.1-0.7-2.3-0.9-3.5c-0.1-1.2-0.1-2.4,0.1-3.6
		c0.1-0.5,0.1-1,0.4-1.5c-0.2,1.7-0.3,3.3-0.1,5C223.6,217.2,224,218.9,224.6,220.4z"/>
	<path class="st11" d="M211.1,206.6c0.1,0,0.1,0.8,0.4,2c0.3,1.6,0.7,3.2,1.1,4.8c0.5,1.6,1,3.1,1.7,4.6c0.3,0.6,0.6,1.2,0.8,1.8
		c0,0-0.1-0.1-0.3-0.4c-0.2-0.3-0.4-0.7-0.7-1.3c-1.5-2.9-2.5-6.1-2.8-9.4c-0.1-0.7-0.1-1.2-0.1-1.5C211,207,211,206.8,211.1,206.6z
		"/>
	<path class="st11" d="M213.3,214.9c0.4-0.6,0.7-1.2,0.9-1.8c0.6-1.5,0.7-3.2,0.4-4.8v-0.1l0.3,0.1c-0.9,1.3-1.4,2.8-1.5,4.4
		c-0.1,1.2,0,2-0.1,2c-0.1-0.1-0.1-0.4-0.1-0.5c-0.1-0.5-0.1-1-0.1-1.5c0.1-1.7,0.7-3.3,1.5-4.6l0.2-0.3l0.1,0.4v0.1
		c0.4,1.7,0.1,3.4-0.5,4.9c-0.2,0.4-0.4,0.9-0.7,1.3C213.4,214.7,213.3,214.9,213.3,214.9z"/>
	<path class="st11" d="M211.4,212.3c-0.2-0.1-0.4-0.1-0.5-0.2c-0.4-0.2-0.9-0.5-1.3-0.8c-0.7-0.4-1.2-0.9-1.7-1.5
		c-0.3-0.4-0.6-0.7-0.9-1.1c-0.1-0.2-0.3-0.4-0.4-0.7c-0.1-0.3-0.2-0.6-0.1-0.9c0.1-0.1,0.2-0.3,0.4-0.3c0.1,0,0.3,0,0.4,0.1
		c0.2,0.1,0.4,0.3,0.6,0.4c0.4,0.3,0.7,0.6,1,0.9c0.5,0.6,1,1.2,1.5,1.9c0.3,0.4,0.5,0.9,0.7,1.5c0.1,0.1,0.1,0.4,0.1,0.6
		c-0.1,0-0.4-0.7-1.1-1.9c-0.4-0.7-0.9-1.2-1.5-1.7c-0.3-0.3-0.7-0.6-1-0.9c-0.1-0.1-0.4-0.3-0.6-0.4c-0.2-0.1-0.4-0.1-0.4,0.1
		c-0.1,0.2,0,0.4,0.1,0.6c0.1,0.2,0.2,0.4,0.4,0.6c0.3,0.4,0.5,0.7,0.8,1.1c0.5,0.6,1.1,1.1,1.7,1.6
		C210.8,212,211.5,212.3,211.4,212.3z"/>
	<path class="st11" d="M212.2,217.7c-0.1,0.1-0.3,0.1-0.4,0.1c-0.4,0.1-0.8,0.1-1.2,0.1c-1.5-0.1-2.8-0.7-3.8-1.7l-0.2-0.2l0.2-0.1
		l0.4-0.1c1.5-0.4,3.1-0.1,4.3,0.8c0.4,0.2,0.7,0.6,1,0.9c0.2,0.3,0.3,0.4,0.3,0.4c-0.4-0.4-0.9-0.8-1.5-1.2
		c-1.3-0.7-2.8-0.9-4.1-0.7l-0.4,0.1l0.1-0.3c0.9,1,2.3,1.6,3.6,1.7C211.1,217.8,211.7,217.8,212.2,217.7z"/>
	<path class="st11" d="M161.4,220.3c0,0.2,0,0.4,0,0.6c0,0.4-0.1,0.9-0.1,1.5c-0.2,1.7-0.6,3.3-1,4.8c-0.5,1.6-1.1,3.1-1.8,4.6
		c-0.3,0.6-0.5,1-0.7,1.3c-0.2,0.3-0.3,0.4-0.3,0.4c0.2-0.7,0.5-1.2,0.8-1.8c0.7-1.5,1.2-3,1.7-4.6c0.5-1.6,0.9-3.2,1.1-4.8
		C161.2,221.1,161.3,220.3,161.4,220.3z"/>
	<path class="st11" d="M159.1,228.5c0,0-0.1-0.1-0.4-0.4c-0.3-0.4-0.6-0.8-0.7-1.3c-0.7-1.5-0.9-3.3-0.5-4.9v-0.1l0.1-0.4l0.2,0.3
		c0.9,1.4,1.5,3,1.5,4.6c0,0.5,0,1-0.1,1.5c0,0.1-0.1,0.4-0.1,0.5c-0.1,0,0.1-0.8-0.1-2c-0.1-1.6-0.7-3.1-1.5-4.4l0.3-0.1v0.1
		c-0.3,1.6-0.1,3.3,0.4,4.8C158.5,227.4,158.7,228,159.1,228.5z"/>
	<path class="st11" d="M160.9,226.1c0-0.1,0.7-0.4,1.7-1.2c0.6-0.4,1.2-1,1.6-1.6c0.3-0.4,0.6-0.7,0.8-1.1c0.1-0.2,0.3-0.4,0.4-0.6
		c0.1-0.1,0.1-0.4,0.1-0.6c-0.1-0.1-0.2-0.1-0.4-0.1s-0.4,0.2-0.6,0.4c-0.4,0.3-0.7,0.6-1,0.9c-0.5,0.5-1,1.2-1.5,1.8
		c-0.7,1.1-1,1.9-1.1,1.9c0-0.2,0.1-0.4,0.1-0.6c0.2-0.5,0.4-1,0.7-1.5c0.4-0.7,0.9-1.3,1.5-1.9c0.3-0.4,0.7-0.7,1-0.9
		c0.2-0.1,0.4-0.3,0.6-0.4c0.1-0.1,0.3-0.1,0.4-0.1c0.1,0.1,0.3,0.1,0.4,0.3c0.1,0.3,0.1,0.7-0.1,0.9c-0.1,0.2-0.3,0.4-0.4,0.7
		c-0.7,1-1.6,2-2.6,2.6c-0.4,0.3-0.9,0.6-1.3,0.8C161.2,226,161.1,226,160.9,226.1z"/>
	<path class="st11" d="M160.1,231.5c0.6,0.1,1.1,0.1,1.7,0.1c1.4-0.1,2.6-0.7,3.6-1.7l0.1,0.3L165,230c-1.5-0.4-2.9-0.1-4.1,0.7
		c-0.5,0.4-0.9,0.7-1.4,1.2c0.1-0.1,0.1-0.3,0.3-0.4c0.3-0.4,0.7-0.7,1-0.9c1.3-0.9,2.8-1.2,4.4-0.8l0.4,0.1l0.3,0.1l-0.2,0.2
		c-1,1.1-2.4,1.7-3.8,1.7c-0.4,0-0.9,0-1.2-0.1C160.3,231.6,160.2,231.5,160.1,231.5z"/>
	<path class="st11" d="M183.5,197.7c0,0,0.1,0.1,0.4,0.4c0.2,0.3,0.5,0.7,0.9,1.2c0.9,1.3,1.7,2.8,2.4,4.3c0.7,1.5,1.2,3.1,1.7,4.7
		c0.1,0.7,0.3,1.1,0.4,1.5c0.1,0.1,0.1,0.4,0.1,0.6c-0.2-0.7-0.4-1.2-0.6-1.9c-0.5-1.6-1.1-3.1-1.7-4.6c-0.7-1.5-1.5-2.9-2.3-4.3
		C183.9,198.4,183.5,197.7,183.5,197.7z"/>
	<path class="st11" d="M187.2,205.3c-0.1,0-0.4,0-0.5,0c-0.5-0.1-0.9-0.1-1.4-0.4c-1.5-0.6-2.8-1.7-3.6-3.1l-0.1-0.1l-0.1-0.3
		l0.4,0.1c1.5,0.3,2.9,1.1,4.1,2.2c0.4,0.4,0.7,0.7,0.9,1.1c0.2,0.3,0.3,0.4,0.3,0.4s-0.4-0.6-1.3-1.4c-1.2-1-2.5-1.7-4-2l0.1-0.2
		l0.1,0.1c0.8,1.4,2,2.5,3.4,3.1C186,204.9,186.6,205.1,187.2,205.3z"/>
	<path class="st11" d="M186.9,202.2c-0.1,0,0.3-0.8,0.4-2.1c0.1-0.8,0.1-1.6,0.1-2.3c0-0.4-0.1-0.9-0.1-1.4c0-0.2-0.1-0.5-0.1-0.7
		c-0.1-0.2-0.1-0.4-0.3-0.5c-0.1-0.1-0.3,0.1-0.4,0.3c-0.1,0.2-0.1,0.4-0.1,0.7c-0.1,0.4-0.1,0.9-0.1,1.4c0,0.8,0,1.6,0.1,2.3
		c0.2,1.3,0.5,2.1,0.4,2.1c-0.1-0.1-0.2-0.4-0.2-0.5c-0.1-0.5-0.3-1-0.4-1.6c-0.1-0.8-0.2-1.6-0.2-2.4c0-0.5,0.1-0.9,0.1-1.5
		c0-0.3,0.1-0.5,0.1-0.8c0.1-0.1,0.1-0.3,0.3-0.4c0.1-0.1,0.3-0.1,0.5-0.1c0.3,0.1,0.4,0.4,0.5,0.7c0.1,0.2,0.1,0.5,0.1,0.7
		c0.1,0.5,0.1,0.9,0.1,1.5c0,0.8-0.1,1.6-0.2,2.4c-0.1,0.5-0.2,1-0.4,1.5C187.1,201.8,187,202,186.9,202.2z"/>
	<path class="st11" d="M189.8,206.6c0.4-0.4,0.8-0.8,1.2-1.2c0.9-1.1,1.4-2.5,1.5-3.9l0.2,0.1l-0.4,0.2c-1.2,0.8-2.1,2.1-2.5,3.6
		c-0.1,0.7-0.2,1.3-0.3,1.9c-0.1-0.1-0.1-0.4-0.1-0.5c0-0.5,0.1-0.9,0.1-1.5c0.4-1.6,1.3-3,2.6-3.8l0.4-0.2l0.2-0.1v0.3
		c-0.1,1.5-0.6,3-1.6,4.1c-0.3,0.3-0.6,0.6-0.9,0.9C190.1,206.5,189.9,206.6,189.8,206.6z"/>
	<path class="st11" d="M164.3,269.8c0,0,0.1,0.1,0.4,0.4c0.2,0.2,0.5,0.7,0.9,1.2c1.8,2.7,3.2,5.7,4.1,8.9c0.1,0.6,0.3,1.1,0.4,1.5
		c0.1,0.1,0.1,0.4,0.1,0.6c-0.2-0.7-0.4-1.2-0.6-1.9c-0.5-1.6-1.1-3.1-1.7-4.6s-1.5-2.9-2.3-4.3C165,271,164.6,270.4,164.3,269.8z"
		/>
	<path class="st11" d="M168,277.4c-0.1,0-0.4,0-0.5,0c-0.5-0.1-0.9-0.2-1.4-0.4c-1.5-0.6-2.8-1.7-3.6-3.1l-0.1-0.1l-0.2-0.3l0.4,0.1
		c1.5,0.3,2.9,1,4.1,2.2c0.4,0.4,0.7,0.7,0.9,1.1c0.1,0.1,0.2,0.3,0.3,0.4c-0.1,0.1-0.4-0.6-1.3-1.4c-1.2-1-2.5-1.7-4-2l0.1-0.2
		l0.1,0.1c0.8,1.4,2,2.5,3.4,3.1C166.8,277,167.4,277.2,168,277.4z"/>
	<path class="st11" d="M167.7,274.3c-0.1,0,0.2-0.8,0.4-2.1c0.1-0.8,0.1-1.6,0.1-2.3c0-0.4-0.1-0.9-0.1-1.4c0-0.2-0.1-0.5-0.1-0.7
		c-0.1-0.2-0.1-0.4-0.3-0.5c-0.1-0.1-0.3,0.1-0.4,0.3s-0.1,0.4-0.1,0.7c-0.1,0.4-0.1,0.9-0.1,1.4c0,0.8,0,1.6,0.1,2.3
		c0.2,1.3,0.5,2.1,0.4,2.1c-0.1-0.1-0.2-0.4-0.2-0.5c-0.1-0.5-0.3-1-0.4-1.6c-0.1-0.8-0.2-1.6-0.1-2.4c0-0.5,0.1-0.9,0.1-1.5
		c0-0.3,0.1-0.5,0.1-0.7c0.1-0.1,0.1-0.3,0.3-0.4c0.1-0.1,0.3-0.1,0.5-0.1c0.3,0.1,0.4,0.4,0.5,0.7c0.1,0.2,0.1,0.5,0.1,0.7
		c0.1,0.5,0.1,0.9,0.1,1.5c0,0.8-0.1,1.6-0.2,2.4c-0.1,0.5-0.2,1-0.4,1.5C167.9,273.9,167.8,274.1,167.7,274.3z"/>
	<path class="st11" d="M170.6,278.7c0.4-0.4,0.8-0.8,1.2-1.2c0.9-1.1,1.4-2.5,1.5-3.9l0.2,0.1l-0.4,0.2c-1.2,0.8-2.1,2.1-2.5,3.6
		c-0.1,0.7-0.2,1.3-0.3,1.9c-0.1-0.1-0.1-0.4-0.1-0.5c0-0.5,0.1-0.9,0.1-1.5c0.4-1.6,1.3-3,2.6-3.8l0.4-0.2l0.2-0.1v0.3
		c-0.1,1.5-0.6,3-1.6,4.1c-0.3,0.3-0.6,0.6-0.9,0.9C170.9,278.6,170.7,278.7,170.6,278.7z"/>
	<path class="st11" d="M239.8,197.1c0,0.2-0.1,0.4-0.1,0.5c-0.1,0.4-0.2,0.8-0.4,1.5c-0.5,1.5-1.2,3.1-2,4.5
		c-0.8,1.5-1.7,2.8-2.7,4.1c-0.4,0.5-0.7,0.9-0.9,1.1c-0.1,0.1-0.2,0.3-0.4,0.4c0.4-0.6,0.8-1.1,1.2-1.6c1.9-2.6,3.4-5.5,4.6-8.5
		C239.3,198.4,239.6,197.7,239.8,197.1z"/>
	<path class="st11" d="M236,204.6c0,0-0.1-0.1-0.3-0.5c-0.2-0.4-0.4-0.9-0.5-1.5c-0.4-1.7-0.2-3.4,0.4-4.9l0.1-0.1l0.1-0.4l0.1,0.4
		c0.6,1.5,0.8,3.2,0.6,4.9c-0.1,0.5-0.2,0.9-0.4,1.5c-0.1,0.3-0.2,0.5-0.2,0.5s0.2-0.7,0.4-2c0.1-1.6-0.1-3.2-0.7-4.7h0.3l-0.1,0.1
		c-0.7,1.5-0.8,3.1-0.5,4.8C235.6,203.4,235.8,204.1,236,204.6z"/>
	<path class="st11" d="M238.3,202.7c0-0.1,0.8-0.2,1.9-0.8c0.7-0.3,1.3-0.7,1.9-1.2c0.4-0.3,0.7-0.6,1-0.9c0.1-0.1,0.4-0.3,0.5-0.5
		c0.1-0.1,0.2-0.4,0.2-0.6c0-0.1-0.2-0.2-0.4-0.2c-0.2,0.1-0.4,0.1-0.6,0.2c-1.1,0.5-2,1.2-2.9,2c-0.9,0.9-1.4,1.6-1.5,1.6
		c0.1-0.2,0.1-0.4,0.3-0.5c0.3-0.4,0.7-0.9,1-1.2c0.5-0.6,1.2-1.1,1.8-1.5c0.4-0.3,0.8-0.5,1.2-0.7c0.2-0.1,0.4-0.2,0.7-0.3
		c0.1,0,0.3,0,0.4,0.1s0.3,0.2,0.3,0.4c0,0.3-0.1,0.6-0.3,0.9c-0.1,0.2-0.4,0.4-0.5,0.5c-0.4,0.3-0.7,0.6-1.1,0.9
		c-0.7,0.4-1.3,0.8-2,1.1c-0.4,0.2-0.9,0.4-1.5,0.5C238.7,202.6,238.5,202.7,238.3,202.7z"/>
	<path class="st11" d="M236.4,207.7c0.5,0.1,1.1,0.3,1.6,0.4c1.3,0.2,2.7-0.1,3.9-0.9v0.3l-0.4-0.2c-1.3-0.7-2.8-0.7-4.1-0.3
		c-0.6,0.2-1.1,0.5-1.7,0.8c0,0,0.1-0.1,0.4-0.4c0.4-0.3,0.8-0.5,1.2-0.7c1.5-0.5,3-0.4,4.4,0.2l0.4,0.2l0.2,0.1l-0.2,0.1
		c-1.2,0.8-2.6,1.1-4.1,0.9c-0.4-0.1-0.8-0.2-1.2-0.4C236.7,207.9,236.5,207.8,236.4,207.7z"/>
	<path class="st11" d="M161.5,215.3c0.2-0.6,0.4-1.1,0.6-1.7c0.3-1.5,0-2.9-0.8-4.1h0.2l-0.1,0.1c-0.5,0.6-0.8,1.4-0.9,2.2
		c-0.1,0.7,0,1.3,0.2,1.9C160.9,214.2,161.1,214.7,161.5,215.3c-0.4-0.4-0.8-0.9-0.9-1.6c-0.3-0.7-0.4-1.4-0.3-2
		c0.1-0.9,0.4-1.7,0.9-2.3l0.1-0.1l0.1-0.1l0.1,0.1c0.5,0.7,0.8,1.5,0.9,2.3c0.1,0.7,0.1,1.4-0.1,2c-0.1,0.4-0.3,0.9-0.5,1.3
		C161.6,215.2,161.5,215.3,161.5,215.3z"/>
	<path class="st11" d="M191.8,192c0.5-0.3,0.9-0.7,1.4-1c1-0.9,1.6-2.4,1.5-3.9l0.2,0.1h-0.1c-0.7,0.1-1.4,0.6-1.9,1.2
		c-0.4,0.5-0.7,1.1-0.9,1.7C192,190.8,191.8,191.4,191.8,192c-0.1-0.7-0.1-1.3,0.1-1.9c0.1-0.7,0.4-1.3,0.9-1.9
		c0.6-0.7,1.2-1.1,2-1.3h0.1l0.1-0.1v0.2c0,0.9-0.1,1.7-0.5,2.5c-0.3,0.6-0.7,1.2-1.2,1.6c-0.4,0.3-0.7,0.5-1.1,0.7
		C192.1,192,192,192,191.8,192z"/>
	<path class="st11" d="M240.5,189.7c0.3-0.5,0.6-1,0.8-1.6c0.4-1.4,0.4-2.9-0.4-4.2l0.2,0.1l-0.1,0.1c-0.6,0.5-1,1.2-1.2,2
		c-0.1,0.7-0.1,1.3,0,2C240.1,188.6,240.2,189.2,240.5,189.7c-0.4-0.5-0.7-1.1-0.8-1.7c-0.2-0.7-0.2-1.4-0.1-2.1
		c0.2-0.9,0.7-1.6,1.2-2.2l0.1-0.1l0.1-0.1l0.1,0.1c0.4,0.7,0.6,1.6,0.7,2.5c0,0.7-0.1,1.4-0.4,2c-0.1,0.4-0.4,0.8-0.7,1.2
		C240.7,189.6,240.5,189.7,240.5,189.7z"/>
	<path class="st11" d="M219.4,228.7c0.3-0.5,0.6-1,0.8-1.6c0.4-1.4,0.4-2.9-0.4-4.2l0.2,0.1L220,223c-1.1,0.9-1.5,2.5-1.2,3.9
		C219.1,227.5,219.2,228.1,219.4,228.7c-0.4-0.5-0.7-1.1-0.8-1.7c-0.1-0.7-0.2-1.4-0.1-2.1c0.2-0.9,0.7-1.6,1.2-2.2l0.1-0.1l0.1-0.1
		l0.1,0.1c0.4,0.7,0.6,1.6,0.6,2.5c0,0.7-0.1,1.4-0.4,2c-0.1,0.4-0.4,0.8-0.7,1.2C219.6,228.5,219.5,228.7,219.4,228.7z"/>
	<path class="st11" d="M157,280.4c-0.2-0.6-0.4-1.2-0.7-1.7c-0.7-1.2-2-2-3.3-2.2l0.1-0.1v0.1c0.1,0.8,0.4,1.6,0.8,2.2
		c0.4,0.5,0.9,0.9,1.5,1.2C155.8,280.1,156.4,280.3,157,280.4c-0.7,0.1-1.2-0.1-1.7-0.4c-0.6-0.2-1.2-0.7-1.6-1.2
		c-0.5-0.7-0.8-1.5-0.9-2.4v-0.1v-0.2h0.2c0.8,0.1,1.5,0.4,2.2,0.9c0.5,0.4,0.9,0.9,1.3,1.5c0.2,0.4,0.4,0.8,0.5,1.3
		C157,280.1,157,280.2,157,280.4z"/>
	<path class="st11" d="M230.5,225.4c0-0.1,0.9-0.5,2.3-1.5c0.8-0.6,1.5-1.2,2.1-2.1c0.7-1,1.1-2.3,0.9-3.5c-0.1-0.1,0.2,0.1,0.1,0.1
		H236h-0.1c-0.1,0-0.1,0-0.2,0.1c-0.1,0.1-0.3,0.1-0.4,0.1c-0.3,0.1-0.6,0.2-0.9,0.3c-0.5,0.2-1,0.6-1.5,0.9
		c-0.7,0.7-1.3,1.5-1.7,2.5c-0.4,0.9-0.5,1.8-0.6,2.8c-0.1-0.3-0.1-0.5-0.1-0.8c0-0.7,0.2-1.5,0.4-2.1c0.6-1.6,1.7-2.9,3.3-3.6
		c0.3-0.1,0.6-0.3,0.9-0.4c0.1-0.1,0.3-0.1,0.4-0.1l0.2-0.1h0.1h0.1c0,0,0.4,0.3,0.1,0.1c0.1,1.3-0.2,2.7-1,3.7
		c-0.6,0.9-1.4,1.5-2.3,2.1c-0.6,0.4-1.2,0.7-1.7,1C231,225.2,230.8,225.3,230.5,225.4z"/>
	<path class="st11" d="M201.3,279.9c0-0.1,0.9-0.5,2.3-1.5c0.8-0.6,1.5-1.2,2.1-2.1c0.7-1,1.1-2.3,0.9-3.5l0.1,0.1h-0.1h-0.1h-0.1
		l-0.2,0.1c-0.1,0-0.3,0.1-0.4,0.1c-0.3,0.1-0.6,0.2-0.9,0.3c-0.5,0.2-1,0.6-1.5,0.9c-0.7,0.7-1.3,1.5-1.7,2.5
		c-0.4,0.9-0.5,1.8-0.6,2.8c-0.1-0.3-0.1-0.5-0.1-0.8c0.1-1.8,0.9-3.5,2.2-4.7c0.4-0.4,0.9-0.7,1.5-1c0.3-0.1,0.6-0.2,0.9-0.4
		c0.1-0.1,0.3-0.1,0.4-0.1c0.1,0,0.1-0.1,0.2-0.1h0.1h0.1c0,0,0.3,0.3,0.1,0.1c0.1,1.3-0.2,2.7-1,3.7c-0.6,0.9-1.4,1.5-2.3,2.1
		c-0.6,0.4-1.2,0.7-1.8,1C201.7,279.8,201.5,279.9,201.3,279.9z"/>
	<path class="st11" d="M170.5,213.1c0-0.1,0.9-0.5,2.3-1.5c0.8-0.6,1.5-1.2,2.1-2.1c0.7-1,1.1-2.3,0.9-3.5c-0.1-0.1,0.2,0.1,0.1,0.1
		h-0.1h-0.1c-0.1,0-0.1,0-0.2,0.1c-0.1,0.1-0.3,0.1-0.4,0.1c-0.3,0.1-0.6,0.2-0.9,0.3c-0.5,0.2-1,0.6-1.5,0.9
		c-0.7,0.7-1.3,1.5-1.7,2.5c-0.4,0.9-0.5,1.8-0.6,2.8c-0.1-0.3-0.1-0.5-0.1-0.8c0-0.7,0.1-1.5,0.4-2.1c0.4-1,1-1.9,1.7-2.5
		c0.4-0.4,0.9-0.7,1.5-1c0.3-0.1,0.6-0.2,0.9-0.4c0.1-0.1,0.3-0.1,0.4-0.1l0.2-0.1h0.1h0.1l0.1,0.1c0.1,1.3-0.2,2.7-1,3.7
		c-0.6,0.9-1.4,1.5-2.3,2.1c-0.6,0.4-1.2,0.7-1.8,1C171,213,170.7,213.1,170.5,213.1z"/>
	<path class="st6" d="M193,130.9c-0.9-7-7-14.8-19.8-11.6l-12.6,4.4c-2,0.4-3.3,2.3-3.2,4.4l4.7,53.3c0.6,6.5,5.6,11.4,11.6,11.4
		l0,0c6.5,0,11.7-5.7,11.7-12.6c0-0.2,0-0.4,0-0.6c-0.3-6.4-0.4-11.6-0.4-11.6s8.3-2.1,9.3-14C194.9,148.2,194,138.6,193,130.9z"/>
	<path class="st1" d="M189.8,138.9c0.1,0.8-0.5,1.5-1.2,1.6c-0.7,0.1-1.5-0.4-1.5-1.2v-0.1c-0.1-0.8,0.5-1.5,1.2-1.6
		C189,137.6,189.7,138.1,189.8,138.9L189.8,138.9z"/>
	<path class="st1" d="M191.7,136.9c-0.1,0.2-1.3-0.6-2.8-0.4c-1.5,0.1-2.5,1-2.8,0.8c-0.1-0.1,0.1-0.4,0.5-0.9
		c0.7-0.5,1.4-0.9,2.2-0.9c0.8-0.1,1.6,0.1,2.3,0.6C191.6,136.5,191.7,136.8,191.7,136.9z"/>
	<path class="st1" d="M175.3,139.7c0.1,0.8-0.5,1.5-1.2,1.6c-0.7,0.1-1.5-0.4-1.5-1.2V140c-0.1-0.8,0.5-1.5,1.2-1.6
		C174.5,138.4,175.2,138.9,175.3,139.7L175.3,139.7z"/>
	<path class="st1" d="M176.7,137.8c-0.1,0.2-1.3-0.6-2.8-0.4c-1.5,0.1-2.5,1-2.8,0.8c-0.1-0.1,0.1-0.4,0.5-0.9
		c0.7-0.5,1.4-0.9,2.2-0.9c0.8-0.1,1.6,0.1,2.3,0.6C176.6,137.3,176.8,137.7,176.7,137.8z"/>
	<path class="st1" d="M182.8,149c0-0.1,0.9-0.4,2.4-0.7c0.4-0.1,0.7-0.1,0.8-0.4c0-0.4-0.1-0.9-0.4-1.2l-1.3-3.1
		c-1.9-4.4-3.3-8-3.1-8.1s1.8,3.4,3.7,7.8c0.4,1.1,0.9,2.1,1.3,3.1c0.3,0.5,0.4,1.1,0.3,1.6c-0.1,0.3-0.3,0.5-0.6,0.7
		c-0.2,0.1-0.4,0.1-0.7,0.1C183.8,149,182.9,149.1,182.8,149z"/>
	<path class="st7" d="M185.1,168.2c-5.2,0.4-10.3-0.7-14.9-3.1c0,0,4.2,8.1,15.1,6.2L185.1,168.2z"/>
	<path class="st7" d="M182.4,153c-0.7-0.7-1.6-1.1-2.5-0.9c-0.7,0.1-1.2,0.5-1.7,1.1c-0.4,0.6-0.4,1.3,0,1.9c0.5,0.6,1.3,0.7,2,0.4
		c0.7-0.3,1.3-0.8,1.9-1.4c0.1-0.1,0.3-0.3,0.4-0.5S182.6,153,182.4,153"/>
	<path class="st1" d="M178.4,150.4c0.2,0,0.4,1.7,1.8,2.9c1.5,1.2,3.2,0.8,3.3,1.1c0,0.1-0.4,0.4-1.1,0.4c-0.9,0.1-1.9-0.2-2.7-0.8
		c-0.7-0.6-1.2-1.5-1.5-2.4C178.1,150.9,178.4,150.4,178.4,150.4z"/>
	<path class="st1" d="M176.7,133.3c-0.1,0.4-1.7,0.4-3.4,0.7s-3.2,0.9-3.4,0.6c-0.1-0.1,0.1-0.7,0.7-1.1c1.5-1.2,3.4-1.5,5.2-1
		C176.4,132.8,176.8,133,176.7,133.3z"/>
	<path class="st1" d="M191,133.1c-0.2,0.4-1.3,0.1-2.5,0.1c-1.2,0.1-2.3,0.4-2.5,0.1c-0.1-0.1,0-0.6,0.4-0.9c0.6-0.5,1.3-0.7,2-0.7
		c0.7-0.1,1.5,0.1,2.1,0.6C190.9,132.5,191.1,132.9,191,133.1z"/>
	<path class="st1" d="M170.4,120.2c2,3.6,7.7,3.1,11.6,3.3c0.9,0.1,1.9,0.1,2.8,0.2c0.9,0.1,1.8,0.6,2.5,1.3
		c0.9,0.9,0.9,2.3,1.5,3.6c0.9,2.3,3,3.9,5.3,3.9c0.7,0,1.4-0.1,1.7-0.7c0.1-0.4,0.1-0.9,0.1-1.4c-0.6-3.1-1.2-6.3-2.7-8.9
		c-1.7-3.1-4.5-5.4-7.8-6.3c-3.2-0.9-11-0.4-13.9,1.3"/>
	<path class="st1" d="M169.9,115.6c3.9,5.2,3.8,13.4-0.4,18.3c-2.3,2.8-6,5.2-5.9,8.9c0.1,4.2,4.9,6.8,5.2,11
		c0.4,4.3-4,7.5-4.5,11.8c-0.4,3.4,1.7,6.6,4.1,8.9s5.2,4.4,6.8,7.3c1.7,3.3,1.7,7.5,0.6,11.1s-3.1,6.8-5.2,10
		c-3.3-0.9-6.7-1.4-10.2-1.4c0.1-1.4,0.2-2.8,0.3-4.2c0.2,1.6-0.9,3.1-2.3,3.8c-1.4,0.7-2.9,0.6-4.4,0.5c-4.6-0.3-9.2-1.1-13.6-2.3
		c1.7-2.2,3.3-4.4,4.3-7c0.9-2.6,0.9-5.7-0.6-8.1c-1.2-1.8-3.3-2.9-4.4-4.8c-1.7-2.8-0.9-6.8,1-9.4c1.9-2.8,4.5-4.7,6.8-7
		c2.3-2.3,4.3-5.4,4.2-8.7c-0.1-4.4-3.8-8-3.7-12.4c0-5,4.7-8.5,6.2-13.2c1.1-3.4,0.6-7,2.5-10c1.5-2.3,3.8-3.8,6.4-4
		C165.6,114.7,167.8,114.4,169.9,115.6"/>
	<path class="st4" d="M172.2,121.7c0,0.1,0,0.3,0,0.4c0,0.4-0.1,0.7-0.1,1.1c-0.2,1.4-0.7,2.7-1.3,3.9c-0.9,1.8-2.1,3.5-3.6,4.8
		c-0.9,0.8-1.9,1.5-2.9,1.9c-1.2,0.5-2.3,0.9-3.5,1.2c-1.2,0.3-2.3,0.7-3.3,1.4c-0.9,0.7-1.7,1.5-2.1,2.6c-0.9,2.1-1,4.2-1.7,5.9
		c-0.3,0.7-0.7,1.5-1.2,2c-0.4,0.4-0.8,0.9-1.3,1.2c-0.3,0.1-0.7,0.3-1,0.4c-0.1,0-0.2,0-0.4,0c0.4-0.1,0.9-0.2,1.3-0.4
		c0.5-0.3,0.9-0.7,1.2-1.2c0.4-0.6,0.8-1.3,1.1-2c0.7-1.6,0.7-3.7,1.6-5.9c0.4-1.2,1.2-2.1,2.3-2.8c1.1-0.7,2.3-1.1,3.4-1.4
		c1.2-0.3,2.3-0.7,3.4-1.2c1-0.5,2-1.1,2.8-1.9c1.5-1.3,2.7-2.8,3.6-4.7c0.7-1.2,1.1-2.5,1.4-3.9
		C172.1,122.2,172.1,121.7,172.2,121.7z"/>
	<path class="st4" d="M201.1,133.9c-0.1-0.2-0.3-0.4-0.4-0.5c-0.5-0.4-1.1-0.5-1.7-0.4c-0.4,0-0.8,0.1-1.3,0.1c-0.5,0.1-1,0.1-1.5,0
		c-1.2-0.1-2.3-0.4-3.3-0.9c-1.9-0.9-3.5-2.5-4.6-4.4c-0.3-0.6-0.6-1.2-0.8-1.8c-0.1-0.2-0.1-0.4-0.1-0.7c0.4,0.8,0.7,1.7,1.2,2.5
		c1.1,1.9,2.7,3.3,4.5,4.2c1,0.5,2.1,0.8,3.2,0.9c0.5,0.1,0.9,0.1,1.5,0.1c0.4,0,0.9-0.1,1.3-0.1c0.7,0,1.3,0.2,1.8,0.6
		c0.1,0.1,0.2,0.3,0.4,0.4C201.1,133.8,201.1,133.9,201.1,133.9z"/>
	<path class="st4" d="M199.2,125.1c-0.1,0-0.2,0-0.4,0c-0.4,0-0.7-0.1-1-0.1c-1.2-0.3-2.3-0.9-3.2-1.9c-0.7-0.7-1.2-1.4-1.5-2.2
		c-0.4-0.9-0.8-1.8-1.2-2.8c-0.4-1-1-2-1.8-2.8c-0.9-0.8-1.9-1.4-3-1.7c-2.1-0.5-4.4-0.4-6.4,0.4c-1.7,0.7-3.3,1.4-4.9,2.3
		c-1.4,0.7-2.5,1.3-3.3,1.6c-0.4,0.1-0.7,0.3-0.9,0.4c-0.1,0.1-0.2,0.1-0.4,0.1c0.1-0.1,0.2-0.1,0.3-0.1l0.9-0.4
		c0.8-0.4,1.9-0.9,3.3-1.7c1.6-0.9,3.3-1.7,4.9-2.4c2.1-0.9,4.4-1,6.6-0.5c1.2,0.3,2.2,0.9,3.1,1.7c0.8,0.8,1.4,1.7,1.8,2.8
		c0.4,1,0.8,2,1.2,2.8c0.4,0.8,0.9,1.5,1.5,2.1c0.9,0.9,2,1.6,3.1,1.9C198.8,125,199.2,125,199.2,125.1z"/>
	<path class="st4" d="M156.9,122.7c0-0.2,0.1-0.4,0.1-0.7c0.2-0.7,0.4-1.2,0.8-1.7c2.3-3.9,6.9-5.2,10.6-2.9c0.5,0.3,1,0.7,1.5,1.2
		c0.1,0.1,0.3,0.4,0.4,0.5c-0.7-0.6-1.3-1-2-1.5c-3.6-2-8.1-0.9-10.3,2.8C157.5,121.1,157.1,121.9,156.9,122.7z"/>
	<path class="st4" d="M148.9,200c0,0,0.3,0,0.7-0.1c0.7-0.1,1.3-0.5,1.9-0.9c0.9-0.7,1.5-1.7,1.9-2.8c0.3-0.7,0.4-1.5,0.4-2.2
		c0.1-0.8,0-1.7-0.1-2.5c-0.4-1.8-1.1-3.6-2.1-5.2c-1-1.7-2.3-3.5-3.3-5.5c-0.6-1-1-2.1-1.4-3.3c-0.4-1.2-0.5-2.5-0.5-3.7
		c0-2.7,0.8-5.2,2.2-7.5c0.7-1.1,1.5-2.1,2.5-2.9c0.9-0.7,2-1.5,3.1-2c1-0.5,2-1.2,2.9-1.9c0.8-0.7,1.5-1.7,1.9-2.8
		c0.7-2,0.7-4.3,0.4-6.4c-0.3-2-0.7-3.9-0.9-5.7c-0.1-1.6-0.1-3.2,0.2-4.7c0.2-1.2,0.6-2.3,1.2-3.3c0.4-0.7,0.9-1.2,1.5-1.6
		c0.1-0.1,0.3-0.1,0.5-0.2c0.1,0,0.1-0.1,0.2-0.1c0,0-0.2,0.1-0.7,0.4c-0.6,0.4-1.1,0.9-1.5,1.6c-0.6,1-0.9,2.1-1.2,3.3
		c-0.3,1.5-0.4,3.1-0.1,4.7c0.1,1.7,0.6,3.6,0.9,5.7c0.4,2.2,0.3,4.4-0.4,6.6c-0.4,1.2-1.1,2.2-2,2.9c-0.9,0.8-1.9,1.5-3,2
		c-1.1,0.6-2.1,1.2-3.1,2c-0.9,0.8-1.7,1.7-2.4,2.8c-1.4,2.2-2.1,4.7-2.1,7.3c0,1.2,0.1,2.5,0.5,3.6c0.4,1.1,0.8,2.2,1.4,3.2
		c1.1,2,2.3,3.8,3.3,5.5c0.9,1.6,1.7,3.4,2.1,5.3c0.1,0.8,0.2,1.7,0.1,2.5c-0.1,0.7-0.2,1.5-0.5,2.2c-0.4,1.2-1.1,2.2-2,2.9
		c-0.6,0.4-1.2,0.8-1.9,0.9C149.4,200,149.1,200,148.9,200z"/>
	<path class="st4" d="M196.6,180.6c0.4-0.5,0.8-1.1,1-1.7c0.4-1.8,0.3-3.7-0.4-5.4c-0.4-1.1-0.9-2.3-1.3-3.6
		c-0.2-0.7-0.3-1.4-0.4-2.1c0-0.4,0-0.7,0-1.2c0-0.4,0.1-0.7,0.2-1.2c0.4-1.6,1.1-3.1,2-4.4c0.9-1.4,1.9-2.8,2.8-4.3
		c0.9-1.4,1.7-3,2.1-4.7c0.4-1.6,0.1-3.2-0.4-4.7c-0.6-1.3-1.4-2.5-2.3-3.6c-0.8-1.1-1.6-2-2.3-3c-0.6-0.9-1-1.8-1.4-2.8
		c-0.3-0.7-0.4-1.5-0.4-2.4c0-0.5,0.1-1,0.2-1.5c0.1-0.1,0.1-0.4,0.1-0.5c-0.1,0.7-0.3,1.3-0.2,2c0.1,0.8,0.2,1.6,0.4,2.3
		c0.4,0.9,0.9,1.9,1.5,2.8c0.6,0.9,1.5,1.9,2.3,3c0.9,1.1,1.7,2.3,2.3,3.7c0.7,1.5,0.9,3.2,0.5,4.9c-0.4,1.7-1.2,3.3-2.2,4.7
		c-0.9,1.5-2,2.8-2.8,4.2c-0.9,1.3-1.5,2.8-2,4.3c-0.1,0.4-0.1,0.7-0.2,1.1c0,0.4,0,0.7,0,1.1c0.1,0.7,0.1,1.4,0.4,2.1
		c0.4,1.3,0.9,2.5,1.2,3.6c0.7,1.7,0.8,3.7,0.3,5.5c-0.1,0.5-0.4,0.9-0.7,1.3C196.9,180.3,196.8,180.4,196.6,180.6
		C196.7,180.5,196.7,180.6,196.6,180.6z"/>
	<path class="st4" d="M135.3,192.2c-0.1-0.1-0.1-0.4-0.2-0.5c-0.1-0.6-0.2-1.1-0.1-1.7c0.1-0.9,0.5-1.7,0.9-2.5
		c0.5-0.9,1.2-1.7,1.9-2.8c0.7-1.2,0.9-2.6,0.9-4c0-1.6-0.1-3.3-0.4-4.9c-0.2-1.8-0.2-3.6,0.2-5.5c0.5-1.9,1.5-3.6,2.8-4.9
		c1.3-1.4,2.7-2.6,4.1-3.8c1.3-1.1,2.6-2.3,3.8-3.6c2.3-2.5,3.9-5.1,4.6-7.6c0.3-1.1,0.5-2.3,0.6-3.4c0.1-0.9,0-1.7-0.1-2.6
		c0-0.4-0.1-0.7-0.1-0.9s-0.1-0.5-0.1-0.7l-0.1-0.4c0-0.1,0-0.1,0-0.1c0,0.1,0,0.1,0.1,0.1l0.1,0.4c0,0.2,0.1,0.4,0.1,0.7
		c0.1,0.3,0.1,0.6,0.1,0.9c0.1,0.9,0.1,1.7,0.1,2.7c-0.1,1.2-0.2,2.3-0.6,3.5c-0.7,2.5-2.3,5.2-4.6,7.7c-1.2,1.3-2.4,2.5-3.8,3.6
		c-1.5,1.2-2.8,2.4-4.1,3.8c-1.3,1.3-2.3,3-2.8,4.8c-0.4,1.7-0.4,3.6-0.2,5.3c0.2,1.6,0.3,3.3,0.3,4.9c0,1.5-0.4,2.8-1,4.1
		c-0.7,1.2-1.4,2-2,2.8c-0.5,0.7-0.8,1.5-1,2.4c-0.1,0.5-0.1,1.1,0,1.7C135.2,192.1,135.3,192.2,135.3,192.2z"/>
	<path class="st4" d="M166,202.7c0.5-0.8,1-1.6,1.4-2.5c0.4-1,0.7-2.1,0.9-3.3c0.5-3.3-0.3-6.8-2.2-9.4c-1.2-1.7-2.5-3.3-3.9-4.7
		c-1.5-1.7-2.8-3.6-3.7-5.7c-0.4-1.2-0.7-2.4-0.7-3.6c0-1.3,0.4-2.6,0.9-3.7c1.2-2.3,3-4,4.1-6c0.6-0.9,1-2,1.3-3.2
		c0.2-1.1,0.2-2.3,0-3.3c-0.4-2-0.9-4.1-1.8-6c-0.7-1.7-1.5-3.4-2-5.2c-1.1-3.2-0.7-6.2,0-7.8c0.3-0.7,0.7-1.3,1.1-1.8
		c0.1-0.2,0.4-0.4,0.5-0.5c0,0-0.1,0.2-0.5,0.6c-0.4,0.5-0.8,1.2-1,1.8c-0.7,1.7-0.9,4.6,0.1,7.8c0.6,1.7,1.2,3.4,2,5.1
		c0.9,1.9,1.5,3.9,1.9,6c0.1,1.2,0.1,2.3,0,3.5c-0.2,1.2-0.7,2.3-1.3,3.3c-1.2,2-3,3.8-4.1,6c-0.6,1.1-0.9,2.3-0.9,3.6
		c0,1.2,0.2,2.4,0.7,3.6c0.9,2.1,2.1,4.1,3.6,5.7c1.4,1.5,2.7,3.1,3.9,4.8c1,1.5,1.7,3.2,2.1,5.1c0.4,2.7,0.1,5.4-0.9,7.8
		c-0.3,0.7-0.7,1.3-1.1,1.9l-0.4,0.4L166,202.7z"/>
	<polygon class="st2" points="164.4,241.4 174.7,215 209,231.9 189.8,279.6 155,266 	"/>
	<g class="st10">
		<polygon points="164.4,241.4 174.7,215 209,231.9 189.8,279.6 155,266 		"/>
	</g>
	<polygon class="st2" points="209,231.9 189.8,279.6 196.7,282.3 215.6,235.3 	"/>
	<g class="st8">
		<polygon points="209,231.9 189.8,279.6 196.7,282.3 215.6,235.3 		"/>
	</g>
	<polygon class="st13" points="179.6,217 181.9,211.9 214,228.6 212.3,233.1 	"/>
	<polygon class="st11" points="176,215.7 176.9,213.4 213.5,231.9 212.8,233.9 	"/>
	<path class="st5" d="M209.8,241.3c0.1,0.1-2.7,7.3-6.2,16.2c-3.5,8.9-6.4,16.1-6.5,16.1c-0.1-0.1,2.7-7.3,6.2-16.2
		C206.8,248.6,209.7,241.3,209.8,241.3z"/>
	<path class="st5" d="M178.1,225.8L178.1,225.8l0.4,0.2l1.2,0.6l4.8,2.3l16.8,8.1l0.1,0.1l-0.1,0.1c-2,4.9-4.2,10.4-6.5,16.1
		l-0.1,0.1l-0.1-0.1l0,0l-22.8-10.5l-0.1-0.1l0.1-0.1c2-5.2,3.6-9.4,4.7-12.4c0.6-1.5,1-2.6,1.3-3.4l0.4-0.9
		C178.1,225.9,178.1,225.9,178.1,225.8c0,0,0,0.1-0.1,0.4s-0.2,0.5-0.4,0.9c-0.3,0.8-0.7,2-1.2,3.5c-1.1,3-2.6,7.2-4.6,12.4
		l-0.1-0.1l22.9,10.4h0.1l-0.2,0.1c2.3-5.7,4.6-11.2,6.6-16.1l0.1,0.2l-16.6-8.2l-4.8-2.4l-1.3-0.7l-0.4-0.1L178.1,225.8z"/>
	<path class="st5" d="M195.4,247.3c-0.1-0.1-0.1-0.4-0.2-0.5l-0.5-1.5c-0.4-1.3-1.1-3.1-1.8-5.3l0.1,0.1l-6.4,2.3l-0.1,0.1l-0.1-0.1
		l-0.5-0.9l-2-3.5l0.2,0.1l-7.6,3.1l-2.2,0.9c-0.3,0.1-0.5,0.2-0.8,0.3c0.2-0.1,0.5-0.3,0.8-0.4l2.2-0.9l7.5-3.2l0.1-0.1l0.1,0.1
		l2,3.5c0.2,0.3,0.4,0.7,0.6,0.9l-0.1-0.1l6.4-2.2l0.1-0.1l0.1,0.1l1.7,5.4c0.2,0.7,0.4,1.1,0.4,1.5
		C195.4,246.9,195.4,247.2,195.4,247.3z"/>
	<path class="st5" d="M189.2,236.8c0,0,0-0.1-0.1-0.3c-0.1-0.3-0.3-0.5-0.5-0.7c-0.3-0.2-0.7-0.3-1.1-0.1c-0.6,0.2-0.9,0.9-0.7,1.6
		c0.1,0.4,0.4,0.6,0.7,0.7c0.4,0.1,0.8,0.1,1.1-0.1c0.2-0.1,0.4-0.4,0.5-0.7C189.1,237,189.1,236.8,189.2,236.8c0,0,0.1,0.1,0,0.4
		c-0.1,0.4-0.2,0.7-0.4,0.9c-0.4,0.4-0.9,0.4-1.3,0.3c-0.7-0.3-1.2-1.2-0.9-2c0.1-0.4,0.4-0.8,0.9-0.9c0.4-0.1,0.9-0.1,1.3,0.2
		c0.2,0.2,0.4,0.5,0.4,0.9C189.2,236.7,189.2,236.8,189.2,236.8z"/>
	<path class="st2" d="M206.1,230.5c0,0-2.3-4.9-6.5-3.3c-1.7,0.7-5.4,12.7-5.4,12.7l2.4-0.8l1.5,2.7c0,0,4.8-12.6,5.5-12.5
		L206.1,230.5z"/>
	<path class="st5" d="M194.5,257c-0.4-0.1-0.7-0.2-1-0.4l-2.7-1.1c-2.3-0.9-5.5-2.3-8.9-3.7c-3.5-1.5-6.5-2.8-8.9-3.8l-2.7-1.2
		c-0.4-0.1-0.7-0.3-0.9-0.5c0.4,0.1,0.7,0.2,1,0.4l2.7,1.1c2.3,0.9,5.5,2.3,8.9,3.7c3.5,1.5,6.5,2.8,8.9,3.8l2.7,1.2
		C193.8,256.7,194.2,256.9,194.5,257z"/>
	<path class="st5" d="M193,259.1c-0.4-0.1-0.7-0.2-1-0.4l-2.7-1.1c-2.3-0.9-5.5-2.3-8.9-3.7c-3.5-1.5-6.5-2.8-8.9-3.8l-2.7-1.2
		c-0.4-0.1-0.7-0.3-0.9-0.5c0.4,0.1,0.7,0.2,1,0.4l2.7,1.1c2.3,0.9,5.5,2.3,8.9,3.7c3.5,1.5,6.5,2.8,8.9,3.8l2.7,1.2
		C192.5,258.8,192.8,258.9,193,259.1z"/>
	<path class="st5" d="M192.3,261.8c-0.4-0.1-0.7-0.2-1-0.4l-2.7-1.1c-2.3-0.9-5.5-2.3-8.9-3.7c-3.4-1.5-6.6-2.8-8.9-3.8l-2.7-1.2
		c-0.4-0.1-0.7-0.3-0.9-0.5c0.4,0.1,0.7,0.2,1,0.4l2.7,1.1c2.3,0.9,5.5,2.3,8.9,3.7c3.5,1.5,6.5,2.8,8.9,3.8l2.7,1.2
		C191.7,261.5,192,261.7,192.3,261.8z"/>
	<path class="st6" d="M176.3,254.3l5.2,2.8c0,0,4.1-2.2,6.2-2.5c2-0.3,10.8,0.9,10.8,0.9c0.1,1.2-0.5,2.3-1.5,2.5
		c-0.8,0.3-5.1,0-5.1,0l0,0c-0.9,0.9-1,2.3-0.2,3.3c0.2,0.3,0.5,0.5,0.8,0.7c2.2,0.9,4.8,2.1,5.1,2.3c0.3,0.2,3.5-0.4,5.9-0.9
		c1.4-0.3,2.4,1.6,1.3,2.6c-0.1,0.1-0.2,0.1-0.4,0.2c0,0,2.1,1.4-1.5,3.1c0,0-1.2,3.1-3.6,3.3c0,0-2.7,2.9-4.4,3.3
		c-1.7,0.5-12.5-4-12.5-4l-10.5-5.9L176.3,254.3z"/>
	<path class="st7" d="M194.6,276c-2.4,0-12.1-4-12.2-4l-10.6-5.9l0,0l4.5-11.8l0,0l5.2,2.8c0.2-0.1,4.1-2.2,6.2-2.5
		c0.3-0.1,0.7-0.1,0.9-0.1c3,0,9.8,0.9,9.9,0.9l0,0l0,0c0.1,1.2-0.5,2.2-1.5,2.5c-0.8,0.3-4.9,0-5.1,0c-0.6,0.5-0.9,1.3-0.7,2.1
		c0.1,0.8,0.6,1.5,1.3,1.7c2.2,0.9,4.8,2.2,5.1,2.3c0.3,0.2,2.3-0.1,5.9-0.9c0.1,0,0.2,0,0.3,0c0.6,0,1.1,0.4,1.4,0.9
		s0.1,1.3-0.3,1.7c-0.1,0.1-0.2,0.1-0.4,0.2c0.4,0.2,0.6,0.7,0.6,1.1c-0.1,0.7-0.8,1.4-2.2,2c-0.2,0.6-0.6,1.1-0.9,1.5
		c-0.7,0.9-1.6,1.5-2.6,1.7c-0.1,0.1-2.7,2.9-4.4,3.3C194.9,276,194.7,276,194.6,276z M171.9,266.1l10.5,5.9c0.1,0.1,9.8,4,12.2,4
		c0.1,0,0.2,0,0.3-0.1c1.7-0.4,4.3-3.3,4.4-3.3l0,0c1-0.1,2-0.8,2.6-1.7c0.4-0.5,0.7-1,0.9-1.5l0,0c1.4-0.7,2.1-1.3,2.1-2
		c0-0.4-0.2-0.9-0.6-1.1l0,0h0.1c0.1,0,0.3-0.1,0.4-0.2c0.4-0.4,0.6-1.2,0.3-1.7c-0.3-0.7-0.9-1-1.6-0.9c-1.8,0.4-3.7,0.7-5.5,0.9
		c-0.1,0-0.2,0-0.4-0.1c-0.2-0.1-2-0.9-5.1-2.3c-1.1-0.5-1.7-1.9-1.2-3.1c0.1-0.4,0.4-0.7,0.6-0.9l0,0c0.1,0,4.4,0.3,5.1,0
		c0.7-0.2,1.2-0.7,1.4-1.5c0.1-0.4,0.1-0.7,0.1-1c-0.3-0.1-7-0.9-9.9-0.9c-0.3,0-0.7,0-0.9,0.1c-2,0.3-6.1,2.5-6.2,2.5l0,0l-5.2-2.8
		L171.9,266.1z"/>
	<path class="st7" d="M191.4,265.8c0.5,0.5,1.1,0.9,1.7,1.2c1.5,0.9,3.1,1.5,4.7,1.7c1.7,0,3.3-0.5,4.8-1.4c0.7-0.3,1.2-0.7,1.7-1.2
		c-0.7,0.2-1.3,0.4-1.9,0.8c-1.5,0.7-3,1.2-4.6,1.2c-1.6-0.1-3.1-0.7-4.5-1.5C192.7,266.3,192,266,191.4,265.8z"/>
	<path class="st7" d="M190.9,268.8c-0.1,0.1,0.4,0.7,1.5,1.2c0.6,0.4,1.2,0.7,1.8,0.9c0.8,0.4,1.6,0.5,2.5,0.5
		c0.8-0.1,1.7-0.3,2.5-0.6l1.9-0.7c0.6-0.1,1.2-0.4,1.7-0.7c-0.6,0-1.2,0.1-1.8,0.4c-0.6,0.1-1.2,0.4-2,0.6
		c-0.7,0.3-1.5,0.4-2.3,0.5c-0.8,0-1.5-0.1-2.3-0.4c-0.7-0.2-1.2-0.5-1.8-0.8C191.5,269.2,191,268.7,190.9,268.8z"/>
	<path class="st7" d="M190.7,272.4c-0.1,0.2,1.8,1,4.2,1.8c0.4,0.1,0.7,0.1,1,0c0.3-0.1,0.6-0.1,0.9-0.2c0.5-0.1,0.9-0.4,1.4-0.6
		c0.7-0.4,1.2-0.8,1.1-0.9c-0.4,0.1-0.9,0.3-1.2,0.5c-0.4,0.1-0.9,0.3-1.4,0.4c-0.3,0.1-0.5,0.1-0.8,0.1c-0.3,0.1-0.5,0.1-0.8,0
		c-1.2-0.4-2.3-0.7-3.1-0.9C191.6,272.6,191.2,272.4,190.7,272.4z"/>
	<path class="st2" d="M145.3,182.7c0,0-6,4.1-9.7,15.8c-3.1,9.8-9.5,25.7-11.6,37c-1.5,8.2,2.1,18,11.6,20.8l36.2,11.7l5.5-14.6
		l-32.5-17.7l8.9-21.8L145.3,182.7z"/>
	<path class="st1" d="M132.4,254.9c0.1,0,0.1,0,0.2,0.1l0.6,0.1l2.3,0.7l8.3,2.7l28.1,9.2l-0.2,0.1l3.5-9.3c0.7-1.8,1.4-3.6,2-5.3
		l0.1,0.2c-6.8-3.6-13.1-7.1-18.6-10.2c-5.5-3.1-10.2-5.7-13.9-7.6l0,0c-1.2-0.3-2.5-0.1-3.6,0.3c-0.9,0.3-1.7,0.8-2.4,1.5
		c-0.3,0.2-0.5,0.4-0.7,0.7c-0.1,0.1-0.4,0.4-0.5,0.6l-0.3,0.4c-0.1,0.1-0.1,0.1-0.1,0.1c0,0,0-0.1,0.1-0.1l0.3-0.4
		c0.1-0.2,0.3-0.4,0.5-0.6c0.2-0.3,0.4-0.5,0.7-0.7c0.7-0.7,1.5-1.2,2.4-1.5c1.2-0.4,2.5-0.6,3.7-0.4l0,0c3.6,1.9,8.4,4.5,14,7.6
		c5.5,3.1,11.8,6.5,18.6,10.2l0.1,0.1l-0.1,0.1l-2,5.3l-3.5,9.3l-0.1,0.1l-0.1-0.1l-28.1-9.3l-8.3-2.8l-2.3-0.7l-0.6-0.2
		L132.4,254.9z"/>
	<path class="st1" d="M155.3,202.2c0.1,0.1,0.1,0.2,0.1,0.4c0.1,0.4,0.1,0.7,0.2,1c0.1,1.3,0.1,2.5,0,3.9c-0.3,1.9-0.7,3.7-1.4,5.5
		c-0.7,2-1.6,4.1-2.5,6.4c-1.9,4.5-3.6,8.5-4.8,11.6l-1.5,3.5c-0.1,0.4-0.3,0.7-0.4,0.9c-0.1,0.1-0.1,0.2-0.1,0.3
		c0-0.1,0.1-0.2,0.1-0.4l0.4-0.9c0.4-0.9,0.8-2,1.4-3.5c1.2-3,2.9-7,4.7-11.6c0.9-2.3,1.8-4.4,2.5-6.4c0.7-1.7,1.2-3.6,1.5-5.5
		c0.2-1.2,0.2-2.5,0.1-3.8c0-0.4-0.1-0.8-0.1-1C155.3,202.4,155.3,202.3,155.3,202.2z"/>
	<path class="st11" d="M139.1,207.3c0.1,0,0.1,0.8,0.4,2c0.3,1.6,0.7,3.2,1.1,4.8c0.5,1.6,1,3.1,1.7,4.6c0.3,0.6,0.6,1.2,0.8,1.8
		c0,0-0.1-0.1-0.3-0.4s-0.4-0.7-0.7-1.3c-1.5-2.9-2.5-6.1-2.8-9.4c-0.1-0.7-0.1-1.2-0.1-1.5C139,207.7,139,207.5,139.1,207.3z"/>
	<path class="st11" d="M141.3,215.5c0.4-0.6,0.7-1.2,0.9-1.7c0.6-1.5,0.7-3.2,0.4-4.8v-0.1l0.3,0.1c-0.9,1.3-1.4,2.8-1.5,4.4
		c-0.1,1.2,0,2-0.1,2c-0.1-0.1-0.1-0.4-0.1-0.5c-0.1-0.5-0.1-1-0.1-1.5c0.1-1.7,0.7-3.3,1.5-4.6l0.2-0.3l0.1,0.4v0.1
		c0.4,1.7,0.1,3.4-0.5,4.9c-0.2,0.4-0.4,0.9-0.7,1.3C141.4,215.4,141.3,215.5,141.3,215.5z"/>
	<path class="st11" d="M139.5,213c-0.2,0-0.4-0.1-0.5-0.2c-0.4-0.2-0.9-0.5-1.3-0.8c-0.7-0.4-1.2-0.9-1.7-1.5
		c-0.3-0.4-0.6-0.7-0.9-1.1c-0.1-0.2-0.3-0.4-0.4-0.7c-0.1-0.3-0.2-0.6-0.1-0.9c0.1-0.1,0.2-0.3,0.4-0.3c0.1,0,0.3,0,0.4,0.1
		c0.2,0.1,0.4,0.3,0.6,0.4c0.4,0.3,0.7,0.6,1,0.9c0.5,0.6,1,1.2,1.5,1.9c0.3,0.4,0.5,0.9,0.7,1.5c0.1,0.1,0.1,0.4,0.1,0.6
		c-0.1,0-0.4-0.7-1.1-1.9c-0.4-0.7-0.9-1.2-1.5-1.7c-0.3-0.3-0.7-0.6-1-0.9c-0.1-0.1-0.4-0.3-0.6-0.4c-0.2-0.1-0.4-0.1-0.4,0.1
		c-0.1,0.2,0,0.4,0.1,0.6c0.1,0.2,0.2,0.4,0.4,0.6c0.7,1,1.5,1.9,2.5,2.6C138.8,212.6,139.5,213,139.5,213z"/>
	<path class="st11" d="M140.3,218.4c-0.1,0.1-0.3,0.1-0.4,0.1c-0.4,0.1-0.8,0.1-1.2,0.1c-1.5-0.1-2.8-0.7-3.8-1.7l-0.2-0.2l0.3-0.1
		l0.4-0.1c1.5-0.4,3.1-0.1,4.4,0.8c0.4,0.3,0.7,0.6,1,0.9c0.2,0.3,0.3,0.4,0.3,0.4c-0.4-0.4-0.9-0.8-1.5-1.2
		c-1.2-0.7-2.8-0.9-4.1-0.7l-0.4,0.1l0.1-0.3c0.9,1,2.3,1.6,3.6,1.7C139.1,218.5,139.7,218.4,140.3,218.4z"/>
	<path class="st11" d="M143.4,251.5c0,0,0.1-0.1,0.4-0.3c0.3-0.1,0.7-0.4,1.3-0.5c2.9-1.1,6-1.6,9.1-1.5c0.6,0,1.1,0.1,1.4,0.1
		c0.1,0,0.4,0.1,0.5,0.1c-0.7,0.1-1.3,0.1-1.9,0.1c-1.5,0-3.1,0.1-4.6,0.4c-1.5,0.3-3,0.7-4.5,1.1
		C144.1,251.3,143.4,251.5,143.4,251.5z"/>
	<path class="st11" d="M151.3,249.9c0,0.2-0.1,0.4-0.1,0.5c-0.2,0.4-0.4,0.9-0.7,1.3c-0.9,1.4-2.3,2.3-3.9,2.8l-0.1,0.1l-0.4,0.1
		l0.1-0.3c0.7-1.5,1.8-2.7,3.1-3.6c0.4-0.3,0.8-0.5,1.2-0.7c0.1-0.1,0.3-0.1,0.5-0.1c0,0.1-0.7,0.3-1.6,0.9c-1.2,0.9-2.3,2.1-3,3.5
		l-0.1-0.2l0.1-0.1c1.5-0.4,2.8-1.3,3.8-2.5C150.5,251,150.9,250.5,151.3,249.9z"/>
	<path class="st11" d="M148.4,249.3c0,0.1-0.7-0.5-1.8-1.1c-0.7-0.4-1.3-0.7-2-0.9c-0.4-0.1-0.9-0.2-1.2-0.3
		c-0.2-0.1-0.4-0.1-0.7-0.1c-0.2,0-0.4,0.1-0.5,0.1c-0.1,0.1-0.1,0.3,0.1,0.4c0.1,0.1,0.4,0.3,0.6,0.4c0.4,0.2,0.8,0.4,1.2,0.6
		c0.7,0.3,1.4,0.4,2.1,0.6c1.2,0.2,2,0.1,2,0.2c-0.1,0.1-0.4,0.1-0.6,0.1c-0.5,0-1,0-1.5-0.1c-0.7-0.1-1.5-0.3-2.2-0.5
		c-0.4-0.1-0.8-0.4-1.2-0.6c-0.2-0.1-0.4-0.2-0.6-0.4c-0.1-0.1-0.2-0.2-0.2-0.4c-0.1-0.1,0-0.4,0.1-0.5c0.2-0.2,0.5-0.4,0.8-0.3
		c0.2,0,0.5,0.1,0.7,0.1c0.4,0.1,0.9,0.2,1.3,0.4c0.7,0.2,1.4,0.6,2,0.9c0.4,0.3,0.9,0.6,1.2,0.9C148.1,249,148.3,249.1,148.4,249.3
		z"/>
	<path class="st11" d="M153.1,247.7c-0.2-0.6-0.4-1.1-0.7-1.6c-0.7-1.2-1.8-2.2-3.1-2.6l0.2-0.2c0,0.1,0.1,0.3,0.1,0.4
		c0.4,1.5,1.2,2.8,2.4,3.7c0.5,0.4,1,0.7,1.6,0.9c-0.1,0-0.4,0-0.5-0.1c-0.4-0.1-0.9-0.4-1.2-0.6c-1.3-0.9-2.3-2.2-2.6-3.8
		c0-0.1-0.1-0.3-0.1-0.4l-0.1-0.3l0.2,0.1c1.4,0.5,2.5,1.5,3.1,2.8c0.2,0.4,0.4,0.8,0.4,1.2C153.1,247.3,153.1,247.4,153.1,247.7z"
		/>
	<path class="st11" d="M149.7,209.7c0.2-0.5,0.4-1.1,0.6-1.7c0.3-1.5,0-2.9-0.9-4.1h0.2l-0.1,0.1c-0.9,1.1-1.2,2.7-0.7,4.1
		C149.2,208.6,149.4,209.1,149.7,209.7c-0.4-0.4-0.8-0.9-0.9-1.6c-0.3-0.7-0.4-1.4-0.3-2c0.1-0.9,0.4-1.7,0.9-2.3l0.1-0.1l0.1-0.1
		l0.1,0.1c0.5,0.7,0.8,1.5,0.9,2.3c0.1,0.7,0.1,1.4-0.1,2c-0.1,0.4-0.3,0.9-0.5,1.3C149.9,209.6,149.7,209.7,149.7,209.7z"/>
	<path class="st11" d="M163,256.7c0.3-0.5,0.4-1.1,0.6-1.7c0.3-1.5,0-3-0.8-4.1h0.2l-0.1,0.1c-0.9,1.1-1.2,2.7-0.7,4.1
		C162.4,255.7,162.7,256.2,163,256.7c-0.4-0.4-0.8-1-0.9-1.6c-0.3-0.7-0.4-1.4-0.3-2c0.1-0.9,0.4-1.7,0.9-2.3l0.1-0.1l0.1-0.1
		l0.1,0.1c0.5,0.7,0.8,1.5,0.9,2.3c0.1,0.7,0.1,1.4-0.1,2c-0.1,0.4-0.3,0.9-0.5,1.3C163.1,256.7,163,256.7,163,256.7z"/>
	<path class="st11" d="M130.6,234.2c0-0.1,0.9-0.5,2.3-1.5c0.8-0.6,1.5-1.2,2.1-2.1c0.7-1,1.1-2.3,0.9-3.5c-0.1-0.1,0.2,0.1,0.1,0.1
		H136h-0.1c-0.1,0-0.1,0-0.2,0.1l-0.4,0.1c-0.3,0.1-0.6,0.2-0.9,0.3c-0.5,0.2-1,0.6-1.5,0.9c-0.7,0.7-1.3,1.5-1.7,2.5
		c-0.4,0.9-0.5,1.8-0.6,2.8c-0.1-0.3-0.1-0.5-0.1-0.8c0-0.7,0.1-1.5,0.4-2.1c0.4-1,1-1.9,1.7-2.5c0.7-0.7,1.5-1.1,2.4-1.3
		c0.1-0.1,0.3-0.1,0.4-0.1l0.2-0.1h0.1h0.1l0.1,0.1c0.1,1.3-0.2,2.7-1,3.7c-0.6,0.9-1.4,1.5-2.3,2.1c-0.6,0.4-1.2,0.7-1.8,1
		C131.1,234,130.8,234.1,130.6,234.2z"/>
</g>
</svg>
